<?xml version="1.0" encoding="utf-8"?>
<!-- Generator: Adobe Illustrator 19.0.0, SVG Export Plug-In . SVG Version: 6.00 Build 0)  -->
<svg version="1.1" id="Capa_1" xmlns="http://www.w3.org/2000/svg" xmlns:xlink="http://www.w3.org/1999/xlink" x="0px" y="0px"
	 viewBox="0 0 235 49" style="enable-background:new 0 0 235 49;" xml:space="preserve">
<style type="text/css">
	.st0{fill:#010202;}
</style>
<g id="XMLID_53_">
	<g id="XMLID_69_">
		<path id="XMLID_51_" class="st0" d="M111.6,3.8h-2.4v7.6c0,0.6,0,0.8-0.1,1.1c-0.1,0.9-0.8,1.4-1.8,1.4c-0.8,0-1.3-0.3-1.6-0.8
			c-0.2-0.3-0.2-0.5-0.2-1.4V3.8h-2.5V12c0,1.1,0.1,1.6,0.5,2.3c0.7,1,2,1.6,3.8,1.6c2.6,0,3.8-1.3,4-2.3c0.2-0.5,0.2-0.8,0.2-1.9
			V3.8L111.6,3.8z"/>
		<path id="XMLID_50_" class="st0" d="M114.6,6.7l-2,0.6c0.2,0.6,0.3,1.3,0.3,2v6.3h2.3V9.4c0.5-0.5,1.1-0.8,1.6-0.8
			c0.6,0,0.8,0.3,0.8,1.3v5.7h2.3V9.2c0-0.5-0.1-0.9-0.2-1.2c-0.3-0.8-1.1-1.3-2.1-1.3c-0.5,0-1.1,0.2-1.6,0.4
			c-0.4,0.2-0.5,0.3-1,0.6C114.9,7.4,114.8,7,114.6,6.7L114.6,6.7z"/>
		<path id="XMLID_119_" class="st0" d="M122.8,3.1c-0.8,0-1.4,0.6-1.4,1.4c0,0.8,0.6,1.4,1.4,1.4c0.8,0,1.4-0.6,1.4-1.4
			C124.2,3.7,123.5,3.1,122.8,3.1L122.8,3.1z M123.9,6.7L121.6,7v8.6h2.3V6.7z"/>
		<path id="XMLID_47_" class="st0" d="M127,6.7L124.6,7l3.2,8.6h1.9l3.2-8.7h-2.4l-1.2,3.7c-0.3,0.9-0.5,1.7-0.5,2.2
			c-0.1-0.6-0.4-1.5-0.6-2.1L127,6.7z"/>
		<path id="XMLID_115_" class="st0" d="M136.9,6.7c-1.2,0-2,0.4-2.7,1.2c-0.8,0.9-1.1,1.9-1.1,3.5c0,2.7,1.6,4.6,4.1,4.6
			c1.2,0,2.3-0.4,3.3-1.2l-0.9-1.4c-0.7,0.6-1.4,0.9-2.2,0.9c-1.2,0-1.8-0.8-1.8-2.1v0h5v-0.5c0-1.8-0.4-3-1.2-3.8
			C138.9,7,137.9,6.7,136.9,6.7L136.9,6.7z M135.6,10.3L135.6,10.3c0-1.2,0.5-1.9,1.4-1.9c0.5,0,0.8,0.2,1,0.5
			c0.2,0.3,0.3,0.6,0.3,1.3v0.1L135.6,10.3L135.6,10.3z"/>
		<path id="XMLID_44_" class="st0" d="M146.2,6.7c-0.3,0-0.6,0.1-0.8,0.2c-0.4,0.2-1,0.6-1.3,1.1c-0.1-0.5-0.2-0.9-0.4-1.2l-2,0.5
			c0.2,0.5,0.3,1.4,0.3,2.6v5.8h2.3V9.5c0.4-0.5,0.9-0.8,1.4-0.8c0.3,0,0.4,0.1,0.6,0.2l0.6-2C146.7,6.7,146.6,6.7,146.2,6.7
			L146.2,6.7z"/>
		<path id="XMLID_43_" class="st0" d="M150.4,6.7c-2,0-3.4,1.1-3.4,2.8c0,0.6,0.2,1.2,0.5,1.6c0.3,0.4,1,0.8,1.6,0.9l1,0.2
			c0.9,0.2,1.3,0.5,1.3,1.1c0,0.5-0.5,1-1.2,1c-1,0-2.2-0.6-2.9-1l-0.8,1.7c1.3,0.6,2.5,1,3.5,1c2.3,0,3.8-1.2,3.8-3.1
			c0-0.6-0.2-1.1-0.5-1.5c-0.3-0.4-0.6-0.7-1.8-1l-1.1-0.3c-0.8-0.2-1.1-0.4-1.1-0.9c0-0.5,0.4-0.9,1.1-0.9c0.6,0,1.3,0.2,2.1,0.6
			l0.8-1.6C152.8,7.1,151.8,6.7,150.4,6.7L150.4,6.7z"/>
		<path id="XMLID_110_" class="st0" d="M156.4,3.1c-0.8,0-1.4,0.6-1.4,1.4c0,0.8,0.6,1.4,1.4,1.4c0.8,0,1.4-0.6,1.4-1.4
			C157.8,3.7,157.1,3.1,156.4,3.1L156.4,3.1z M157.5,6.7L155.1,7v8.6h2.3V6.7z"/>
		<path id="XMLID_107_" class="st0" d="M164.2,3v3c0,0.5,0.1,1.1,0.1,1.3c-0.4-0.3-0.9-0.5-1.6-0.5c-2.2,0-3.8,1.9-3.8,4.6
			s1.4,4.5,3.6,4.5c0.8,0,1.4-0.2,2-0.8c0.1,0.2,0.1,0.4,0.2,0.5h2c-0.2-0.3-0.3-1-0.3-3.2V3.3L164.2,3z M163.1,14
			c-1.2,0-1.6-0.6-1.6-2.5s0.4-2.8,1.4-2.8c0.4,0,0.8,0.2,1.2,0.5v4.2C164,13.6,163.5,14,163.1,14L163.1,14z"/>
		<path id="XMLID_104_" class="st0" d="M172,6.7c-0.8,0-1.6,0.2-2.4,0.5c-0.6,0.2-0.9,0.4-1.4,0.7l1,1.7c1-0.6,1.8-1,2.5-1
			c0.9,0,1,0.3,1,1.3v0.4c-0.2,0-0.3,0-0.5,0c-2.8,0-4.2,1-4.2,3c0,1.8,1.1,2.7,3,2.7c0.7,0,1.3-0.2,1.8-0.5
			c0.2-0.1,0.2-0.2,0.5-0.5c0.2,0.4,0.7,0.9,1.2,1.1l1.2-1.4c-0.6-0.5-0.8-0.9-0.8-1.8v-0.2l0.1-3c0-1-0.1-1.2-0.2-1.6
			C174.5,7.3,173.5,6.7,172,6.7L172,6.7z M171.5,14.3c-0.6,0-1-0.5-1-1.1c0-1,0.5-1.3,2.1-1.3h0.1l-0.1,1.9
			C172.4,14.1,171.9,14.3,171.5,14.3L171.5,14.3z"/>
		<path id="XMLID_101_" class="st0" d="M181.8,3v3c0,0.5,0.1,1.1,0.1,1.3c-0.4-0.3-0.9-0.5-1.6-0.5c-2.2,0-3.8,1.9-3.8,4.6
			s1.4,4.5,3.6,4.5c0.8,0,1.4-0.2,2-0.8c0.1,0.2,0.1,0.4,0.2,0.5h2c-0.2-0.3-0.3-1-0.3-3.2V3.3L181.8,3z M180.7,14
			c-1.2,0-1.6-0.6-1.6-2.5s0.4-2.8,1.4-2.8c0.4,0,0.8,0.2,1.2,0.5v4.2C181.6,13.6,181.1,14,180.7,14L180.7,14z"/>
		<path id="XMLID_34_" class="st0" d="M108,18.5c-1.9,0-3.6,1-4.6,2.7c-0.5,1-0.8,2.2-0.8,3.7c0,1.8,0.5,3.2,1.4,4.2
			c1,1.1,2.3,1.7,3.9,1.7c1.3,0,2.4-0.3,3.3-1.1l-1.1-1.5c-0.1,0.1-0.2,0.2-0.3,0.2c-0.6,0.4-1.1,0.6-1.8,0.6c-1,0-1.8-0.5-2.3-1.3
			c-0.4-0.6-0.5-1.6-0.5-3.2c0-1.4,0.2-2.4,0.6-3.1c0.4-0.6,1.2-1,2-1c0.6,0,1.3,0.2,1.9,0.6l1.1-1.6
			C110.4,18.8,109.2,18.5,108,18.5L108,18.5z"/>
		<path id="XMLID_97_" class="st0" d="M115.4,21.7c-0.8,0-1.6,0.2-2.4,0.5c-0.6,0.2-0.9,0.4-1.4,0.7l1,1.7c1-0.6,1.8-1,2.5-1
			c0.9,0,1,0.3,1,1.3v0.4c-0.2,0-0.3,0-0.5,0c-2.8,0-4.2,1-4.2,3c0,1.8,1.1,2.7,3,2.7c0.7,0,1.3-0.2,1.8-0.5
			c0.2-0.1,0.2-0.2,0.5-0.5c0.2,0.4,0.7,0.9,1.2,1.1l1.2-1.4c-0.6-0.5-0.8-0.9-0.8-1.8v-0.2l0.1-3c0-1-0.1-1.2-0.2-1.6
			C117.9,22.2,116.9,21.7,115.4,21.7L115.4,21.7z M114.9,29.3c-0.6,0-1-0.5-1-1.1c0-1,0.5-1.3,2.1-1.3h0.1l-0.1,1.9
			C115.7,29,115.3,29.3,114.9,29.3L114.9,29.3z"/>
		<path id="XMLID_31_" class="st0" d="M129.2,21.7c-1,0-1.7,0.3-2.5,1.1c-0.2-0.2-0.2-0.3-0.3-0.4c-0.5-0.5-1.1-0.7-1.8-0.7
			c-0.8,0-1.6,0.3-2.1,0.9c-0.1-0.4-0.2-0.6-0.3-0.9l-2.1,0.6c0.2,0.4,0.3,1,0.3,2.3v6.1h2.3v-6.4c0.5-0.4,1.1-0.6,1.5-0.6
			c0.6,0,0.8,0.3,0.8,1.3v5.7h2.2v-6.3c0.5-0.4,1.1-0.8,1.5-0.8c0.6,0,0.7,0.2,0.7,1.2v5.8h2.2v-6.3c0-1.2-0.2-1.7-0.6-2.1
			C130.5,21.9,129.8,21.7,129.2,21.7L129.2,21.7z"/>
		<path id="XMLID_93_" class="st0" d="M134.6,18c-0.8,0-1.4,0.6-1.4,1.4s0.6,1.4,1.4,1.4c0.8,0,1.4-0.6,1.4-1.4S135.4,18,134.6,18
			L134.6,18z M135.7,21.6l-2.3,0.4v8.6h2.3V21.6z"/>
		<path id="XMLID_28_" class="st0" d="M139.8,17.9l-2.4,0.5c0.1,0.8,0.1,1.5,0.1,2.6v6.5c0,1.2,0.1,1.5,0.2,2c0.3,0.8,1.1,1.2,2,1.2
			c0.5,0,1-0.1,1.3-0.2l-0.4-1.4c-0.1,0.1-0.2,0.1-0.3,0.1c-0.2,0-0.4-0.1-0.5-0.2c-0.2-0.2-0.2-0.4-0.2-1.9v-6.8
			C139.9,19,139.9,18.4,139.8,17.9L139.8,17.9z"/>
		<path id="XMLID_89_" class="st0" d="M145.3,21.7c-2.4,0-3.9,1.8-3.9,4.6c0,2.7,1.6,4.6,3.9,4.6c1.3,0,2.2-0.5,2.9-1.2
			c0.8-0.9,1.1-1.9,1.1-3.4c0-1.4-0.3-2.4-1-3.2C147.5,22.1,146.5,21.7,145.3,21.7L145.3,21.7z M145.3,29.1c-0.4,0-1-0.2-1.2-0.7
			c-0.2-0.4-0.3-1.2-0.3-2.2c0-0.9,0.1-1.5,0.2-1.9c0.2-0.5,0.6-0.9,1.2-0.9c0.4,0,0.8,0.2,1,0.5c0.3,0.4,0.5,1.2,0.5,2.4
			C146.7,28.3,146.3,29.1,145.3,29.1L145.3,29.1z"/>
		<path id="XMLID_25_" class="st0" d="M156.8,18.7h-2.4v9.8c0,1.3-0.1,1.8-0.2,2.2c-0.2,0.5-0.8,1.1-1.4,1.4l1.1,1.2
			c1.1-0.4,2.4-1.3,2.8-2.8c0.1-0.5,0.2-0.8,0.2-2.3L156.8,18.7L156.8,18.7z"/>
		<path id="XMLID_85_" class="st0" d="M161.7,21.7c-2.4,0-3.9,1.8-3.9,4.6c0,2.7,1.6,4.6,3.9,4.6c1.3,0,2.2-0.5,2.9-1.2
			c0.8-0.9,1.1-1.9,1.1-3.4c0-1.4-0.3-2.4-1-3.2C163.9,22.1,163,21.7,161.7,21.7L161.7,21.7z M161.8,29.1c-0.4,0-1-0.2-1.2-0.7
			c-0.2-0.4-0.3-1.2-0.3-2.2c0-0.9,0.1-1.5,0.2-1.9c0.2-0.5,0.6-0.9,1.2-0.9c0.4,0,0.8,0.2,1,0.5c0.3,0.4,0.5,1.2,0.5,2.4
			C163.2,28.3,162.8,29.1,161.8,29.1L161.8,29.1z"/>
		<path id="XMLID_22_" class="st0" d="M169.9,21.6c-2,0-3.4,1.1-3.4,2.8c0,0.6,0.2,1.2,0.5,1.6c0.3,0.4,1,0.8,1.6,0.9l1,0.2
			c0.9,0.2,1.3,0.5,1.3,1.1c0,0.6-0.5,1-1.2,1c-1,0-2.2-0.6-2.9-1l-0.8,1.7c1.3,0.6,2.5,1,3.5,1c2.3,0,3.8-1.2,3.8-3.1
			c0-0.6-0.2-1.1-0.5-1.5c-0.3-0.4-0.6-0.7-1.8-1l-1.1-0.3c-0.8-0.2-1.1-0.4-1.1-0.9c0-0.5,0.4-0.9,1.1-0.9c0.6,0,1.3,0.2,2.1,0.6
			l0.8-1.6C172.3,22.1,171.3,21.6,169.9,21.6L169.9,21.6z"/>
		<path id="XMLID_80_" class="st0" d="M179.6,17.6l-3.5,2.2l0.7,1.3l3.8-1.7L179.6,17.6z M178,21.7c-1.2,0-2,0.4-2.7,1.2
			c-0.8,0.9-1.1,1.9-1.1,3.5c0,2.7,1.6,4.6,4.1,4.6c1.2,0,2.3-0.4,3.3-1.2l-0.9-1.4c-0.7,0.6-1.4,0.9-2.2,0.9
			c-1.2,0-1.8-0.8-1.8-2.1V27h5v-0.5c0-1.8-0.4-3-1.2-3.8C180,22,179,21.7,178,21.7L178,21.7z M176.7,25.3L176.7,25.3
			c0-1.2,0.5-1.9,1.4-1.9c0.5,0,0.8,0.2,1,0.5c0.2,0.3,0.3,0.6,0.3,1.3v0.1L176.7,25.3L176.7,25.3z"/>
		<path id="XMLID_18_" class="st0" d="M191.5,18.5c-1.9,0-3.6,1-4.6,2.7c-0.5,1-0.8,2.2-0.8,3.7c0,1.8,0.5,3.2,1.4,4.2
			c1,1.1,2.3,1.7,3.9,1.7c1.3,0,2.4-0.3,3.3-1.1l-1.1-1.5c-0.1,0.1-0.2,0.2-0.3,0.2c-0.6,0.4-1.1,0.6-1.8,0.6c-1,0-1.8-0.5-2.3-1.3
			c-0.4-0.6-0.5-1.6-0.5-3.2c0-1.4,0.2-2.4,0.6-3.1c0.4-0.6,1.2-1,2-1c0.6,0,1.3,0.2,1.9,0.6l1.1-1.6
			C193.8,18.8,192.6,18.5,191.5,18.5L191.5,18.5z"/>
		<path id="XMLID_76_" class="st0" d="M198.9,21.7c-1.2,0-2,0.4-2.7,1.2c-0.8,0.9-1.1,1.9-1.1,3.5c0,2.7,1.6,4.6,4.1,4.6
			c1.2,0,2.3-0.4,3.3-1.2l-0.9-1.4c-0.7,0.6-1.4,0.9-2.3,0.9c-1.2,0-1.8-0.8-1.8-2.1V27h5v-0.5c0-1.8-0.4-3-1.2-3.8
			C200.8,22,199.8,21.7,198.9,21.7L198.9,21.7z M197.5,25.3L197.5,25.3c0-1.2,0.5-1.9,1.3-1.9c0.5,0,0.8,0.2,1,0.5
			c0.2,0.3,0.3,0.6,0.3,1.3v0.1L197.5,25.3L197.5,25.3z"/>
		<path id="XMLID_15_" class="st0" d="M206.1,17.9l-2.4,0.5c0.1,0.8,0.1,1.5,0.1,2.6v6.5c0,1.2,0.1,1.5,0.2,2c0.3,0.8,1.1,1.2,2,1.2
			c0.5,0,1-0.1,1.4-0.2l-0.4-1.4c-0.1,0.1-0.2,0.1-0.3,0.1c-0.2,0-0.4-0.1-0.5-0.2c-0.2-0.2-0.2-0.4-0.2-1.9v-6.8
			C206.2,19,206.2,18.4,206.1,17.9L206.1,17.9z"/>
		<path id="XMLID_72_" class="st0" d="M211.8,21.7c-0.8,0-1.6,0.2-2.4,0.5c-0.6,0.2-0.9,0.4-1.4,0.7l1,1.7c1-0.6,1.8-1,2.5-1
			c0.9,0,1,0.3,1,1.3v0.4c-0.2,0-0.3,0-0.5,0c-2.8,0-4.2,1-4.2,3c0,1.8,1.1,2.7,3,2.7c0.7,0,1.3-0.2,1.8-0.5
			c0.2-0.1,0.2-0.2,0.5-0.5c0.2,0.4,0.7,0.9,1.2,1.1l1.2-1.4c-0.6-0.5-0.8-0.9-0.8-1.8v-0.2l0.1-3c0-1-0.1-1.2-0.2-1.6
			C214.3,22.2,213.2,21.7,211.8,21.7L211.8,21.7z M211.2,29.3c-0.6,0-1-0.5-1-1.1c0-1,0.5-1.3,2.1-1.3h0.1v1.9
			C212.1,29,211.6,29.3,211.2,29.3L211.2,29.3z"/>
		<path id="XMLID_12_" class="st0" d="M82.3,3.7c-3.7,0-6.7,3-6.7,6.7s3,6.7,6.7,6.7c3.7,0,6.7-3,6.7-6.7C89.1,6.7,86,3.7,82.3,3.7
			L82.3,3.7z"/>
		<path id="XMLID_11_" class="st0" d="M76.2,19.2c-6.4,0-8.8,6.6-9.7,9.9c-0.1,0.5,0.3,1,0.9,1.1c0.1,0,0.1,0,0.1,0
			c0.4,0,0.7-0.3,0.9-0.6c1.4-2.8,3.2-3.4,4.7-3.4c0.9,0,1.6,0.2,2.2,0.4c2.9,0.8,10.7,4.2,13.5,4.2c0.1,0,0.1,0,0.1,0
			c5.7,0,8.2-5.5,9.2-9.9c0.1-0.5-0.4-1-0.9-1.1c-0.1,0-0.1,0-0.1,0c-0.4,0-0.8,0.3-0.9,0.6c-1.3,3-2.7,3.7-4,3.7
			c-0.7,0-1.4-0.2-1.9-0.4c-2.8-0.9-10-4.5-13.9-4.5C76.3,19.2,76.3,19.2,76.2,19.2L76.2,19.2z"/>
	</g>
	<g id="XMLID_54_">
		<path id="XMLID_10_" class="st0" d="M15.1,1.8c-1.4,0-3.4,0.3-5.6,1.4C7,4.7,5.8,6.5,4.7,8.9L4.4,9.6l4.7,3l0.4-1
			c1.4-3.7,4-4.5,5.8-4.5c3.9,0,4.1,3.4,4.1,4c0,3-2.8,5.1-5.6,7.2l0,0c-6,4.5-8.7,7.7-8.9,14.9V34h16.5c1-2.5,2.4-4.3,4-5.4H11.3
			l0.2-0.4c0.1-0.2,0.2-0.4,0.3-0.6l0.1-0.1l0,0c0,0,0.8-1.5,2.4-2.7l3.3-2.5c3.6-2.8,5-4.2,6-5.8c1.2-1.8,1.6-3.9,1.6-5.3
			C25.2,3.7,18.6,1.8,15.1,1.8L15.1,1.8z"/>
		<path id="XMLID_65_" class="st0" d="M40.4,1C33,1,26.7,7.2,26.9,14.6c-0.3,7.5,6.3,13.6,13.5,13.7h0.1c7.1,0,13.7-5.8,13.7-13.6
			c0-7.9-6.5-13.6-13.5-13.6C40.5,1,40.4,1,40.4,1L40.4,1z M40.4,22.8L40.4,22.8c-4.3,0-8.3-3.7-8.1-8.2c-0.2-4.4,3.7-8.2,8.2-8.2
			h0.1c4.2,0.1,8.1,3.4,8.1,8.2C48.7,19.3,44.7,22.8,40.4,22.8L40.4,22.8z"/>
		<path id="XMLID_7_" class="st0" d="M31.2,28.5c-4.5,0-7.7,3.3-9.5,9.9c0.1,0.1,0.1,0.1,0.1,0.1s0.1-0.1,0.2-0.2
			c1.7-3.4,4-4.1,5.8-4.1c1,0,1.9,0.2,2.5,0.4c1.2,0.3,3,1,5,1.7c3.3,1.2,7.5,2.7,9.2,2.8c0.1,0,0.1,0,0.1,0c3,0,7-1.7,9-9.9
			C53.5,29,53.5,29,53.4,29l0,0c-0.1,0-0.1,0.1-0.2,0.2c-1.6,3.6-3.4,4.5-5,4.5c-0.8,0-1.6-0.2-2.1-0.4l-0.2-0.1
			c-1-0.3-2.4-0.9-3.9-1.5C38.6,30.4,34,28.5,31.2,28.5C31.3,28.5,31.2,28.5,31.2,28.5L31.2,28.5z"/>
		<path id="XMLID_61_" class="st0" d="M15.8,38h-1l-2.7,6h1l0.8-1.7h2.9l0.8,1.7h1L15.8,38z M14.2,41.4l1.1-2.6l1.1,2.6H14.2z"/>
		<polygon id="XMLID_4_" class="st0" points="24.5,38 23.6,38 23.6,42.7 23.6,42.7 19.7,38 18.7,38 18.7,44 19.6,44 19.6,39.2 
			19.6,39.2 23.4,44 24.5,44 		"/>
		<g id="XMLID_55_">
			<path id="XMLID_57_" class="st0" d="M28.8,37.8c-2.4,0-3.3,1.6-3.3,3.1s0.9,3.1,3.3,3.1s3.3-1.6,3.3-3.1
				C32.1,39.5,31.2,37.8,28.8,37.8L28.8,37.8z M28.8,43.3c-1.3,0-2.4-0.8-2.4-2.4s1.1-2.4,2.4-2.4s2.4,0.8,2.4,2.4
				C31.2,42.6,30.1,43.3,28.8,43.3L28.8,43.3z"/>
			<path id="XMLID_1_" class="st0" d="M35.1,37.8c-1.5,0-2.4,0.8-2.4,1.8c0,1.2,1.1,1.4,1.8,1.6l1.3,0.2c0.7,0.1,1.1,0.3,1.1,0.9
				c0,0.6-0.6,1-1.6,1c-0.9,0-1.9-0.3-1.9-1.3h-0.9c0,1.7,1.4,2.1,2.7,2.1c1.2,0,2.6-0.4,2.6-1.9c0-1.2-1.3-1.4-1.8-1.5l-1.4-0.3
				c-0.8-0.1-1-0.4-1-0.8c0-0.7,0.8-1,1.4-1c1.4,0,1.7,0.6,1.8,1.1h0.9C37.6,38.3,36.3,37.8,35.1,37.8L35.1,37.8z"/>
		</g>
	</g>
</g>
</svg>
