<svg id="Capa_1" data-name="Capa 1" xmlns="http://www.w3.org/2000/svg" viewBox="0 0 906 87"><title>mapa3</title><rect y="1" width="906" height="86" style="fill:#fff"/><rect x="241" y="1" width="161" height="86" style="fill:#aec0ce"/><rect x="30" y="1" width="161" height="74" style="fill:#aec0ce"/><path d="M85.26,181.29a3.2,3.2,0,0,1-.24,1.25,3,3,0,0,1-.66,1,3.17,3.17,0,0,1-1.24.79,5.19,5.19,0,0,1-1.81.27H80v3.79H78.6V178.21h2.76a6.26,6.26,0,0,1,1.55.16,3.39,3.39,0,0,1,1.13.48,2.69,2.69,0,0,1,.9,1A3.08,3.08,0,0,1,85.26,181.29Zm-1.41,0a2,2,0,0,0-.19-.91,1.56,1.56,0,0,0-.56-.64,2.13,2.13,0,0,0-.74-.3,5.19,5.19,0,0,0-1.07-.1H80v4.07h1.14a4.9,4.9,0,0,0,1.34-.15,1.82,1.82,0,0,0,.83-.46,1.94,1.94,0,0,0,.46-.69A2.66,2.66,0,0,0,83.85,181.32Z" transform="translate(-20 -156)" style="fill:#f2f2f2"/><path d="M91.7,182.16h-.06a4.15,4.15,0,0,0-.56-.1,5.85,5.85,0,0,0-.64,0,2.72,2.72,0,0,0-1.15.26,5.65,5.65,0,0,0-1.07.68v5.42H86.94v-7.63h1.28v1.12a6.24,6.24,0,0,1,1.35-.87,3,3,0,0,1,1.2-.25h.48l.45.07Z" transform="translate(-20 -156)" style="fill:#f2f2f2"/><path d="M94.29,179.48H92.85v-1.34h1.44Zm-.08,8.91H92.93v-7.63h1.28Z" transform="translate(-20 -156)" style="fill:#f2f2f2"/><path d="M102.4,187.91a7.31,7.31,0,0,1-1.22.48,4.07,4.07,0,0,1-1.23.17,4.55,4.55,0,0,1-1.51-.24,3.11,3.11,0,0,1-1.19-.74,3.23,3.23,0,0,1-.77-1.24,5.21,5.21,0,0,1-.27-1.76,4.07,4.07,0,0,1,1-2.94,3.59,3.59,0,0,1,2.71-1.06,4.67,4.67,0,0,1,1.29.18,8.25,8.25,0,0,1,1.16.45v1.43h-.07a4.81,4.81,0,0,0-1.21-.7,3.21,3.21,0,0,0-1.22-.25,2.18,2.18,0,0,0-1.73.74,3.23,3.23,0,0,0-.63,2.15,3.28,3.28,0,0,0,.62,2.13,2.15,2.15,0,0,0,1.74.74,3.64,3.64,0,0,0,.79-.1,3.69,3.69,0,0,0,.73-.27l.52-.3a3.39,3.39,0,0,0,.39-.28h.07Z" transform="translate(-20 -156)" style="fill:#f2f2f2"/><path d="M110.44,184.71h-5.63a3.2,3.2,0,0,0,.22,1.22,2.22,2.22,0,0,0,.58.86,2.27,2.27,0,0,0,.84.49,3.4,3.4,0,0,0,1.08.17,4.43,4.43,0,0,0,1.57-.31,4,4,0,0,0,1.12-.61h.07v1.4a9.9,9.9,0,0,1-1.33.45,5.07,5.07,0,0,1-1.42.19,4.07,4.07,0,0,1-3-1,3.84,3.84,0,0,1-1.07-2.92,4.23,4.23,0,0,1,1-3,3.51,3.51,0,0,1,2.69-1.1,3,3,0,0,1,2.38.91,3.61,3.61,0,0,1,.84,2.56Zm-1.25-1a2.22,2.22,0,0,0-.51-1.56,2,2,0,0,0-1.53-.56,2.24,2.24,0,0,0-1.64.61,2.4,2.4,0,0,0-.7,1.51Z" transform="translate(-20 -156)" style="fill:#f2f2f2"/><path d="M123.7,184.71h-5.62a3.21,3.21,0,0,0,.21,1.22,2.22,2.22,0,0,0,.58.86,2.35,2.35,0,0,0,.84.49,3.4,3.4,0,0,0,1.08.17,4.43,4.43,0,0,0,1.57-.31,3.81,3.81,0,0,0,1.12-.61h.07v1.4a10.26,10.26,0,0,1-1.32.45,5.2,5.2,0,0,1-1.43.19,4.07,4.07,0,0,1-3-1,3.88,3.88,0,0,1-1.07-2.92,4.23,4.23,0,0,1,1-3,3.51,3.51,0,0,1,2.69-1.1,3.08,3.08,0,0,1,2.39.91,3.65,3.65,0,0,1,.83,2.56Zm-1.25-1a2.22,2.22,0,0,0-.51-1.56,2,2,0,0,0-1.53-.56,2.26,2.26,0,0,0-1.64.61,2.34,2.34,0,0,0-.69,1.51Z" transform="translate(-20 -156)" style="fill:#f2f2f2"/><path d="M127,188.39h-1.29V177.75H127Z" transform="translate(-20 -156)" style="fill:#f2f2f2"/><path d="M135.43,188.39h-1.28v-.81l-.46.32a3.45,3.45,0,0,1-.57.33,3.36,3.36,0,0,1-.74.27,4,4,0,0,1-1,.1,2.46,2.46,0,0,1-1.75-.68,2.31,2.31,0,0,1-.72-1.74,2.22,2.22,0,0,1,1.43-2.25,5.58,5.58,0,0,1,1.68-.42c.65-.07,1.35-.13,2.1-.16v-.2a1.49,1.49,0,0,0-.16-.73,1.12,1.12,0,0,0-.44-.45,2,2,0,0,0-.65-.21,5.49,5.49,0,0,0-1.93.08,8.92,8.92,0,0,0-1.29.39h-.06v-1.31c.25-.07.61-.14,1.08-.23a8.45,8.45,0,0,1,1.4-.12,6.46,6.46,0,0,1,1.41.14,2.61,2.61,0,0,1,1,.45,2,2,0,0,1,.66.81,3,3,0,0,1,.23,1.24Zm-1.28-1.88v-2.12c-.39,0-.86.05-1.39.1a6.39,6.39,0,0,0-1.26.2,1.88,1.88,0,0,0-.89.49,1.19,1.19,0,0,0-.34.91,1.24,1.24,0,0,0,.39,1,1.88,1.88,0,0,0,1.21.33,2.82,2.82,0,0,0,1.24-.27A5.24,5.24,0,0,0,134.15,186.51Z" transform="translate(-20 -156)" style="fill:#f2f2f2"/><path d="M143.36,186.19a2.08,2.08,0,0,1-.87,1.72,3.8,3.8,0,0,1-2.36.67,5.5,5.5,0,0,1-1.56-.21,6.54,6.54,0,0,1-1.18-.44v-1.44h.07a4.88,4.88,0,0,0,1.35.73,4.19,4.19,0,0,0,1.43.27,2.68,2.68,0,0,0,1.32-.27.93.93,0,0,0,.48-.87.85.85,0,0,0-.26-.68,2.36,2.36,0,0,0-1-.4l-.72-.14a7.35,7.35,0,0,1-.8-.18,2.66,2.66,0,0,1-1.43-.78,1.94,1.94,0,0,1-.42-1.27,2.1,2.1,0,0,1,.2-.89,2.15,2.15,0,0,1,.59-.74,2.63,2.63,0,0,1,1-.51,4.27,4.27,0,0,1,1.33-.19,6.06,6.06,0,0,1,1.38.17,5.1,5.1,0,0,1,1.17.41v1.37H143a4.5,4.5,0,0,0-1.2-.61,4,4,0,0,0-1.38-.25,2.41,2.41,0,0,0-1.19.27.88.88,0,0,0-.49.8.85.85,0,0,0,.3.71,2.27,2.27,0,0,0,.93.39l.79.17c.3.05.54.1.74.15a2.66,2.66,0,0,1,1.38.7A1.87,1.87,0,0,1,143.36,186.19Z" transform="translate(-20 -156)" style="fill:#f2f2f2"/><path d="M149.16,188.32a5.8,5.8,0,0,1-.79.16,5.5,5.5,0,0,1-.76.06,2.37,2.37,0,0,1-1.78-.63,2.8,2.8,0,0,1-.61-2v-4.06h-.87v-1.08h.87v-2.2h1.29v2.2h2.65v1.08h-2.65v3.48c0,.4,0,.71,0,.94a1.6,1.6,0,0,0,.2.63.93.93,0,0,0,.41.4,2,2,0,0,0,.8.12,2.61,2.61,0,0,0,.66-.09,4.46,4.46,0,0,0,.49-.15h.07Z" transform="translate(-20 -156)" style="fill:#f2f2f2"/><path d="M152.09,179.48h-1.45v-1.34h1.45Zm-.08,8.91h-1.28v-7.63H152Z" transform="translate(-20 -156)" style="fill:#f2f2f2"/><path d="M160.2,187.91a7.66,7.66,0,0,1-1.22.48,4.11,4.11,0,0,1-1.23.17,4.66,4.66,0,0,1-1.52-.24,3.07,3.07,0,0,1-1.18-.74,3.23,3.23,0,0,1-.77-1.24,5.21,5.21,0,0,1-.27-1.76,4.07,4.07,0,0,1,1-2.94,3.59,3.59,0,0,1,2.71-1.06,4.67,4.67,0,0,1,1.29.18,8.25,8.25,0,0,1,1.16.45v1.43h-.07a5,5,0,0,0-1.21-.7,3.25,3.25,0,0,0-1.22-.25,2.17,2.17,0,0,0-1.73.74,3.23,3.23,0,0,0-.63,2.15,3.28,3.28,0,0,0,.62,2.13,2.15,2.15,0,0,0,1.74.74,3.64,3.64,0,0,0,.79-.1,3.69,3.69,0,0,0,.73-.27l.52-.3a3.39,3.39,0,0,0,.39-.28h.07Z" transform="translate(-20 -156)" style="fill:#f2f2f2"/><path d="M163.23,179.48h-1.45v-1.34h1.45Zm-.08,8.91h-1.29v-7.63h1.29Z" transform="translate(-20 -156)" style="fill:#f2f2f2"/><path d="M169.65,188.32a5.51,5.51,0,0,1-.79.16,5.38,5.38,0,0,1-.76.06,2.37,2.37,0,0,1-1.78-.63,2.84,2.84,0,0,1-.6-2v-4.06h-.87v-1.08h.87v-2.2H167v2.2h2.65v1.08H167v3.48c0,.4,0,.71,0,.94a1.59,1.59,0,0,0,.19.63,1,1,0,0,0,.41.4,2.09,2.09,0,0,0,.81.12,2.48,2.48,0,0,0,.65-.09,4.82,4.82,0,0,0,.5-.15h.06Z" transform="translate(-20 -156)" style="fill:#f2f2f2"/><path d="M177.74,180.76l-4.46,10.45h-1.37l1.42-3.19-3-7.26h1.39l2.35,5.66,2.36-5.66Z" transform="translate(-20 -156)" style="fill:#f2f2f2"/><path d="M100.42,204.58a4.31,4.31,0,0,1-1,2.94,3.6,3.6,0,0,1-5.14,0,5,5,0,0,1,0-5.89,3.57,3.57,0,0,1,5.14,0A4.32,4.32,0,0,1,100.42,204.58Zm-1.32,0a3.54,3.54,0,0,0-.58-2.21,2.18,2.18,0,0,0-3.24,0,4.42,4.42,0,0,0,0,4.38,2.12,2.12,0,0,0,3.23,0A3.46,3.46,0,0,0,99.1,204.58Z" transform="translate(-20 -156)" style="fill:#f2f2f2"/><path d="M106.52,199h-.07l-.55-.13a3.57,3.57,0,0,0-.6-.06,1.69,1.69,0,0,0-1.2.36,1.85,1.85,0,0,0-.38,1.33v.26H106v1.08h-2.27v6.55h-1.29v-6.55h-.87v-1.08h.87v-.26a3,3,0,0,1,.68-2.09,2.54,2.54,0,0,1,2-.72,6.14,6.14,0,0,1,.78,0c.23,0,.44.06.63.09Z" transform="translate(-20 -156)" style="fill:#f2f2f2"/><path d="M118.45,208.39h-1.29v-.8a4.72,4.72,0,0,1-1.15.75,3.33,3.33,0,0,1-1.31.26,2.6,2.6,0,0,1-2.17-1,4.74,4.74,0,0,1-.8-2.92,4.91,4.91,0,0,1,.28-1.73,4.07,4.07,0,0,1,.74-1.29,3.11,3.11,0,0,1,1.09-.79,3,3,0,0,1,1.28-.28,4.29,4.29,0,0,1,1.07.13,5,5,0,0,1,1,.39v-3.31h1.29Zm-1.29-1.88v-4.38a4.29,4.29,0,0,0-.93-.32,4.13,4.13,0,0,0-.89-.09,2,2,0,0,0-1.68.75,3.33,3.33,0,0,0-.6,2.13,3.78,3.78,0,0,0,.46,2.07,1.66,1.66,0,0,0,1.49.71,2.81,2.81,0,0,0,1.11-.24A4.44,4.44,0,0,0,117.16,206.51Z" transform="translate(-20 -156)" style="fill:#f2f2f2"/><path d="M127.37,204.71h-5.63a3,3,0,0,0,.22,1.22,2.22,2.22,0,0,0,.58.86,2.27,2.27,0,0,0,.84.49,3.4,3.4,0,0,0,1.08.17,4.43,4.43,0,0,0,1.57-.31,4,4,0,0,0,1.12-.61h.07v1.4a10.4,10.4,0,0,1-1.33.45,5.07,5.07,0,0,1-1.42.19,4.1,4.1,0,0,1-3-1,3.88,3.88,0,0,1-1.06-2.92,4.23,4.23,0,0,1,1-3,3.51,3.51,0,0,1,2.69-1.1,3.06,3.06,0,0,1,2.38.91,3.61,3.61,0,0,1,.84,2.56Zm-1.25-1a2.32,2.32,0,0,0-.51-1.56,2,2,0,0,0-1.53-.56,2.24,2.24,0,0,0-1.64.61,2.4,2.4,0,0,0-.7,1.51Z" transform="translate(-20 -156)" style="fill:#f2f2f2"/><path d="M140.46,208.39h-1.28V204c0-.32,0-.64-.05-.95a1.94,1.94,0,0,0-.19-.73,1,1,0,0,0-.45-.44,1.9,1.9,0,0,0-.85-.15,2.4,2.4,0,0,0-1.08.27,7.14,7.14,0,0,0-1.08.68,3.5,3.5,0,0,1,0,.37c0,.14,0,.28,0,.41v4.89h-1.28V204c0-.33,0-.65-.05-1a1.88,1.88,0,0,0-.19-.72,1,1,0,0,0-.45-.45,2.06,2.06,0,0,0-.84-.14,2.27,2.27,0,0,0-1.06.26,6.13,6.13,0,0,0-1.06.66v5.7h-1.28v-7.63h1.28v.84a5.83,5.83,0,0,1,1.2-.78,3.1,3.1,0,0,1,1.28-.28,2.49,2.49,0,0,1,1.32.33,2,2,0,0,1,.81.91,6.49,6.49,0,0,1,1.42-.95,3.38,3.38,0,0,1,1.38-.29,2.2,2.2,0,0,1,1.85.77,3.33,3.33,0,0,1,.6,2.13Z" transform="translate(-20 -156)" style="fill:#f2f2f2"/><path d="M148.87,208.39h-1.28v-.81l-.46.32a3,3,0,0,1-.56.33,3.79,3.79,0,0,1-.74.27,4.1,4.1,0,0,1-1,.1,2.46,2.46,0,0,1-1.75-.68,2.31,2.31,0,0,1-.72-1.74,2.5,2.5,0,0,1,.37-1.41,2.46,2.46,0,0,1,1.07-.84,5.44,5.44,0,0,1,1.67-.42c.65-.07,1.35-.13,2.1-.16v-.2a1.61,1.61,0,0,0-.15-.73A1.19,1.19,0,0,0,147,202a2,2,0,0,0-.66-.21,5.21,5.21,0,0,0-.8,0,5.37,5.37,0,0,0-1.13.13,8.81,8.81,0,0,0-1.28.39h-.07v-1.31c.25-.07.61-.14,1.09-.23a8.36,8.36,0,0,1,1.4-.12,6.43,6.43,0,0,1,1.4.14,2.65,2.65,0,0,1,1,.45,2.07,2.07,0,0,1,.65.81,3,3,0,0,1,.23,1.24Zm-1.28-1.88v-2.12c-.39,0-.85.05-1.38.1a6.39,6.39,0,0,0-1.26.2,2,2,0,0,0-.9.49,1.19,1.19,0,0,0-.34.91,1.24,1.24,0,0,0,.39,1,1.88,1.88,0,0,0,1.21.33,2.79,2.79,0,0,0,1.24-.27A5,5,0,0,0,147.59,206.51Z" transform="translate(-20 -156)" style="fill:#f2f2f2"/><path d="M157.73,208.39h-1.29V204a7.47,7.47,0,0,0-.06-1,1.85,1.85,0,0,0-.22-.73,1,1,0,0,0-.5-.42,2,2,0,0,0-.83-.14,2.56,2.56,0,0,0-1.1.26,5.44,5.44,0,0,0-1.1.66v5.7h-1.29v-7.63h1.29v.84a5.34,5.34,0,0,1,1.24-.78,3.4,3.4,0,0,1,1.32-.28,2.36,2.36,0,0,1,1.89.75,3.19,3.19,0,0,1,.65,2.15Z" transform="translate(-20 -156)" style="fill:#f2f2f2"/><path d="M166.4,208.39h-1.29v-.8a4.72,4.72,0,0,1-1.15.75,3.33,3.33,0,0,1-1.31.26,2.6,2.6,0,0,1-2.17-1,4.67,4.67,0,0,1-.8-2.92,5.15,5.15,0,0,1,.27-1.73,4.29,4.29,0,0,1,.75-1.29,3.25,3.25,0,0,1,2.37-1.07,4.21,4.21,0,0,1,1.06.13,5.12,5.12,0,0,1,1,.39v-3.31h1.29Zm-1.29-1.88v-4.38a4.29,4.29,0,0,0-.93-.32,4.13,4.13,0,0,0-.89-.09,2.06,2.06,0,0,0-1.69.75,3.33,3.33,0,0,0-.6,2.13,3.77,3.77,0,0,0,.47,2.07,1.65,1.65,0,0,0,1.49.71,2.85,2.85,0,0,0,1.11-.24A4.44,4.44,0,0,0,165.11,206.51Z" transform="translate(-20 -156)" style="fill:#f2f2f2"/><path d="M293.83,193.39h-6.71V183.21h6.71v1.21h-5.35v2.79h5.35v1.2h-5.35v3.78h5.35Z" transform="translate(-20 -156)" style="fill:#f2f2f2"/><path d="M297.17,193.39h-1.28V182.75h1.28Z" transform="translate(-20 -156)" style="fill:#f2f2f2"/><path d="M305.65,193.39h-1.28v-.81l-.46.32a3,3,0,0,1-.56.33,3.56,3.56,0,0,1-.74.27,4.1,4.1,0,0,1-1,.1,2.46,2.46,0,0,1-1.75-.68,2.31,2.31,0,0,1-.72-1.74,2.42,2.42,0,0,1,.38-1.41,2.37,2.37,0,0,1,1.06-.84,5.44,5.44,0,0,1,1.67-.42c.65-.07,1.35-.13,2.1-.16v-.2a1.61,1.61,0,0,0-.15-.73,1.12,1.12,0,0,0-.44-.45,2,2,0,0,0-.66-.21,5.13,5.13,0,0,0-.8,0,5.37,5.37,0,0,0-1.13.13,8.81,8.81,0,0,0-1.28.39h-.07v-1.31c.25-.07.61-.14,1.09-.23a8.36,8.36,0,0,1,1.4-.12,6.37,6.37,0,0,1,1.4.14,2.65,2.65,0,0,1,1,.45,2.07,2.07,0,0,1,.65.81,3,3,0,0,1,.23,1.24Zm-1.28-1.88v-2.12c-.39,0-.85.05-1.38.1a6.39,6.39,0,0,0-1.26.2,2,2,0,0,0-.9.49,1.19,1.19,0,0,0-.34.91,1.24,1.24,0,0,0,.39,1,1.89,1.89,0,0,0,1.22.33,2.77,2.77,0,0,0,1.23-.27A5,5,0,0,0,304.37,191.51Z" transform="translate(-20 -156)" style="fill:#f2f2f2"/><path d="M313.58,191.19a2.08,2.08,0,0,1-.87,1.72,3.78,3.78,0,0,1-2.36.67,5.43,5.43,0,0,1-1.55-.21,6.67,6.67,0,0,1-1.19-.44v-1.44h.07a5.18,5.18,0,0,0,1.35.73,4.24,4.24,0,0,0,1.43.27,2.72,2.72,0,0,0,1.33-.27.93.93,0,0,0,.48-.87.88.88,0,0,0-.26-.68,2.48,2.48,0,0,0-1-.4l-.72-.14a7.35,7.35,0,0,1-.8-.18,2.63,2.63,0,0,1-1.42-.78,1.94,1.94,0,0,1-.42-1.27,2.09,2.09,0,0,1,.19-.89,2.27,2.27,0,0,1,.59-.74,2.67,2.67,0,0,1,1-.51,4.17,4.17,0,0,1,1.32-.19,6,6,0,0,1,1.38.17,5.1,5.1,0,0,1,1.17.41v1.37h-.07a4.5,4.5,0,0,0-1.2-.61,4,4,0,0,0-1.38-.25,2.43,2.43,0,0,0-1.19.27,1,1,0,0,0-.19,1.51,2.27,2.27,0,0,0,.93.39l.8.17c.29.05.54.1.73.15a2.66,2.66,0,0,1,1.38.7A1.83,1.83,0,0,1,313.58,191.19Z" transform="translate(-20 -156)" style="fill:#f2f2f2"/><path d="M319.38,193.32a6.48,6.48,0,0,1-1.55.22,2.37,2.37,0,0,1-1.78-.63,2.84,2.84,0,0,1-.6-2v-4.06h-.87v-1.08h.87v-2.2h1.28v2.2h2.65v1.08h-2.65v3.48c0,.4,0,.71,0,.94a1.59,1.59,0,0,0,.19.63,1,1,0,0,0,.41.4,2.09,2.09,0,0,0,.81.12,2.54,2.54,0,0,0,.65-.09,4.46,4.46,0,0,0,.49-.15h.07Z" transform="translate(-20 -156)" style="fill:#f2f2f2"/><path d="M322.32,184.48h-1.45v-1.34h1.45Zm-.09,8.91H321v-7.63h1.28Z" transform="translate(-20 -156)" style="fill:#f2f2f2"/><path d="M330.42,192.91a7,7,0,0,1-1.22.48,4,4,0,0,1-1.22.17,4.57,4.57,0,0,1-1.52-.24,3,3,0,0,1-1.18-.74,3.25,3.25,0,0,1-.78-1.24,5.21,5.21,0,0,1-.27-1.76,4.07,4.07,0,0,1,1-2.94,3.61,3.61,0,0,1,2.72-1.06,4.65,4.65,0,0,1,1.28.18,7.79,7.79,0,0,1,1.16.45v1.43h-.06a5,5,0,0,0-1.22-.7,3.21,3.21,0,0,0-1.22-.25,2.15,2.15,0,0,0-1.72.74,3.17,3.17,0,0,0-.64,2.15,3.28,3.28,0,0,0,.62,2.13,2.15,2.15,0,0,0,1.74.74,3.56,3.56,0,0,0,.79-.1,3.69,3.69,0,0,0,.73-.27l.52-.3.4-.28h.06Z" transform="translate(-20 -156)" style="fill:#f2f2f2"/><path d="M333.45,184.48H332v-1.34h1.45Zm-.08,8.91h-1.29v-7.63h1.29Z" transform="translate(-20 -156)" style="fill:#f2f2f2"/><path d="M339.88,193.32a5.8,5.8,0,0,1-.79.16,5.61,5.61,0,0,1-.76.06,2.36,2.36,0,0,1-1.78-.63,2.8,2.8,0,0,1-.61-2v-4.06h-.87v-1.08h.87v-2.2h1.28v2.2h2.66v1.08h-2.66v3.48c0,.4,0,.71,0,.94a1.59,1.59,0,0,0,.19.63,1,1,0,0,0,.42.4,2,2,0,0,0,.8.12,2.61,2.61,0,0,0,.66-.09l.49-.15h.07Z" transform="translate(-20 -156)" style="fill:#f2f2f2"/><path d="M348,185.76l-4.45,10.45h-1.38l1.42-3.19-3-7.26h1.4l2.34,5.66,2.37-5.66Z" transform="translate(-20 -156)" style="fill:#f2f2f2"/><path d="M360.5,193.39h-1.28v-.81l-.46.32a3,3,0,0,1-.56.33,3.56,3.56,0,0,1-.74.27,4,4,0,0,1-1,.1,2.46,2.46,0,0,1-1.75-.68,2.31,2.31,0,0,1-.72-1.74,2.42,2.42,0,0,1,.38-1.41,2.37,2.37,0,0,1,1.06-.84,5.44,5.44,0,0,1,1.67-.42c.66-.07,1.36-.13,2.1-.16v-.2a1.61,1.61,0,0,0-.15-.73,1.12,1.12,0,0,0-.44-.45,2,2,0,0,0-.66-.21,5.13,5.13,0,0,0-.8,0,5.37,5.37,0,0,0-1.13.13,8.81,8.81,0,0,0-1.28.39h-.07v-1.31c.25-.07.61-.14,1.09-.23a8.36,8.36,0,0,1,1.4-.12,6.3,6.3,0,0,1,1.4.14,2.65,2.65,0,0,1,1,.45,2.09,2.09,0,0,1,.66.81,3,3,0,0,1,.22,1.24Zm-1.28-1.88v-2.12c-.39,0-.85.05-1.38.1a6.39,6.39,0,0,0-1.26.2,2,2,0,0,0-.9.49,1.19,1.19,0,0,0-.34.91,1.21,1.21,0,0,0,.4,1,1.84,1.84,0,0,0,1.21.33,2.77,2.77,0,0,0,1.23-.27A5,5,0,0,0,359.22,191.51Z" transform="translate(-20 -156)" style="fill:#f2f2f2"/><path d="M364.28,193.39H363V182.75h1.29Z" transform="translate(-20 -156)" style="fill:#f2f2f2"/><path d="M373.33,189.58a4.27,4.27,0,0,1-1,2.94,3.6,3.6,0,0,1-5.14,0,5,5,0,0,1,0-5.89,3.57,3.57,0,0,1,5.14,0A4.28,4.28,0,0,1,373.33,189.58Zm-1.33,0a3.48,3.48,0,0,0-.58-2.21,2.18,2.18,0,0,0-3.24,0,3.54,3.54,0,0,0-.58,2.21,3.44,3.44,0,0,0,.59,2.17,1.91,1.91,0,0,0,1.61.75,2,2,0,0,0,1.62-.74A3.52,3.52,0,0,0,372,189.58Z" transform="translate(-20 -156)" style="fill:#f2f2f2"/><path d="M381.7,193.39h-1.29V189a7.47,7.47,0,0,0-.06-1,1.85,1.85,0,0,0-.22-.73,1,1,0,0,0-.5-.42,2,2,0,0,0-.83-.14,2.56,2.56,0,0,0-1.1.26,5.44,5.44,0,0,0-1.1.66v5.7h-1.29v-7.63h1.29v.84a5.56,5.56,0,0,1,1.24-.78,3.4,3.4,0,0,1,1.32-.28,2.36,2.36,0,0,1,1.89.75,3.19,3.19,0,0,1,.65,2.15Z" transform="translate(-20 -156)" style="fill:#f2f2f2"/><path d="M390.37,192.52a4,4,0,0,1-.88,2.85,3.63,3.63,0,0,1-2.72.91,9.11,9.11,0,0,1-1.18-.08,10.46,10.46,0,0,1-1.14-.24v-1.32h.07c.21.08.54.19,1,.31a5.43,5.43,0,0,0,1.37.18A3.1,3.1,0,0,0,388,195a1.48,1.48,0,0,0,.67-.44,1.52,1.52,0,0,0,.34-.64,3.12,3.12,0,0,0,.1-.84v-.7a5.18,5.18,0,0,1-1.11.7,3.45,3.45,0,0,1-1.35.23,2.66,2.66,0,0,1-2.17-1,4.35,4.35,0,0,1-.8-2.79,4.85,4.85,0,0,1,.27-1.7,4,4,0,0,1,.76-1.23,3.27,3.27,0,0,1,2.35-1,3.9,3.9,0,0,1,1.11.14,5.18,5.18,0,0,1,.94.4l.08-.32h1.21Zm-1.29-1.23v-4.16a4.32,4.32,0,0,0-.95-.33,3.83,3.83,0,0,0-.88-.1,2.1,2.1,0,0,0-1.67.71,3.11,3.11,0,0,0-.61,2.06,3.38,3.38,0,0,0,.46,1.95,1.65,1.65,0,0,0,1.49.67,3.24,3.24,0,0,0,1.13-.22A3.74,3.74,0,0,0,389.08,191.29Z" transform="translate(-20 -156)" style="fill:#f2f2f2"/><path d="M282.46,213.32a6.13,6.13,0,0,1-.79.16,5.63,5.63,0,0,1-.77.06,2.33,2.33,0,0,1-1.77-.63,2.8,2.8,0,0,1-.61-2v-4.06h-.87v-1.08h.87v-2.2h1.28v2.2h2.66v1.08H279.8v3.48c0,.4,0,.71,0,.94a1.59,1.59,0,0,0,.19.63,1,1,0,0,0,.42.4,2,2,0,0,0,.8.12,2.48,2.48,0,0,0,.65-.09,4.82,4.82,0,0,0,.5-.15h.07Z" transform="translate(-20 -156)" style="fill:#f2f2f2"/><path d="M290.39,213.39h-1.28V209a6,6,0,0,0-.07-1,1.85,1.85,0,0,0-.22-.73,1,1,0,0,0-.49-.42,2,2,0,0,0-.84-.14,2.59,2.59,0,0,0-1.1.26,5.44,5.44,0,0,0-1.1.66v5.7H284V202.75h1.28v3.85a5.4,5.4,0,0,1,1.25-.78,3.33,3.33,0,0,1,1.32-.28,2.35,2.35,0,0,1,1.88.75,3.14,3.14,0,0,1,.65,2.15Z" transform="translate(-20 -156)" style="fill:#f2f2f2"/><path d="M299.26,209.71h-5.63a3.21,3.21,0,0,0,.21,1.22,2.35,2.35,0,0,0,.59.86,2.19,2.19,0,0,0,.84.49,3.35,3.35,0,0,0,1.08.17,4.43,4.43,0,0,0,1.57-.31,4,4,0,0,0,1.12-.61h.07v1.4a11,11,0,0,1-1.33.45,5.07,5.07,0,0,1-1.42.19,4.08,4.08,0,0,1-3-1,3.88,3.88,0,0,1-1.06-2.92,4.23,4.23,0,0,1,1-3,3.51,3.51,0,0,1,2.69-1.1,3.06,3.06,0,0,1,2.38.91,3.61,3.61,0,0,1,.84,2.56Zm-1.25-1a2.32,2.32,0,0,0-.51-1.56,2,2,0,0,0-1.53-.56,2.23,2.23,0,0,0-1.64.61,2.4,2.4,0,0,0-.7,1.51Z" transform="translate(-20 -156)" style="fill:#f2f2f2"/><path d="M312.32,213.39H311v-.8a4.77,4.77,0,0,1-1.16.75,3.32,3.32,0,0,1-1.3.26,2.57,2.57,0,0,1-2.17-1,4.67,4.67,0,0,1-.81-2.92,4.91,4.91,0,0,1,.28-1.73,3.91,3.91,0,0,1,.75-1.29,3.08,3.08,0,0,1,1.08-.79,3,3,0,0,1,1.28-.28,4.29,4.29,0,0,1,1.07.13,5.12,5.12,0,0,1,1,.39v-3.31h1.28ZM311,211.51v-4.38a4.69,4.69,0,0,0-.93-.32,4.22,4.22,0,0,0-.9-.09,2,2,0,0,0-1.68.75,3.33,3.33,0,0,0-.6,2.13,3.78,3.78,0,0,0,.46,2.07,1.66,1.66,0,0,0,1.49.71,2.78,2.78,0,0,0,1.11-.24A4.72,4.72,0,0,0,311,211.51Z" transform="translate(-20 -156)" style="fill:#f2f2f2"/><path d="M321.24,209.71h-5.62a3.21,3.21,0,0,0,.21,1.22,2.22,2.22,0,0,0,.58.86,2.35,2.35,0,0,0,.84.49,3.4,3.4,0,0,0,1.08.17,4.43,4.43,0,0,0,1.57-.31,3.81,3.81,0,0,0,1.12-.61h.07v1.4a10.26,10.26,0,0,1-1.32.45,5.2,5.2,0,0,1-1.43.19,4.07,4.07,0,0,1-3-1,3.88,3.88,0,0,1-1.07-2.92,4.23,4.23,0,0,1,1-3,3.51,3.51,0,0,1,2.69-1.1,3.08,3.08,0,0,1,2.39.91,3.65,3.65,0,0,1,.83,2.56Zm-1.25-1a2.22,2.22,0,0,0-.51-1.56,1.94,1.94,0,0,0-1.52-.56,2.27,2.27,0,0,0-1.65.61,2.34,2.34,0,0,0-.69,1.51Z" transform="translate(-20 -156)" style="fill:#f2f2f2"/><path d="M334.33,213.39h-1.28V209c0-.32,0-.64-.05-.95a2.16,2.16,0,0,0-.18-.73,1.12,1.12,0,0,0-.45-.44,1.93,1.93,0,0,0-.85-.15,2.4,2.4,0,0,0-1.08.27,7.14,7.14,0,0,0-1.08.68c0,.11,0,.23,0,.37s0,.28,0,.41v4.89h-1.28V209c0-.33,0-.65,0-1a2.33,2.33,0,0,0-.19-.72,1.08,1.08,0,0,0-.45-.45,2.11,2.11,0,0,0-.85-.14,2.3,2.3,0,0,0-1.06.26,6.07,6.07,0,0,0-1,.66v5.7h-1.29v-7.63h1.29v.84a5.83,5.83,0,0,1,1.2-.78,3,3,0,0,1,1.27-.28,2.49,2.49,0,0,1,1.32.33,1.93,1.93,0,0,1,.81.91,6.52,6.52,0,0,1,1.43-.95,3.3,3.3,0,0,1,1.37-.29,2.22,2.22,0,0,1,1.86.77,3.4,3.4,0,0,1,.59,2.13Z" transform="translate(-20 -156)" style="fill:#f2f2f2"/><path d="M342.74,213.39h-1.28v-.81l-.46.32a3,3,0,0,1-.56.33,3.56,3.56,0,0,1-.74.27,4,4,0,0,1-1,.1,2.46,2.46,0,0,1-1.75-.68,2.31,2.31,0,0,1-.72-1.74,2.42,2.42,0,0,1,.38-1.41,2.37,2.37,0,0,1,1.06-.84,5.43,5.43,0,0,1,1.68-.42c.65-.07,1.35-.13,2.09-.16v-.2a1.61,1.61,0,0,0-.15-.73,1.12,1.12,0,0,0-.44-.45,2,2,0,0,0-.66-.21,5.13,5.13,0,0,0-.8,0,5.28,5.28,0,0,0-1.12.13,8.56,8.56,0,0,0-1.29.39h-.07v-1.31c.25-.07.61-.14,1.09-.23a8.36,8.36,0,0,1,1.4-.12,6.3,6.3,0,0,1,1.4.14,2.65,2.65,0,0,1,1,.45,2,2,0,0,1,.66.81,3,3,0,0,1,.22,1.24Zm-1.28-1.88v-2.12c-.39,0-.85.05-1.38.1a6.39,6.39,0,0,0-1.26.2,2,2,0,0,0-.9.49,1.19,1.19,0,0,0-.34.91,1.21,1.21,0,0,0,.4,1,1.84,1.84,0,0,0,1.21.33,2.77,2.77,0,0,0,1.23-.27A5,5,0,0,0,341.46,211.51Z" transform="translate(-20 -156)" style="fill:#f2f2f2"/><path d="M351.6,213.39h-1.28V209a7.4,7.4,0,0,0-.07-1,1.85,1.85,0,0,0-.22-.73,1,1,0,0,0-.49-.42,2,2,0,0,0-.84-.14,2.56,2.56,0,0,0-1.1.26,5.44,5.44,0,0,0-1.1.66v5.7h-1.28v-7.63h1.28v.84a5.4,5.4,0,0,1,1.25-.78,3.32,3.32,0,0,1,1.31-.28,2.36,2.36,0,0,1,1.89.75,3.19,3.19,0,0,1,.65,2.15Z" transform="translate(-20 -156)" style="fill:#f2f2f2"/><path d="M360.27,213.39H359v-.8a4.54,4.54,0,0,1-1.15.75,3.33,3.33,0,0,1-1.31.26,2.6,2.6,0,0,1-2.17-1,4.74,4.74,0,0,1-.8-2.92,4.91,4.91,0,0,1,.28-1.73,4.07,4.07,0,0,1,.74-1.29,3.11,3.11,0,0,1,1.09-.79,3,3,0,0,1,1.28-.28,4.29,4.29,0,0,1,1.07.13,5,5,0,0,1,1,.39v-3.31h1.29ZM359,211.51v-4.38a4.29,4.29,0,0,0-.93-.32,4.13,4.13,0,0,0-.89-.09,2,2,0,0,0-1.68.75,3.33,3.33,0,0,0-.61,2.13,3.77,3.77,0,0,0,.47,2.07,1.66,1.66,0,0,0,1.49.71,2.81,2.81,0,0,0,1.11-.24A4.44,4.44,0,0,0,359,211.51Z" transform="translate(-20 -156)" style="fill:#f2f2f2"/><path d="M373.37,212.91a7.66,7.66,0,0,1-1.22.48,4.16,4.16,0,0,1-1.23.17,4.61,4.61,0,0,1-1.52-.24,3.07,3.07,0,0,1-1.18-.74,3.23,3.23,0,0,1-.77-1.24,5,5,0,0,1-.28-1.76,4.11,4.11,0,0,1,1-2.94,3.61,3.61,0,0,1,2.72-1.06,4.67,4.67,0,0,1,1.29.18,8.25,8.25,0,0,1,1.16.45v1.43h-.07a4.86,4.86,0,0,0-1.22-.7,3.16,3.16,0,0,0-1.21-.25,2.17,2.17,0,0,0-1.73.74,3.23,3.23,0,0,0-.63,2.15,3.28,3.28,0,0,0,.61,2.13,2.18,2.18,0,0,0,1.75.74,3.72,3.72,0,0,0,.79-.1,3.37,3.37,0,0,0,.72-.27l.53-.3.39-.28h.07Z" transform="translate(-20 -156)" style="fill:#f2f2f2"/><path d="M381.34,213.39h-1.28v-.85a5.71,5.71,0,0,1-1.25.79,3.1,3.1,0,0,1-1.31.27,2.4,2.4,0,0,1-1.87-.73,3.09,3.09,0,0,1-.67-2.16v-5h1.28v4.34a7.15,7.15,0,0,0,.06,1,1.92,1.92,0,0,0,.23.71,1,1,0,0,0,.48.43,2.13,2.13,0,0,0,.86.14,2.82,2.82,0,0,0,1.09-.26,4.94,4.94,0,0,0,1.1-.66v-5.7h1.28Z" transform="translate(-20 -156)" style="fill:#f2f2f2"/><path d="M388.64,207.16h-.07a3.89,3.89,0,0,0-.56-.1,5.85,5.85,0,0,0-.64,0,2.75,2.75,0,0,0-1.15.26,5.58,5.58,0,0,0-1.06.68v5.42h-1.29v-7.63h1.29v1.12a6.24,6.24,0,0,1,1.35-.87,3,3,0,0,1,1.19-.25h.49l.45.07Z" transform="translate(-20 -156)" style="fill:#f2f2f2"/><path d="M396.45,205.76l-3.09,7.63h-1.29L389,205.76h1.39l2.37,6.07,2.35-6.07Z" transform="translate(-20 -156)" style="fill:#f2f2f2"/><path d="M404.4,209.71h-5.62a3.21,3.21,0,0,0,.21,1.22,2.22,2.22,0,0,0,.58.86,2.35,2.35,0,0,0,.84.49,3.4,3.4,0,0,0,1.08.17,4.43,4.43,0,0,0,1.57-.31,4,4,0,0,0,1.12-.61h.07v1.4a10.26,10.26,0,0,1-1.32.45,5.2,5.2,0,0,1-1.43.19,4.07,4.07,0,0,1-3-1,3.88,3.88,0,0,1-1.07-2.92,4.23,4.23,0,0,1,1-3,3.51,3.51,0,0,1,2.69-1.1,3,3,0,0,1,2.38.91,3.61,3.61,0,0,1,.84,2.56Zm-1.25-1a2.22,2.22,0,0,0-.51-1.56,2,2,0,0,0-1.53-.56,2.26,2.26,0,0,0-1.64.61,2.34,2.34,0,0,0-.69,1.51Z" transform="translate(-20 -156)" style="fill:#f2f2f2"/><rect x="480" width="161" height="74" style="fill:#aec0ce"/><path d="M524.78,182.31a5.16,5.16,0,0,1-.61,2.52,4.54,4.54,0,0,1-1.61,1.75,4.94,4.94,0,0,1-1.55.62,10.62,10.62,0,0,1-2.26.19h-2.57V177.21h2.54a10.58,10.58,0,0,1,2.37.22,5.09,5.09,0,0,1,1.49.59,4.57,4.57,0,0,1,1.62,1.73A5.4,5.4,0,0,1,524.78,182.31Zm-1.42,0a4.47,4.47,0,0,0-.41-2,3.13,3.13,0,0,0-1.25-1.3,4.48,4.48,0,0,0-1.28-.47,8.35,8.35,0,0,0-1.62-.14h-1.27v7.86h1.27a9.45,9.45,0,0,0,1.71-.14,4,4,0,0,0,1.34-.54,3,3,0,0,0,1.13-1.28A4.45,4.45,0,0,0,523.36,182.29Z" transform="translate(-20 -156)" style="fill:#f2f2f2"/><path d="M533.25,183.71h-5.62a3.21,3.21,0,0,0,.21,1.22,2.24,2.24,0,0,0,1.43,1.35,3.29,3.29,0,0,0,1.07.17,4.43,4.43,0,0,0,1.57-.31,4,4,0,0,0,1.13-.61h.06v1.4a10.26,10.26,0,0,1-1.32.45,5.12,5.12,0,0,1-1.42.19,4.08,4.08,0,0,1-3-1,3.88,3.88,0,0,1-1.07-2.92,4.23,4.23,0,0,1,1-3,3.53,3.53,0,0,1,2.7-1.1,3.08,3.08,0,0,1,2.38.91,3.65,3.65,0,0,1,.83,2.56Zm-1.25-1a2.22,2.22,0,0,0-.51-1.56,1.94,1.94,0,0,0-1.52-.56,2.27,2.27,0,0,0-1.65.61,2.34,2.34,0,0,0-.69,1.51Z" transform="translate(-20 -156)" style="fill:#f2f2f2"/><path d="M546.35,187.39h-1.29V183c0-.32,0-.64,0-.95a2.14,2.14,0,0,0-.19-.73,1.12,1.12,0,0,0-.45-.44,1.93,1.93,0,0,0-.85-.15,2.4,2.4,0,0,0-1.08.27,7.14,7.14,0,0,0-1.08.68c0,.11,0,.23,0,.37s0,.28,0,.41v4.89h-1.29V183c0-.33,0-.65,0-1a2.08,2.08,0,0,0-.19-.72,1.08,1.08,0,0,0-.45-.45,2.11,2.11,0,0,0-.85-.14,2.33,2.33,0,0,0-1.06.26,6.07,6.07,0,0,0-1,.66v5.7H535.2v-7.63h1.29v.84a5.83,5.83,0,0,1,1.2-.78,3.06,3.06,0,0,1,1.27-.28,2.55,2.55,0,0,1,1.33.33,2,2,0,0,1,.81.91,6.49,6.49,0,0,1,1.42-.95,3.33,3.33,0,0,1,1.37-.29,2.22,2.22,0,0,1,1.86.77,3.33,3.33,0,0,1,.6,2.13Z" transform="translate(-20 -156)" style="fill:#f2f2f2"/><path d="M554.75,187.39h-1.28v-.81l-.46.32a3,3,0,0,1-.56.33,3.36,3.36,0,0,1-.74.27,4,4,0,0,1-1,.1,2.48,2.48,0,0,1-1.75-.68,2.34,2.34,0,0,1-.71-1.74,2.22,2.22,0,0,1,1.43-2.25,5.51,5.51,0,0,1,1.68-.42c.65-.07,1.35-.13,2.09-.16v-.2a1.61,1.61,0,0,0-.15-.73,1.12,1.12,0,0,0-.44-.45,2,2,0,0,0-.66-.21,5.13,5.13,0,0,0-.8,0,5.28,5.28,0,0,0-1.12.13,8.56,8.56,0,0,0-1.29.39h-.07v-1.31c.25-.07.62-.14,1.09-.23a8.36,8.36,0,0,1,1.4-.12,6.46,6.46,0,0,1,1.41.14,2.67,2.67,0,0,1,1,.45,2,2,0,0,1,.66.81,3,3,0,0,1,.22,1.24Zm-1.28-1.88v-2.12c-.39,0-.85.05-1.38.1a6.39,6.39,0,0,0-1.26.2,2,2,0,0,0-.9.49,1.23,1.23,0,0,0-.34.91,1.21,1.21,0,0,0,.4,1,1.86,1.86,0,0,0,1.21.33,2.85,2.85,0,0,0,1.24-.27A4.9,4.9,0,0,0,553.47,185.51Z" transform="translate(-20 -156)" style="fill:#f2f2f2"/><path d="M563.61,187.39h-1.28V183a7.47,7.47,0,0,0-.06-1,2,2,0,0,0-.23-.73,1,1,0,0,0-.49-.42,2,2,0,0,0-.84-.14,2.59,2.59,0,0,0-1.1.26,5.44,5.44,0,0,0-1.1.66v5.7h-1.28v-7.63h1.28v.84a5.4,5.4,0,0,1,1.25-.78,3.36,3.36,0,0,1,1.32-.28,2.35,2.35,0,0,1,1.88.75,3.14,3.14,0,0,1,.65,2.15Z" transform="translate(-20 -156)" style="fill:#f2f2f2"/><path d="M572.28,187.39H571v-.8a4.77,4.77,0,0,1-1.16.75,3.32,3.32,0,0,1-1.3.26,2.6,2.6,0,0,1-2.18-1,4.74,4.74,0,0,1-.8-2.92,4.91,4.91,0,0,1,.28-1.73,3.91,3.91,0,0,1,.75-1.29,3.08,3.08,0,0,1,1.08-.79,3,3,0,0,1,1.28-.28,4.29,4.29,0,0,1,1.07.13,5.39,5.39,0,0,1,1,.39v-3.31h1.28ZM571,185.51v-4.38a4.69,4.69,0,0,0-.93-.32,4.29,4.29,0,0,0-.9-.09,2,2,0,0,0-1.68.75,3.33,3.33,0,0,0-.6,2.13,3.78,3.78,0,0,0,.46,2.07,1.66,1.66,0,0,0,1.49.71,2.78,2.78,0,0,0,1.11-.24A4.72,4.72,0,0,0,571,185.51Z" transform="translate(-20 -156)" style="fill:#f2f2f2"/><path d="M586.12,183.71H580.5a3.21,3.21,0,0,0,.21,1.22,2.22,2.22,0,0,0,.58.86,2.35,2.35,0,0,0,.84.49,3.4,3.4,0,0,0,1.08.17,4.43,4.43,0,0,0,1.57-.31,3.81,3.81,0,0,0,1.12-.61H586v1.4a10.26,10.26,0,0,1-1.32.45,5.15,5.15,0,0,1-1.43.19,4.07,4.07,0,0,1-3-1,3.88,3.88,0,0,1-1.07-2.92,4.23,4.23,0,0,1,1-3,3.51,3.51,0,0,1,2.69-1.1,3.08,3.08,0,0,1,2.39.91,3.65,3.65,0,0,1,.83,2.56Zm-1.25-1a2.22,2.22,0,0,0-.51-1.56,1.94,1.94,0,0,0-1.52-.56,2.27,2.27,0,0,0-1.65.61,2.34,2.34,0,0,0-.69,1.51Z" transform="translate(-20 -156)" style="fill:#f2f2f2"/><path d="M589.37,187.39h-1.28V176.75h1.28Z" transform="translate(-20 -156)" style="fill:#f2f2f2"/><path d="M597.85,187.39h-1.28v-.81l-.46.32a3.08,3.08,0,0,1-.57.33,3.36,3.36,0,0,1-.74.27,4,4,0,0,1-1,.1,2.46,2.46,0,0,1-1.75-.68,2.31,2.31,0,0,1-.72-1.74,2.22,2.22,0,0,1,1.43-2.25,5.58,5.58,0,0,1,1.68-.42c.65-.07,1.35-.13,2.1-.16v-.2a1.61,1.61,0,0,0-.15-.73A1.15,1.15,0,0,0,596,181a2,2,0,0,0-.65-.21,5.21,5.21,0,0,0-.8,0,5.3,5.3,0,0,0-1.13.13,8.81,8.81,0,0,0-1.28.39H592v-1.31c.25-.07.61-.14,1.08-.23a8.48,8.48,0,0,1,1.41-.12,6.43,6.43,0,0,1,1.4.14,2.61,2.61,0,0,1,1,.45,2,2,0,0,1,.66.81,3,3,0,0,1,.23,1.24Zm-1.28-1.88v-2.12c-.39,0-.86.05-1.39.1a6.39,6.39,0,0,0-1.26.2,1.93,1.93,0,0,0-.89.49,1.19,1.19,0,0,0-.34.91,1.24,1.24,0,0,0,.39,1,1.88,1.88,0,0,0,1.21.33,2.82,2.82,0,0,0,1.24-.27A5.24,5.24,0,0,0,596.57,185.51Z" transform="translate(-20 -156)" style="fill:#f2f2f2"/><path d="M605.78,185.19a2.08,2.08,0,0,1-.87,1.72,3.78,3.78,0,0,1-2.36.67,5.43,5.43,0,0,1-1.55-.21,6.39,6.39,0,0,1-1.19-.44v-1.44h.07a4.88,4.88,0,0,0,1.35.73,4.19,4.19,0,0,0,1.43.27,2.75,2.75,0,0,0,1.33-.27.94.94,0,0,0,.47-.87.88.88,0,0,0-.25-.68,2.48,2.48,0,0,0-1-.4l-.72-.14a7.35,7.35,0,0,1-.8-.18,2.66,2.66,0,0,1-1.43-.78,1.94,1.94,0,0,1-.42-1.27,2.1,2.1,0,0,1,.2-.89,2.27,2.27,0,0,1,.59-.74,2.63,2.63,0,0,1,1-.51,4.27,4.27,0,0,1,1.33-.19,6.06,6.06,0,0,1,1.38.17,5.1,5.1,0,0,1,1.17.41v1.37h-.07a4.5,4.5,0,0,0-1.2-.61,4,4,0,0,0-1.38-.25,2.41,2.41,0,0,0-1.19.27.87.87,0,0,0-.48.8.84.84,0,0,0,.29.71,2.27,2.27,0,0,0,.93.39l.8.17.73.15a2.66,2.66,0,0,1,1.38.7A1.83,1.83,0,0,1,605.78,185.19Z" transform="translate(-20 -156)" style="fill:#f2f2f2"/><path d="M611.58,187.32a6.48,6.48,0,0,1-1.55.22,2.37,2.37,0,0,1-1.78-.63,2.84,2.84,0,0,1-.61-2v-4.06h-.86v-1.08h.86v-2.2h1.29v2.2h2.65v1.08h-2.65v3.48c0,.4,0,.71,0,.94a1.44,1.44,0,0,0,.19.63.93.93,0,0,0,.41.4,2,2,0,0,0,.8.12,2.61,2.61,0,0,0,.66-.09,4.46,4.46,0,0,0,.49-.15h.07Z" transform="translate(-20 -156)" style="fill:#f2f2f2"/><path d="M614.51,178.48h-1.45v-1.34h1.45Zm-.08,8.91h-1.28v-7.63h1.28Z" transform="translate(-20 -156)" style="fill:#f2f2f2"/><path d="M622.62,186.91a7.31,7.31,0,0,1-1.22.48,4.07,4.07,0,0,1-1.23.17,4.55,4.55,0,0,1-1.51-.24,3.11,3.11,0,0,1-1.19-.74,3.23,3.23,0,0,1-.77-1.24,5.21,5.21,0,0,1-.27-1.76,4.07,4.07,0,0,1,1-2.94,3.59,3.59,0,0,1,2.71-1.06,4.67,4.67,0,0,1,1.29.18,8.25,8.25,0,0,1,1.16.45v1.43h-.07a4.81,4.81,0,0,0-1.21-.7,3.21,3.21,0,0,0-1.22-.25,2.17,2.17,0,0,0-1.73.74,3.23,3.23,0,0,0-.63,2.15,3.28,3.28,0,0,0,.62,2.13,2.15,2.15,0,0,0,1.74.74,3.64,3.64,0,0,0,.79-.1,3.69,3.69,0,0,0,.73-.27l.52-.3a3.39,3.39,0,0,0,.39-.28h.07Z" transform="translate(-20 -156)" style="fill:#f2f2f2"/><path d="M625.65,178.48H624.2v-1.34h1.45Zm-.08,8.91h-1.29v-7.63h1.29Z" transform="translate(-20 -156)" style="fill:#f2f2f2"/><path d="M632.07,187.32a6.3,6.3,0,0,1-1.55.22,2.33,2.33,0,0,1-1.77-.63,2.8,2.8,0,0,1-.61-2v-4.06h-.87v-1.08h.87v-2.2h1.28v2.2h2.65v1.08h-2.65v3.48c0,.4,0,.71,0,.94a1.59,1.59,0,0,0,.19.63,1,1,0,0,0,.41.4,2.09,2.09,0,0,0,.81.12,2.48,2.48,0,0,0,.65-.09,4.82,4.82,0,0,0,.5-.15h.06Z" transform="translate(-20 -156)" style="fill:#f2f2f2"/><path d="M640.16,179.76l-4.45,10.45h-1.38l1.42-3.19-3-7.26h1.4l2.34,5.66,2.36-5.66Z" transform="translate(-20 -156)" style="fill:#f2f2f2"/><path d="M543.46,207.39h-1.28v-.81l-.46.32a3,3,0,0,1-.56.33,3.56,3.56,0,0,1-.74.27,4.1,4.1,0,0,1-1,.1,2.46,2.46,0,0,1-1.75-.68,2.31,2.31,0,0,1-.72-1.74,2.42,2.42,0,0,1,.38-1.41,2.37,2.37,0,0,1,1.06-.84,5.44,5.44,0,0,1,1.67-.42c.66-.07,1.35-.13,2.1-.16v-.2a1.61,1.61,0,0,0-.15-.73,1.12,1.12,0,0,0-.44-.45,2,2,0,0,0-.66-.21,5.13,5.13,0,0,0-.8,0,5.37,5.37,0,0,0-1.13.13,8.81,8.81,0,0,0-1.28.39h-.07v-1.31c.25-.07.61-.14,1.09-.23a8.36,8.36,0,0,1,1.4-.12,6.37,6.37,0,0,1,1.4.14,2.65,2.65,0,0,1,1,.45,2,2,0,0,1,.65.81,3,3,0,0,1,.23,1.24Zm-1.28-1.88v-2.12c-.39,0-.85.05-1.38.1a6.39,6.39,0,0,0-1.26.2,2,2,0,0,0-.9.49,1.19,1.19,0,0,0-.34.91,1.21,1.21,0,0,0,.4,1,1.84,1.84,0,0,0,1.21.33,2.77,2.77,0,0,0,1.23-.27A5,5,0,0,0,542.18,205.51Z" transform="translate(-20 -156)" style="fill:#f2f2f2"/><path d="M552.32,207.39H551V203a7.4,7.4,0,0,0-.07-1,1.85,1.85,0,0,0-.22-.73,1.06,1.06,0,0,0-.49-.42,2,2,0,0,0-.84-.14,2.56,2.56,0,0,0-1.1.26,5.44,5.44,0,0,0-1.1.66v5.7h-1.28v-7.63h1.28v.84a5.56,5.56,0,0,1,1.24-.78,3.4,3.4,0,0,1,1.32-.28,2.36,2.36,0,0,1,1.89.75,3.19,3.19,0,0,1,.65,2.15Z" transform="translate(-20 -156)" style="fill:#f2f2f2"/><path d="M561,207.39H559.7v-.8a4.72,4.72,0,0,1-1.15.75,3.33,3.33,0,0,1-1.31.26,2.6,2.6,0,0,1-2.17-1,4.74,4.74,0,0,1-.8-2.92,5.15,5.15,0,0,1,.27-1.73,4.29,4.29,0,0,1,.75-1.29,3.25,3.25,0,0,1,2.37-1.07,4.15,4.15,0,0,1,1.06.13,4.87,4.87,0,0,1,1,.39v-3.31H561Zm-1.29-1.88v-4.38a4.29,4.29,0,0,0-.93-.32,4.13,4.13,0,0,0-.89-.09,2,2,0,0,0-1.68.75,3.28,3.28,0,0,0-.61,2.13,3.77,3.77,0,0,0,.47,2.07,1.66,1.66,0,0,0,1.49.71,2.85,2.85,0,0,0,1.11-.24A4.44,4.44,0,0,0,559.7,205.51Z" transform="translate(-20 -156)" style="fill:#f2f2f2"/><path d="M573.2,201.16h-.07a3.76,3.76,0,0,0-.55-.1,5.85,5.85,0,0,0-.64,0,2.72,2.72,0,0,0-1.15.26,5.65,5.65,0,0,0-1.07.68v5.42h-1.28v-7.63h1.28v1.12a6.24,6.24,0,0,1,1.35-.87,3,3,0,0,1,1.2-.25h.48l.45.07Z" transform="translate(-20 -156)" style="fill:#f2f2f2"/><path d="M580.8,203.71h-5.62a3.21,3.21,0,0,0,.21,1.22,2.24,2.24,0,0,0,1.43,1.35,3.29,3.29,0,0,0,1.07.17,4.39,4.39,0,0,0,1.57-.31,4,4,0,0,0,1.13-.61h.06v1.4a10.26,10.26,0,0,1-1.32.45,5.12,5.12,0,0,1-1.42.19,4.08,4.08,0,0,1-3-1,3.88,3.88,0,0,1-1.07-2.92,4.19,4.19,0,0,1,1-3,3.5,3.5,0,0,1,2.69-1.1,3.06,3.06,0,0,1,2.38.91,3.6,3.6,0,0,1,.83,2.56Zm-1.25-1a2.22,2.22,0,0,0-.51-1.56,1.94,1.94,0,0,0-1.52-.56,2.27,2.27,0,0,0-1.65.61,2.34,2.34,0,0,0-.69,1.51Z" transform="translate(-20 -156)" style="fill:#f2f2f2"/><path d="M589.36,199.76l-3.09,7.63H585l-3.06-7.63h1.39l2.37,6.07,2.34-6.07Z" transform="translate(-20 -156)" style="fill:#f2f2f2"/><path d="M597.31,203.71h-5.63a3.21,3.21,0,0,0,.21,1.22,2.24,2.24,0,0,0,1.43,1.35,3.29,3.29,0,0,0,1.07.17,4.39,4.39,0,0,0,1.57-.31,3.89,3.89,0,0,0,1.13-.61h.07v1.4a11,11,0,0,1-1.33.45,5.07,5.07,0,0,1-1.42.19,4.08,4.08,0,0,1-3-1,3.88,3.88,0,0,1-1.07-2.92,4.23,4.23,0,0,1,1-3,3.51,3.51,0,0,1,2.69-1.1,3.06,3.06,0,0,1,2.38.91,3.61,3.61,0,0,1,.84,2.56Zm-1.25-1a2.32,2.32,0,0,0-.51-1.56,2,2,0,0,0-1.53-.56,2.27,2.27,0,0,0-1.65.61,2.44,2.44,0,0,0-.69,1.51Z" transform="translate(-20 -156)" style="fill:#f2f2f2"/><path d="M605.64,207.39h-1.28V203a7.4,7.4,0,0,0-.07-1,1.85,1.85,0,0,0-.22-.73,1.06,1.06,0,0,0-.49-.42,2,2,0,0,0-.84-.14,2.56,2.56,0,0,0-1.1.26,5.44,5.44,0,0,0-1.1.66v5.7h-1.28v-7.63h1.28v.84a5.4,5.4,0,0,1,1.25-.78,3.32,3.32,0,0,1,1.31-.28,2.36,2.36,0,0,1,1.89.75,3.19,3.19,0,0,1,.65,2.15Z" transform="translate(-20 -156)" style="fill:#f2f2f2"/><path d="M614.45,207.39h-1.29v-.85a5.91,5.91,0,0,1-1.24.79,3.18,3.18,0,0,1-1.32.27,2.4,2.4,0,0,1-1.87-.73,3.09,3.09,0,0,1-.67-2.16v-5h1.29v4.34a7.31,7.31,0,0,0,0,1,1.92,1.92,0,0,0,.23.71,1.16,1.16,0,0,0,.48.43,2.11,2.11,0,0,0,.85.14,2.83,2.83,0,0,0,1.1-.26,4.94,4.94,0,0,0,1.1-.66v-5.7h1.29Z" transform="translate(-20 -156)" style="fill:#f2f2f2"/><path d="M623.37,203.71h-5.63a3.21,3.21,0,0,0,.21,1.22,2.24,2.24,0,0,0,1.43,1.35,3.29,3.29,0,0,0,1.07.17,4.39,4.39,0,0,0,1.57-.31,4,4,0,0,0,1.13-.61h.06v1.4a10.26,10.26,0,0,1-1.32.45,5.12,5.12,0,0,1-1.42.19,4.08,4.08,0,0,1-3-1,3.88,3.88,0,0,1-1.07-2.92,4.23,4.23,0,0,1,1-3,3.5,3.5,0,0,1,2.69-1.1,3.06,3.06,0,0,1,2.38.91,3.61,3.61,0,0,1,.84,2.56Zm-1.25-1a2.32,2.32,0,0,0-.51-1.56,2,2,0,0,0-1.53-.56,2.27,2.27,0,0,0-1.65.61,2.39,2.39,0,0,0-.69,1.51Z" transform="translate(-20 -156)" style="fill:#f2f2f2"/><rect x="716" width="161" height="74" style="fill:#aec0ce"/><path d="M759.31,184.49a2.74,2.74,0,0,1-.27,1.17,2.91,2.91,0,0,1-.78,1,4.12,4.12,0,0,1-1.28.68,5.58,5.58,0,0,1-1.75.25,8.59,8.59,0,0,1-2-.21,10.53,10.53,0,0,1-1.79-.61v-1.69h.1a5.52,5.52,0,0,0,1.78,1,6,6,0,0,0,1.9.35,3.5,3.5,0,0,0,2-.47,1.46,1.46,0,0,0,.7-1.26,1.34,1.34,0,0,0-.33-1,2.22,2.22,0,0,0-1-.5,8.39,8.39,0,0,0-1.11-.22c-.4-.06-.82-.14-1.27-.23a3.73,3.73,0,0,1-2-1,2.51,2.51,0,0,1-.65-1.81,2.48,2.48,0,0,1,1.08-2.09,4.38,4.38,0,0,1,2.74-.82,9.32,9.32,0,0,1,2,.2,9.47,9.47,0,0,1,1.58.51v1.6h-.09a4.79,4.79,0,0,0-1.53-.82,6.12,6.12,0,0,0-1.94-.32,3.07,3.07,0,0,0-1.75.45,1.36,1.36,0,0,0-.66,1.16,1.44,1.44,0,0,0,.33,1,2.28,2.28,0,0,0,1.16.55c.29.07.7.14,1.24.23s1,.19,1.37.28a3.7,3.7,0,0,1,1.71.91A2.42,2.42,0,0,1,759.31,184.49Z" transform="translate(-20 -156)" style="fill:#f2f2f2"/><path d="M767.71,187.39h-1.28v-.85a6,6,0,0,1-1.25.79,3.1,3.1,0,0,1-1.31.27,2.4,2.4,0,0,1-1.87-.73,3.09,3.09,0,0,1-.67-2.16v-5h1.28v4.34a7.15,7.15,0,0,0,.06,1,1.92,1.92,0,0,0,.23.71,1,1,0,0,0,.48.43,2.08,2.08,0,0,0,.85.14,2.74,2.74,0,0,0,1.09-.26,4.79,4.79,0,0,0,1.11-.66v-5.7h1.28Z" transform="translate(-20 -156)" style="fill:#f2f2f2"/><path d="M777,183.48a5.37,5.37,0,0,1-.26,1.7,3.63,3.63,0,0,1-.76,1.3,3.07,3.07,0,0,1-2.36,1.06,4,4,0,0,1-1.07-.13,4.22,4.22,0,0,1-1-.4v3.2h-1.29V179.76h1.29v.8a5,5,0,0,1,1.15-.73,3.32,3.32,0,0,1,1.36-.29,2.51,2.51,0,0,1,2.15,1.05A4.73,4.73,0,0,1,777,183.48Zm-1.32,0a3.64,3.64,0,0,0-.48-2.07,1.64,1.64,0,0,0-1.45-.68,2.81,2.81,0,0,0-1.11.24,5.09,5.09,0,0,0-1.07.63V186a4.76,4.76,0,0,0,.94.34,4,4,0,0,0,.89.09,2.07,2.07,0,0,0,1.67-.73A3.23,3.23,0,0,0,775.64,183.52Z" transform="translate(-20 -156)" style="fill:#f2f2f2"/><path d="M785.68,183.48a5.1,5.1,0,0,1-.26,1.7,3.76,3.76,0,0,1-.75,1.3,3.2,3.2,0,0,1-1.07.79,3.14,3.14,0,0,1-1.29.27,4,4,0,0,1-1.08-.13,4.22,4.22,0,0,1-1-.4v3.2H779V179.76h1.29v.8a5.23,5.23,0,0,1,1.15-.73,3.33,3.33,0,0,1,1.37-.29,2.52,2.52,0,0,1,2.15,1.05A4.8,4.8,0,0,1,785.68,183.48Zm-1.32,0a3.73,3.73,0,0,0-.47-2.07,1.66,1.66,0,0,0-1.45-.68,2.86,2.86,0,0,0-1.12.24,5.09,5.09,0,0,0-1.07.63V186a5,5,0,0,0,.94.34,4,4,0,0,0,.89.09,2.07,2.07,0,0,0,1.68-.73A3.29,3.29,0,0,0,784.36,183.52Z" transform="translate(-20 -156)" style="fill:#f2f2f2"/><path d="M789,187.39H787.7V176.75H789Z" transform="translate(-20 -156)" style="fill:#f2f2f2"/><path d="M798.13,179.76l-4.45,10.45H792.3l1.42-3.19-3-7.26h1.4l2.34,5.66,2.37-5.66Z" transform="translate(-20 -156)" style="fill:#f2f2f2"/><path d="M811.13,183.71H805.5a3.21,3.21,0,0,0,.21,1.22,2.46,2.46,0,0,0,.58.86,2.31,2.31,0,0,0,.85.49,3.31,3.31,0,0,0,1.08.17,4.43,4.43,0,0,0,1.57-.31,4,4,0,0,0,1.12-.61H811v1.4a11,11,0,0,1-1.33.45,5.07,5.07,0,0,1-1.42.19,4.08,4.08,0,0,1-3-1,3.88,3.88,0,0,1-1.06-2.92,4.23,4.23,0,0,1,1-3,3.51,3.51,0,0,1,2.69-1.1,3.06,3.06,0,0,1,2.38.91,3.61,3.61,0,0,1,.84,2.56Zm-1.25-1a2.32,2.32,0,0,0-.51-1.56,2,2,0,0,0-1.53-.56,2.23,2.23,0,0,0-1.64.61,2.4,2.4,0,0,0-.7,1.51Z" transform="translate(-20 -156)" style="fill:#f2f2f2"/><path d="M814.37,187.39h-1.28V176.75h1.28Z" transform="translate(-20 -156)" style="fill:#f2f2f2"/><path d="M822.85,187.39h-1.28v-.81l-.46.32a3,3,0,0,1-.56.33,3.56,3.56,0,0,1-.74.27,4,4,0,0,1-1,.1,2.46,2.46,0,0,1-1.75-.68,2.31,2.31,0,0,1-.72-1.74,2.24,2.24,0,0,1,1.44-2.25,5.44,5.44,0,0,1,1.67-.42c.66-.07,1.36-.13,2.1-.16v-.2a1.61,1.61,0,0,0-.15-.73A1.12,1.12,0,0,0,821,181a2,2,0,0,0-.66-.21,5.13,5.13,0,0,0-.8,0,5.44,5.44,0,0,0-1.13.13,8.81,8.81,0,0,0-1.28.39H817v-1.31c.25-.07.61-.14,1.09-.23a8.36,8.36,0,0,1,1.4-.12,6.3,6.3,0,0,1,1.4.14,2.65,2.65,0,0,1,1,.45,2,2,0,0,1,.66.81,3,3,0,0,1,.22,1.24Zm-1.28-1.88v-2.12c-.39,0-.85.05-1.38.1a6.39,6.39,0,0,0-1.26.2,2,2,0,0,0-.9.49,1.19,1.19,0,0,0-.34.91,1.21,1.21,0,0,0,.4,1,1.84,1.84,0,0,0,1.21.33,2.77,2.77,0,0,0,1.23-.27A5,5,0,0,0,821.57,185.51Z" transform="translate(-20 -156)" style="fill:#f2f2f2"/><path d="M830.78,185.19a2.1,2.1,0,0,1-.86,1.72,3.83,3.83,0,0,1-2.37.67,5.43,5.43,0,0,1-1.55-.21,6.67,6.67,0,0,1-1.19-.44v-1.44h.07a5.08,5.08,0,0,0,1.36.73,4.14,4.14,0,0,0,1.42.27,2.72,2.72,0,0,0,1.33-.27.93.93,0,0,0,.48-.87.88.88,0,0,0-.26-.68,2.41,2.41,0,0,0-1-.4l-.71-.14a7.55,7.55,0,0,1-.81-.18,2.63,2.63,0,0,1-1.42-.78,1.94,1.94,0,0,1-.42-1.27A2.09,2.09,0,0,1,825,181a2.27,2.27,0,0,1,.59-.74,2.67,2.67,0,0,1,1-.51,4.17,4.17,0,0,1,1.32-.19,5.92,5.92,0,0,1,1.38.17,5.1,5.1,0,0,1,1.17.41v1.37h-.07a4.43,4.43,0,0,0-1.19-.61,4,4,0,0,0-1.39-.25,2.39,2.39,0,0,0-1.18.27.94.94,0,0,0-.2,1.51,2.4,2.4,0,0,0,.93.39l.8.17.74.15a2.74,2.74,0,0,1,1.38.7A1.86,1.86,0,0,1,830.78,185.19Z" transform="translate(-20 -156)" style="fill:#f2f2f2"/><path d="M836.58,187.32a5.51,5.51,0,0,1-.79.16,5.38,5.38,0,0,1-.76.06,2.33,2.33,0,0,1-1.77-.63,2.8,2.8,0,0,1-.61-2v-4.06h-.87v-1.08h.87v-2.2h1.28v2.2h2.65v1.08h-2.65v3.48c0,.4,0,.71,0,.94a1.59,1.59,0,0,0,.19.63,1,1,0,0,0,.41.4,2.09,2.09,0,0,0,.81.12,2.48,2.48,0,0,0,.65-.09,4.82,4.82,0,0,0,.5-.15h.06Z" transform="translate(-20 -156)" style="fill:#f2f2f2"/><path d="M839.52,178.48h-1.45v-1.34h1.45Zm-.08,8.91h-1.29v-7.63h1.29Z" transform="translate(-20 -156)" style="fill:#f2f2f2"/><path d="M847.62,186.91a7,7,0,0,1-1.22.48,4,4,0,0,1-1.22.17,4.61,4.61,0,0,1-1.52-.24,3.07,3.07,0,0,1-1.18-.74,3.12,3.12,0,0,1-.77-1.24,5,5,0,0,1-.28-1.76,4.07,4.07,0,0,1,1-2.94,3.61,3.61,0,0,1,2.72-1.06,4.73,4.73,0,0,1,1.29.18,8.1,8.1,0,0,1,1.15.45v1.43h-.06a5,5,0,0,0-1.22-.7,3.17,3.17,0,0,0-1.22-.25,2.15,2.15,0,0,0-1.72.74,3.23,3.23,0,0,0-.64,2.15,3.28,3.28,0,0,0,.62,2.13,2.16,2.16,0,0,0,1.74.74,3.73,3.73,0,0,0,.8-.1,3.37,3.37,0,0,0,.72-.27l.53-.3.39-.28h.06Z" transform="translate(-20 -156)" style="fill:#f2f2f2"/><path d="M850.65,178.48H849.2v-1.34h1.45Zm-.08,8.91h-1.28v-7.63h1.28Z" transform="translate(-20 -156)" style="fill:#f2f2f2"/><path d="M857.08,187.32a5.8,5.8,0,0,1-.79.16,5.61,5.61,0,0,1-.76.06,2.37,2.37,0,0,1-1.78-.63,2.8,2.8,0,0,1-.61-2v-4.06h-.87v-1.08h.87v-2.2h1.29v2.2h2.65v1.08h-2.65v3.48c0,.4,0,.71,0,.94a1.6,1.6,0,0,0,.2.63.93.93,0,0,0,.41.4,2,2,0,0,0,.8.12,2.61,2.61,0,0,0,.66-.09,4.46,4.46,0,0,0,.49-.15h.07Z" transform="translate(-20 -156)" style="fill:#f2f2f2"/><path d="M860,178.48h-1.45v-1.34H860Zm-.08,8.91h-1.29v-7.63h1.29Z" transform="translate(-20 -156)" style="fill:#f2f2f2"/><path d="M868.86,183.71h-5.62a3.21,3.21,0,0,0,.21,1.22,2.33,2.33,0,0,0,.58.86,2.35,2.35,0,0,0,.84.49,3.4,3.4,0,0,0,1.08.17,4.43,4.43,0,0,0,1.57-.31,4,4,0,0,0,1.13-.61h.06v1.4a10.26,10.26,0,0,1-1.32.45,5.12,5.12,0,0,1-1.42.19,4.08,4.08,0,0,1-3-1,3.88,3.88,0,0,1-1.07-2.92,4.19,4.19,0,0,1,1-3,3.49,3.49,0,0,1,2.68-1.1,3.08,3.08,0,0,1,2.39.91,3.65,3.65,0,0,1,.83,2.56Zm-1.25-1a2.22,2.22,0,0,0-.51-1.56,1.94,1.94,0,0,0-1.52-.56,2.27,2.27,0,0,0-1.65.61,2.34,2.34,0,0,0-.69,1.51Z" transform="translate(-20 -156)" style="fill:#f2f2f2"/><path d="M876.27,185.19a2.08,2.08,0,0,1-.87,1.72,3.78,3.78,0,0,1-2.36.67,5.43,5.43,0,0,1-1.55-.21,6.39,6.39,0,0,1-1.19-.44v-1.44h.07a4.88,4.88,0,0,0,1.35.73,4.24,4.24,0,0,0,1.43.27,2.75,2.75,0,0,0,1.33-.27,1,1,0,0,0,.48-.87.88.88,0,0,0-.26-.68,2.48,2.48,0,0,0-1-.4l-.72-.14a7.35,7.35,0,0,1-.8-.18,2.7,2.7,0,0,1-1.43-.78,1.94,1.94,0,0,1-.42-1.27,2.1,2.1,0,0,1,.2-.89,2.27,2.27,0,0,1,.59-.74,2.63,2.63,0,0,1,1-.51,4.27,4.27,0,0,1,1.33-.19,6.06,6.06,0,0,1,1.38.17,5.1,5.1,0,0,1,1.17.41v1.37h-.07a4.5,4.5,0,0,0-1.2-.61,4,4,0,0,0-1.38-.25,2.43,2.43,0,0,0-1.19.27.87.87,0,0,0-.48.8.84.84,0,0,0,.29.71,2.27,2.27,0,0,0,.93.39l.8.17c.29.05.54.1.73.15a2.66,2.66,0,0,1,1.38.7A1.83,1.83,0,0,1,876.27,185.19Z" transform="translate(-20 -156)" style="fill:#f2f2f2"/><path d="M790.37,203.58a4.31,4.31,0,0,1-1,2.94,3.6,3.6,0,0,1-5.14,0,5,5,0,0,1,0-5.89,3.57,3.57,0,0,1,5.14,0A4.32,4.32,0,0,1,790.37,203.58Zm-1.32,0a3.54,3.54,0,0,0-.58-2.21,2.18,2.18,0,0,0-3.24,0,4.42,4.42,0,0,0,0,4.38,2.12,2.12,0,0,0,3.23,0A3.46,3.46,0,0,0,789.05,203.58Z" transform="translate(-20 -156)" style="fill:#f2f2f2"/><path d="M798.86,199.76l-3.09,7.63h-1.29l-3.07-7.63h1.4l2.36,6.07,2.35-6.07Z" transform="translate(-20 -156)" style="fill:#f2f2f2"/><path d="M806.81,203.71h-5.62a3.21,3.21,0,0,0,.21,1.22,2.24,2.24,0,0,0,1.43,1.35,3.29,3.29,0,0,0,1.07.17,4.39,4.39,0,0,0,1.57-.31,4,4,0,0,0,1.13-.61h.06v1.4a10.26,10.26,0,0,1-1.32.45,5.12,5.12,0,0,1-1.42.19,4.08,4.08,0,0,1-3-1,3.88,3.88,0,0,1-1.07-2.92,4.23,4.23,0,0,1,1-3,3.53,3.53,0,0,1,2.69-1.1,3.08,3.08,0,0,1,2.39.91,3.6,3.6,0,0,1,.83,2.56Zm-1.25-1a2.22,2.22,0,0,0-.51-1.56,1.94,1.94,0,0,0-1.52-.56,2.27,2.27,0,0,0-1.65.61,2.34,2.34,0,0,0-.69,1.51Z" transform="translate(-20 -156)" style="fill:#f2f2f2"/><path d="M813.53,201.16h-.07a3.89,3.89,0,0,0-.56-.1,5.85,5.85,0,0,0-.64,0,2.75,2.75,0,0,0-1.15.26,5.58,5.58,0,0,0-1.06.68v5.42h-1.29v-7.63h1.29v1.12a6.24,6.24,0,0,1,1.35-.87,3,3,0,0,1,1.19-.25h.49l.45.07Z" transform="translate(-20 -156)" style="fill:#f2f2f2"/><path d="M823.62,207.32a6.48,6.48,0,0,1-1.55.22,2.37,2.37,0,0,1-1.78-.63,2.84,2.84,0,0,1-.6-2v-4.06h-.87v-1.08h.87v-2.2H821v2.2h2.65v1.08H821v3.48c0,.4,0,.71,0,.94a1.59,1.59,0,0,0,.19.63,1,1,0,0,0,.41.4,2.09,2.09,0,0,0,.81.12,2.48,2.48,0,0,0,.65-.09,4.82,4.82,0,0,0,.5-.15h.06Z" transform="translate(-20 -156)" style="fill:#f2f2f2"/><path d="M826.56,198.48h-1.45v-1.34h1.45Zm-.09,8.91h-1.28v-7.63h1.28Z" transform="translate(-20 -156)" style="fill:#f2f2f2"/><path d="M840.16,207.39h-1.29V203c0-.32,0-.64,0-.95a1.94,1.94,0,0,0-.19-.73,1,1,0,0,0-.45-.44,1.9,1.9,0,0,0-.85-.15,2.4,2.4,0,0,0-1.08.27,7.14,7.14,0,0,0-1.08.68,3.5,3.5,0,0,1,0,.37c0,.14,0,.28,0,.41v4.89H834V203c0-.33,0-.65-.05-1a1.88,1.88,0,0,0-.19-.72,1,1,0,0,0-.45-.45,2.06,2.06,0,0,0-.84-.14,2.27,2.27,0,0,0-1.06.26,6.13,6.13,0,0,0-1.06.66v5.7H829v-7.63h1.28v.84a5.83,5.83,0,0,1,1.2-.78,3.1,3.1,0,0,1,1.28-.28,2.49,2.49,0,0,1,1.32.33,2,2,0,0,1,.81.91,6.49,6.49,0,0,1,1.42-.95,3.38,3.38,0,0,1,1.38-.29,2.21,2.21,0,0,1,1.85.77,3.33,3.33,0,0,1,.6,2.13Z" transform="translate(-20 -156)" style="fill:#f2f2f2"/><path d="M849,203.71H843.4a3.21,3.21,0,0,0,.21,1.22,2.24,2.24,0,0,0,1.43,1.35,3.29,3.29,0,0,0,1.07.17,4.39,4.39,0,0,0,1.57-.31,4,4,0,0,0,1.13-.61h.07v1.4a11,11,0,0,1-1.33.45,5.12,5.12,0,0,1-1.42.19,4.08,4.08,0,0,1-3-1,3.88,3.88,0,0,1-1.07-2.92,4.23,4.23,0,0,1,1-3,3.51,3.51,0,0,1,2.69-1.1,3.06,3.06,0,0,1,2.38.91A3.61,3.61,0,0,1,849,203Zm-1.25-1a2.32,2.32,0,0,0-.51-1.56,2,2,0,0,0-1.53-.56,2.27,2.27,0,0,0-1.65.61,2.44,2.44,0,0,0-.69,1.51Z" transform="translate(-20 -156)" style="fill:#f2f2f2"/></svg>