<svg id="Capa_1" data-name="Capa 1" xmlns="http://www.w3.org/2000/svg" viewBox="0 0 684 134"><title>mapa4</title><rect width="684" height="134" style="fill:#fff"/><rect x="303" width="161" height="74" style="fill:#a6a6a6"/><path d="M298.14,413.12a10,10,0,0,1-1.2.34,6.7,6.7,0,0,1-1.4.14,3.48,3.48,0,0,1-2.32-.72,2.31,2.31,0,0,1-.85-1.88,2.89,2.89,0,0,1,.23-1.18,3.33,3.33,0,0,1,.64-.94,5.16,5.16,0,0,1,.94-.77c.35-.23.69-.44,1-.62V406h1.22V408l-.95.56a6.64,6.64,0,0,0-.85.6,2.91,2.91,0,0,0-.61.75,2,2,0,0,0-.23,1,1.34,1.34,0,0,0,.53,1.15,2.23,2.23,0,0,0,1.35.38,4.33,4.33,0,0,0,1.37-.23,4.74,4.74,0,0,0,1.07-.48h.06Zm-1.68-8.46h-1.39v-1.45h1.39Z" transform="translate(28 -382)" style="fill:#f2f2f2"/><path d="M308.46,412.65l-.68.31a5.28,5.28,0,0,1-.8.3,7,7,0,0,1-.9.22,6,6,0,0,1-1.08.1,6.33,6.33,0,0,1-2-.31,4.17,4.17,0,0,1-1.58-1,4.28,4.28,0,0,1-1-1.65,6.62,6.62,0,0,1-.37-2.33,6.81,6.81,0,0,1,.35-2.25,4.49,4.49,0,0,1,1-1.67,4.21,4.21,0,0,1,1.57-1,5.53,5.53,0,0,1,2-.35,6.5,6.5,0,0,1,1.63.2,8.72,8.72,0,0,1,1.82.69v1.61h-.1a6.2,6.2,0,0,0-1.67-1,4.92,4.92,0,0,0-1.77-.32,3.78,3.78,0,0,0-1.39.25,3.12,3.12,0,0,0-1.11.78,3.51,3.51,0,0,0-.73,1.29,5.61,5.61,0,0,0-.26,1.81,5.13,5.13,0,0,0,.29,1.85,3.85,3.85,0,0,0,.74,1.26,3.09,3.09,0,0,0,1.12.74,3.63,3.63,0,0,0,1.35.25,5,5,0,0,0,1.83-.34,5.22,5.22,0,0,0,1.6-1h.1Z" transform="translate(28 -382)" style="fill:#f2f2f2"/><path d="M315,407.16H315a3.89,3.89,0,0,0-.56-.1,5.85,5.85,0,0,0-.64,0,2.75,2.75,0,0,0-1.15.26,5.28,5.28,0,0,0-1.06.68v5.42h-1.29v-7.63h1.29v1.12a6.24,6.24,0,0,1,1.35-.87,2.92,2.92,0,0,1,1.19-.25h.48l.46.07Z" transform="translate(28 -382)" style="fill:#f2f2f2"/><path d="M317.63,404.48h-1.45v-1.34h1.45Zm-.09,8.91h-1.28v-7.63h1.28Z" transform="translate(28 -382)" style="fill:#f2f2f2"/><path d="M326.81,409.48a5.09,5.09,0,0,1-.27,1.7,3.76,3.76,0,0,1-.75,1.3,3.27,3.27,0,0,1-1.06.79,3.19,3.19,0,0,1-1.3.27,4,4,0,0,1-1.08-.13,4.4,4.4,0,0,1-1-.4v3.2h-1.28V405.76h1.28v.8a5.23,5.23,0,0,1,1.15-.73,3.37,3.37,0,0,1,1.37-.29,2.51,2.51,0,0,1,2.15,1A4.79,4.79,0,0,1,326.81,409.48Zm-1.33,0a3.73,3.73,0,0,0-.47-2.07,1.65,1.65,0,0,0-1.45-.68,2.78,2.78,0,0,0-1.11.24,4.91,4.91,0,0,0-1.08.63V412a5,5,0,0,0,.94.34,4,4,0,0,0,.9.09,2.07,2.07,0,0,0,1.67-.73A3.29,3.29,0,0,0,325.48,409.52Z" transform="translate(28 -382)" style="fill:#f2f2f2"/><path d="M332.78,413.32a6.13,6.13,0,0,1-.79.16,5.63,5.63,0,0,1-.77.06,2.33,2.33,0,0,1-1.77-.63,2.8,2.8,0,0,1-.61-2v-4.06H328v-1.08h.87v-2.2h1.28v2.2h2.66v1.08h-2.66v3.48c0,.4,0,.71,0,.94a1.59,1.59,0,0,0,.19.63,1,1,0,0,0,.41.4,2.09,2.09,0,0,0,.81.12,2.48,2.48,0,0,0,.65-.09l.5-.15h.07Z" transform="translate(28 -382)" style="fill:#f2f2f2"/><path d="M340.83,409.58a4.26,4.26,0,0,1-.95,2.94,3.6,3.6,0,0,1-5.14,0,5,5,0,0,1,0-5.89,3.57,3.57,0,0,1,5.14,0A4.27,4.27,0,0,1,340.83,409.58Zm-1.32,0a3.54,3.54,0,0,0-.58-2.21,2.18,2.18,0,0,0-3.24,0,4.42,4.42,0,0,0,0,4.38,2.12,2.12,0,0,0,3.23,0A3.46,3.46,0,0,0,339.51,409.58Z" transform="translate(28 -382)" style="fill:#f2f2f2"/><path d="M354,413.39h-1.29V409c0-.32,0-.64,0-1a2.14,2.14,0,0,0-.19-.73,1.12,1.12,0,0,0-.45-.44,1.93,1.93,0,0,0-.85-.15,2.4,2.4,0,0,0-1.08.27,7.14,7.14,0,0,0-1.08.68c0,.11,0,.23,0,.37s0,.28,0,.41v4.89h-1.29V409c0-.33,0-.65,0-1a1.88,1.88,0,0,0-.19-.72,1,1,0,0,0-.45-.45,2.11,2.11,0,0,0-.85-.14,2.26,2.26,0,0,0-1.05.26,5.78,5.78,0,0,0-1.06.66v5.7h-1.29v-7.63h1.29v.84a5.83,5.83,0,0,1,1.2-.78,3.06,3.06,0,0,1,1.27-.28,2.55,2.55,0,0,1,1.33.33,2,2,0,0,1,.81.91,6.49,6.49,0,0,1,1.42-.95,3.33,3.33,0,0,1,1.37-.29,2.22,2.22,0,0,1,1.86.77,3.33,3.33,0,0,1,.6,2.13Z" transform="translate(28 -382)" style="fill:#f2f2f2"/><path d="M363,409.58a4.27,4.27,0,0,1-1,2.94,3.6,3.6,0,0,1-5.14,0,5,5,0,0,1,0-5.89,3.57,3.57,0,0,1,5.14,0A4.28,4.28,0,0,1,363,409.58Zm-1.33,0a3.48,3.48,0,0,0-.58-2.21,2,2,0,0,0-1.61-.72,2,2,0,0,0-1.63.72,3.54,3.54,0,0,0-.57,2.21,3.44,3.44,0,0,0,.58,2.17,2.12,2.12,0,0,0,3.23,0A3.46,3.46,0,0,0,361.62,409.58Z" transform="translate(28 -382)" style="fill:#f2f2f2"/><path d="M371.32,413.39H370V409a7.47,7.47,0,0,0-.06-1,1.85,1.85,0,0,0-.23-.73,1,1,0,0,0-.49-.42,2,2,0,0,0-.84-.14,2.59,2.59,0,0,0-1.1.26,5.44,5.44,0,0,0-1.1.66v5.7h-1.28v-7.63h1.28v.84a5.4,5.4,0,0,1,1.25-.78,3.4,3.4,0,0,1,1.32-.28,2.35,2.35,0,0,1,1.88.75,3.14,3.14,0,0,1,.65,2.15Z" transform="translate(28 -382)" style="fill:#f2f2f2"/><path d="M380.19,409.71h-5.63a3,3,0,0,0,.22,1.22,2.22,2.22,0,0,0,.58.86,2.27,2.27,0,0,0,.84.49,3.35,3.35,0,0,0,1.08.17,4.43,4.43,0,0,0,1.57-.31,4,4,0,0,0,1.12-.61H380v1.4a10.4,10.4,0,0,1-1.33.45,5.07,5.07,0,0,1-1.42.19,4.1,4.1,0,0,1-3-1,3.88,3.88,0,0,1-1.06-2.92,4.23,4.23,0,0,1,1-3,3.51,3.51,0,0,1,2.69-1.1,3.06,3.06,0,0,1,2.38.91,3.61,3.61,0,0,1,.84,2.56Zm-1.25-1a2.32,2.32,0,0,0-.51-1.56,2,2,0,0,0-1.53-.56,2.23,2.23,0,0,0-1.64.61,2.4,2.4,0,0,0-.7,1.51Z" transform="translate(28 -382)" style="fill:#f2f2f2"/><path d="M388.33,413.39H387v-.8a4.54,4.54,0,0,1-1.15.75,3.33,3.33,0,0,1-1.31.26,2.6,2.6,0,0,1-2.17-1.05,4.74,4.74,0,0,1-.8-2.92,4.91,4.91,0,0,1,.28-1.73,3.91,3.91,0,0,1,.75-1.29,3.08,3.08,0,0,1,1.08-.79,3,3,0,0,1,1.28-.28,4.29,4.29,0,0,1,1.07.13,5,5,0,0,1,1,.39v-3.31h1.29ZM387,411.51v-4.38a4.41,4.41,0,0,0-.92-.32,4.29,4.29,0,0,0-.9-.09,2,2,0,0,0-1.68.75,3.33,3.33,0,0,0-.6,2.13,3.78,3.78,0,0,0,.46,2.07,1.66,1.66,0,0,0,1.49.71,2.78,2.78,0,0,0,1.11-.24A4.44,4.44,0,0,0,387,411.51Z" transform="translate(28 -382)" style="fill:#f2f2f2"/><path d="M396.79,413.39h-1.27v-.81l-.47.32a3,3,0,0,1-.56.33,3.36,3.36,0,0,1-.74.27,4,4,0,0,1-1,.1,2.44,2.44,0,0,1-1.75-.68,2.3,2.3,0,0,1-.71-1.74,2.22,2.22,0,0,1,1.43-2.25,5.51,5.51,0,0,1,1.68-.42c.65-.07,1.35-.13,2.1-.16v-.2a1.61,1.61,0,0,0-.16-.73,1.12,1.12,0,0,0-.44-.45,2,2,0,0,0-.66-.21,5.13,5.13,0,0,0-.8-.05,5.28,5.28,0,0,0-1.12.13,8.56,8.56,0,0,0-1.29.39H391v-1.31c.25-.07.62-.14,1.09-.23a8.36,8.36,0,0,1,1.4-.12,6.46,6.46,0,0,1,1.41.14,2.61,2.61,0,0,1,1,.45,2,2,0,0,1,.66.81,3,3,0,0,1,.22,1.24Zm-1.27-1.88v-2.12c-.4,0-.86.05-1.39.1a6.39,6.39,0,0,0-1.26.2,2,2,0,0,0-.9.49,1.23,1.23,0,0,0-.34.91,1.21,1.21,0,0,0,.4,1,1.86,1.86,0,0,0,1.21.33,2.85,2.85,0,0,0,1.24-.27A5.24,5.24,0,0,0,395.52,411.51Z" transform="translate(28 -382)" style="fill:#f2f2f2"/><path d="M404.72,411.19a2.07,2.07,0,0,1-.86,1.72,3.82,3.82,0,0,1-2.36.67,5.84,5.84,0,0,1-1.56-.2,7,7,0,0,1-1.18-.45v-1.44h.06a5.08,5.08,0,0,0,1.36.73,4.15,4.15,0,0,0,1.43.27,2.71,2.71,0,0,0,1.32-.27.93.93,0,0,0,.48-.87.88.88,0,0,0-.26-.68,2.41,2.41,0,0,0-1-.4l-.71-.14a7.55,7.55,0,0,1-.81-.18,2.63,2.63,0,0,1-1.42-.78,1.94,1.94,0,0,1-.42-1.27A2.09,2.09,0,0,1,399,407a2.18,2.18,0,0,1,.6-.74,2.63,2.63,0,0,1,1-.51,4.17,4.17,0,0,1,1.32-.19,6.07,6.07,0,0,1,1.39.17,5.18,5.18,0,0,1,1.16.41v1.37h-.07a4.28,4.28,0,0,0-1.19-.61,4,4,0,0,0-1.38-.25,2.41,2.41,0,0,0-1.19.27.86.86,0,0,0-.49.8.85.85,0,0,0,.3.71,2.27,2.27,0,0,0,.93.39c.23.06.5.11.79.17s.54.1.74.15a2.74,2.74,0,0,1,1.38.7A1.86,1.86,0,0,1,404.72,411.19Z" transform="translate(28 -382)" style="fill:#f2f2f2"/><path d="M418,409.58a4.31,4.31,0,0,1-.95,2.94,3.6,3.6,0,0,1-5.14,0,5,5,0,0,1,0-5.89,3.57,3.57,0,0,1,5.14,0A4.32,4.32,0,0,1,418,409.58Zm-1.32,0a3.47,3.47,0,0,0-.59-2.21,2.17,2.17,0,0,0-3.23,0,4.42,4.42,0,0,0,0,4.38,2.12,2.12,0,0,0,3.23,0A3.46,3.46,0,0,0,416.67,409.58Z" transform="translate(28 -382)" style="fill:#f2f2f2"/><path d="M310.71,432.91a7.66,7.66,0,0,1-1.22.48,4.16,4.16,0,0,1-1.23.17,4.61,4.61,0,0,1-1.52-.24,3.07,3.07,0,0,1-1.18-.74,3.23,3.23,0,0,1-.77-1.24,5.21,5.21,0,0,1-.27-1.76,4.11,4.11,0,0,1,1-2.94,3.62,3.62,0,0,1,2.72-1.06,4.67,4.67,0,0,1,1.29.18,8.25,8.25,0,0,1,1.16.45v1.43h-.07a5,5,0,0,0-1.21-.7,3.25,3.25,0,0,0-1.22-.25,2.17,2.17,0,0,0-1.73.74,4,4,0,0,0,0,4.28,2.15,2.15,0,0,0,1.74.74,3.64,3.64,0,0,0,.79-.1,3.37,3.37,0,0,0,.72-.27l.53-.3.39-.28h.07Z" transform="translate(28 -382)" style="fill:#f2f2f2"/><path d="M317.12,427.16h-.07a3.76,3.76,0,0,0-.55-.1,6.11,6.11,0,0,0-.64,0,2.72,2.72,0,0,0-1.15.26,5.35,5.35,0,0,0-1.07.68v5.42h-1.28v-7.63h1.28v1.12A6.24,6.24,0,0,1,315,426a3,3,0,0,1,1.19-.25h.49l.45.07Z" transform="translate(28 -382)" style="fill:#f2f2f2"/><path d="M319.71,424.48h-1.45v-1.34h1.45Zm-.08,8.91h-1.29v-7.63h1.29Z" transform="translate(28 -382)" style="fill:#f2f2f2"/><path d="M328.89,429.48a5.09,5.09,0,0,1-.27,1.7,3.47,3.47,0,0,1-.75,1.3,3.06,3.06,0,0,1-2.35,1.06,4,4,0,0,1-1.08-.13,4.22,4.22,0,0,1-1-.4v3.2h-1.29V425.76h1.29v.8a5,5,0,0,1,1.15-.73,3.32,3.32,0,0,1,1.36-.29,2.51,2.51,0,0,1,2.15,1A4.73,4.73,0,0,1,328.89,429.48Zm-1.32,0a3.64,3.64,0,0,0-.48-2.07,1.64,1.64,0,0,0-1.45-.68,2.81,2.81,0,0,0-1.11.24,5.09,5.09,0,0,0-1.07.63V432a4.55,4.55,0,0,0,.94.34,4,4,0,0,0,.89.09,2.07,2.07,0,0,0,1.67-.73A3.23,3.23,0,0,0,327.57,429.52Z" transform="translate(28 -382)" style="fill:#f2f2f2"/><path d="M334.86,433.32a6.48,6.48,0,0,1-1.55.22,2.37,2.37,0,0,1-1.78-.63,2.8,2.8,0,0,1-.61-2v-4.06h-.87v-1.08h.87v-2.2h1.29v2.2h2.65v1.08h-2.65v3.48c0,.4,0,.71,0,.94a1.6,1.6,0,0,0,.2.63.93.93,0,0,0,.41.4,2,2,0,0,0,.8.12,2.61,2.61,0,0,0,.66-.09,4.46,4.46,0,0,0,.49-.15h.07Z" transform="translate(28 -382)" style="fill:#f2f2f2"/><path d="M342.92,429.58a4.27,4.27,0,0,1-1,2.94,3.59,3.59,0,0,1-5.13,0,5,5,0,0,1,0-5.89,3.56,3.56,0,0,1,5.13,0A4.28,4.28,0,0,1,342.92,429.58Zm-1.33,0a3.48,3.48,0,0,0-.58-2.21,2.17,2.17,0,0,0-3.23,0,4.42,4.42,0,0,0,0,4.38,2.12,2.12,0,0,0,3.23,0A3.46,3.46,0,0,0,341.59,429.58Z" transform="translate(28 -382)" style="fill:#f2f2f2"/><path d="M349,429.56h-4.27v-1.24H349Z" transform="translate(28 -382)" style="fill:#f2f2f2"/><path d="M357.06,433.39h-1.27v-.81l-.47.32a3,3,0,0,1-.56.33,3.56,3.56,0,0,1-.74.27,4,4,0,0,1-1,.1,2.44,2.44,0,0,1-1.75-.68,2.3,2.3,0,0,1-.71-1.74,2.22,2.22,0,0,1,1.43-2.25,5.51,5.51,0,0,1,1.68-.42c.65-.07,1.35-.13,2.1-.16v-.2a1.61,1.61,0,0,0-.16-.73,1.12,1.12,0,0,0-.44-.45,2,2,0,0,0-.66-.21,5.13,5.13,0,0,0-.8-.05,5.28,5.28,0,0,0-1.12.13,8.56,8.56,0,0,0-1.29.39h-.07v-1.31c.25-.07.62-.14,1.09-.23a8.36,8.36,0,0,1,1.4-.12,6.46,6.46,0,0,1,1.41.14,2.67,2.67,0,0,1,1,.45,2,2,0,0,1,.66.81,3,3,0,0,1,.22,1.24Zm-1.27-1.88v-2.12c-.4,0-.86.05-1.39.1a6.39,6.39,0,0,0-1.26.2,2,2,0,0,0-.9.49,1.23,1.23,0,0,0-.34.91,1.21,1.21,0,0,0,.4,1,1.86,1.86,0,0,0,1.21.33,2.85,2.85,0,0,0,1.24-.27A5.24,5.24,0,0,0,355.79,431.51Z" transform="translate(28 -382)" style="fill:#f2f2f2"/><path d="M365.18,432.91a7,7,0,0,1-1.22.48,4,4,0,0,1-1.22.17,4.61,4.61,0,0,1-1.52-.24,3.07,3.07,0,0,1-1.18-.74,3.25,3.25,0,0,1-.78-1.24,5.21,5.21,0,0,1-.27-1.76,4.07,4.07,0,0,1,1-2.94,3.61,3.61,0,0,1,2.72-1.06,4.78,4.78,0,0,1,1.29.18,8.1,8.1,0,0,1,1.15.45v1.43h-.06a5,5,0,0,0-1.22-.7,3.17,3.17,0,0,0-1.22-.25,2.15,2.15,0,0,0-1.72.74,3.23,3.23,0,0,0-.64,2.15,3.28,3.28,0,0,0,.62,2.13,2.16,2.16,0,0,0,1.74.74,3.56,3.56,0,0,0,.79-.1,3.47,3.47,0,0,0,.73-.27l.53-.3.39-.28h.06Z" transform="translate(28 -382)" style="fill:#f2f2f2"/><path d="M370.8,433.32a6.13,6.13,0,0,1-.79.16,5.63,5.63,0,0,1-.77.06,2.33,2.33,0,0,1-1.77-.63,2.8,2.8,0,0,1-.61-2v-4.06H366v-1.08h.87v-2.2h1.28v2.2h2.66v1.08h-2.66v3.48c0,.4,0,.71,0,.94a1.59,1.59,0,0,0,.19.63,1,1,0,0,0,.42.4,2,2,0,0,0,.8.12,2.61,2.61,0,0,0,.66-.09l.49-.15h.07Z" transform="translate(28 -382)" style="fill:#f2f2f2"/><path d="M373.73,424.48h-1.45v-1.34h1.45Zm-.08,8.91h-1.29v-7.63h1.29Z" transform="translate(28 -382)" style="fill:#f2f2f2"/><path d="M382.79,425.76l-3.09,7.63h-1.29l-3.07-7.63h1.4l2.36,6.07,2.35-6.07Z" transform="translate(28 -382)" style="fill:#f2f2f2"/><path d="M390.86,429.58a4.27,4.27,0,0,1-1,2.94,3.59,3.59,0,0,1-5.13,0,5,5,0,0,1,0-5.89,3.56,3.56,0,0,1,5.13,0A4.28,4.28,0,0,1,390.86,429.58Zm-1.33,0a3.48,3.48,0,0,0-.58-2.21,2.17,2.17,0,0,0-3.23,0,4.42,4.42,0,0,0,0,4.38,2.12,2.12,0,0,0,3.23,0A3.46,3.46,0,0,0,389.53,429.58Z" transform="translate(28 -382)" style="fill:#f2f2f2"/><path d="M398.3,431.19a2.07,2.07,0,0,1-.86,1.72,3.8,3.8,0,0,1-2.36.67,5.84,5.84,0,0,1-1.56-.2,7.34,7.34,0,0,1-1.18-.45v-1.44h.06a5.08,5.08,0,0,0,1.36.73,4.15,4.15,0,0,0,1.43.27,2.71,2.71,0,0,0,1.32-.27.93.93,0,0,0,.48-.87.85.85,0,0,0-.26-.68,2.35,2.35,0,0,0-1-.4l-.71-.14a7.35,7.35,0,0,1-.8-.18,2.66,2.66,0,0,1-1.43-.78,1.94,1.94,0,0,1-.42-1.27,2.1,2.1,0,0,1,.2-.89,2.15,2.15,0,0,1,.59-.74,2.63,2.63,0,0,1,1-.51,4.25,4.25,0,0,1,1.32-.19,6.07,6.07,0,0,1,1.39.17,5.18,5.18,0,0,1,1.16.41v1.37h-.06a4.5,4.5,0,0,0-1.2-.61,4,4,0,0,0-1.38-.25,2.41,2.41,0,0,0-1.19.27.86.86,0,0,0-.49.8.85.85,0,0,0,.3.71,2.27,2.27,0,0,0,.93.39c.23.06.5.11.79.17s.54.1.74.15a2.66,2.66,0,0,1,1.38.7A1.86,1.86,0,0,1,398.3,431.19Z" transform="translate(28 -382)" style="fill:#f2f2f2"/><path d="M405.75,425.61a2.84,2.84,0,0,1-.24,1.19,3.13,3.13,0,0,1-.63.92,6.49,6.49,0,0,1-.88.74c-.33.22-.69.44-1.06.66v1.54h-1.23v-2.09l1-.55a4.57,4.57,0,0,0,.84-.61,3.07,3.07,0,0,0,.61-.73,1.91,1.91,0,0,0,.22-1,1.31,1.31,0,0,0-.52-1.15,2.2,2.2,0,0,0-1.35-.38,4.07,4.07,0,0,0-1.4.23,5.17,5.17,0,0,0-1,.47H400v-1.39a7.13,7.13,0,0,1,1.22-.34,7.7,7.7,0,0,1,1.39-.14,3.53,3.53,0,0,1,2.32.71A2.38,2.38,0,0,1,405.75,425.61Zm-2.7,7.78h-1.4V432h1.4Z" transform="translate(28 -382)" style="fill:#f2f2f2"/><rect x="493" width="161" height="100" style="fill:#a6a6a6"/><path d="M491.28,414.65l-.68.31a5.28,5.28,0,0,1-.8.3,7.41,7.41,0,0,1-.9.22,6,6,0,0,1-1.08.1,6.33,6.33,0,0,1-2-.31,4.17,4.17,0,0,1-1.58-1,4.28,4.28,0,0,1-1-1.65,6.62,6.62,0,0,1-.37-2.33,6.81,6.81,0,0,1,.35-2.25,4.49,4.49,0,0,1,1-1.67,4.21,4.21,0,0,1,1.57-1,5.53,5.53,0,0,1,2-.35,6.5,6.5,0,0,1,1.63.2,8.72,8.72,0,0,1,1.82.69v1.61h-.1a6.2,6.2,0,0,0-1.67-1,4.92,4.92,0,0,0-1.77-.32,3.78,3.78,0,0,0-1.39.25,3.12,3.12,0,0,0-1.11.78,3.51,3.51,0,0,0-.73,1.29,5.6,5.6,0,0,0-.27,1.81,5.12,5.12,0,0,0,.3,1.85,3.85,3.85,0,0,0,.74,1.26,3,3,0,0,0,1.12.74,3.63,3.63,0,0,0,1.35.25,5,5,0,0,0,1.83-.34,5.22,5.22,0,0,0,1.6-1h.1Z" transform="translate(28 -382)" style="fill:#f2f2f2"/><path d="M499.6,411.58a4.27,4.27,0,0,1-1,2.94,3.6,3.6,0,0,1-5.14,0,5,5,0,0,1,0-5.89,3.57,3.57,0,0,1,5.14,0A4.28,4.28,0,0,1,499.6,411.58Zm-1.33,0a3.48,3.48,0,0,0-.58-2.21,2,2,0,0,0-1.61-.72,2,2,0,0,0-1.63.72,3.54,3.54,0,0,0-.57,2.21,3.44,3.44,0,0,0,.58,2.17,1.91,1.91,0,0,0,1.62.75,2,2,0,0,0,1.61-.74A3.46,3.46,0,0,0,498.27,411.58Z" transform="translate(28 -382)" style="fill:#f2f2f2"/><path d="M508,415.39h-1.28V411a6,6,0,0,0-.07-1,1.85,1.85,0,0,0-.22-.73,1,1,0,0,0-.49-.42,2,2,0,0,0-.84-.14,2.59,2.59,0,0,0-1.1.26,5.44,5.44,0,0,0-1.1.66v5.7h-1.28v-7.63h1.28v.84a5.4,5.4,0,0,1,1.25-.78,3.33,3.33,0,0,1,1.32-.28,2.35,2.35,0,0,1,1.88.75,3.14,3.14,0,0,1,.65,2.15Z" transform="translate(28 -382)" style="fill:#f2f2f2"/><path d="M516.09,414.91a7.31,7.31,0,0,1-1.22.48,4,4,0,0,1-1.22.17,4.57,4.57,0,0,1-1.52-.24,3,3,0,0,1-1.18-.74,3.25,3.25,0,0,1-.78-1.24,5.21,5.21,0,0,1-.27-1.76,4.07,4.07,0,0,1,1-2.94,3.59,3.59,0,0,1,2.72-1.06,4.65,4.65,0,0,1,1.28.18,7.79,7.79,0,0,1,1.16.45v1.43H516a4.81,4.81,0,0,0-1.21-.7,3.21,3.21,0,0,0-1.22-.25,2.15,2.15,0,0,0-1.72.74,3.17,3.17,0,0,0-.64,2.15,3.28,3.28,0,0,0,.62,2.13,2.15,2.15,0,0,0,1.74.74,3.56,3.56,0,0,0,.79-.1,3.69,3.69,0,0,0,.73-.27l.52-.3a3.39,3.39,0,0,0,.39-.28h.07Z" transform="translate(28 -382)" style="fill:#f2f2f2"/><path d="M524.13,411.71h-5.62a3.21,3.21,0,0,0,.21,1.22,2.22,2.22,0,0,0,.58.86,2.35,2.35,0,0,0,.84.49,3.4,3.4,0,0,0,1.08.17,4.43,4.43,0,0,0,1.57-.31,4,4,0,0,0,1.12-.61H524v1.4a10.26,10.26,0,0,1-1.32.45,5.2,5.2,0,0,1-1.43.19,4.07,4.07,0,0,1-3-1,3.88,3.88,0,0,1-1.07-2.92,4.23,4.23,0,0,1,1-3,3.51,3.51,0,0,1,2.69-1.1,3,3,0,0,1,2.38.91,3.61,3.61,0,0,1,.84,2.56Zm-1.25-1a2.22,2.22,0,0,0-.51-1.56,2,2,0,0,0-1.53-.56,2.26,2.26,0,0,0-1.64.61,2.34,2.34,0,0,0-.69,1.51Z" transform="translate(28 -382)" style="fill:#f2f2f2"/><path d="M532.8,411.48a5.09,5.09,0,0,1-.27,1.7,3.47,3.47,0,0,1-.75,1.3,3.07,3.07,0,0,1-2.36,1.06,4,4,0,0,1-1.07-.13,4.22,4.22,0,0,1-1-.4v3.2h-1.29V407.76h1.29v.8a5,5,0,0,1,1.15-.73,3.29,3.29,0,0,1,1.36-.29,2.51,2.51,0,0,1,2.15,1A4.79,4.79,0,0,1,532.8,411.48Zm-1.33,0a3.64,3.64,0,0,0-.47-2.07,1.64,1.64,0,0,0-1.45-.68,2.78,2.78,0,0,0-1.11.24,4.85,4.85,0,0,0-1.07.63V414a4.7,4.7,0,0,0,.93.34,4.16,4.16,0,0,0,.9.09,2.07,2.07,0,0,0,1.67-.73A3.29,3.29,0,0,0,531.47,411.52Z" transform="translate(28 -382)" style="fill:#f2f2f2"/><path d="M538.77,415.32a5.8,5.8,0,0,1-.79.16,5.61,5.61,0,0,1-.76.06,2.36,2.36,0,0,1-1.78-.63,2.8,2.8,0,0,1-.61-2v-4.06H534v-1.08h.87v-2.2h1.29v2.2h2.65v1.08h-2.65v3.48c0,.4,0,.71,0,.94a1.59,1.59,0,0,0,.19.63,1,1,0,0,0,.42.4,2,2,0,0,0,.8.12,2.61,2.61,0,0,0,.66-.09,4.46,4.46,0,0,0,.49-.15h.07Z" transform="translate(28 -382)" style="fill:#f2f2f2"/><path d="M546.65,415.39h-1.29v-.85a5.67,5.67,0,0,1-1.24.79,3.13,3.13,0,0,1-1.31.27,2.43,2.43,0,0,1-1.88-.73,3.14,3.14,0,0,1-.67-2.16v-4.95h1.29v4.34a9.37,9.37,0,0,0,.05,1,1.92,1.92,0,0,0,.24.71,1,1,0,0,0,.48.43,2.08,2.08,0,0,0,.85.14,2.78,2.78,0,0,0,1.09-.26,4.94,4.94,0,0,0,1.1-.66v-5.7h1.29Z" transform="translate(28 -382)" style="fill:#f2f2f2"/><path d="M555.11,415.39h-1.28v-.81l-.46.32a3,3,0,0,1-.56.33,3.56,3.56,0,0,1-.74.27,4,4,0,0,1-1,.1,2.42,2.42,0,0,1-1.75-.68,2.31,2.31,0,0,1-.72-1.74,2.24,2.24,0,0,1,1.44-2.25,5.51,5.51,0,0,1,1.68-.42c.65-.07,1.35-.13,2.09-.16v-.2a1.61,1.61,0,0,0-.15-.73,1.12,1.12,0,0,0-.44-.45,2,2,0,0,0-.66-.21,5.13,5.13,0,0,0-.8-.05,5.28,5.28,0,0,0-1.12.13,8.56,8.56,0,0,0-1.29.39h-.07v-1.31c.25-.07.61-.14,1.09-.23a8.36,8.36,0,0,1,1.4-.12,6.46,6.46,0,0,1,1.41.14,2.67,2.67,0,0,1,1,.45,2,2,0,0,1,.66.81,3,3,0,0,1,.22,1.24Zm-1.28-1.88v-2.12c-.39,0-.85.05-1.38.1a6.39,6.39,0,0,0-1.26.2,2,2,0,0,0-.9.49,1.19,1.19,0,0,0-.34.91,1.21,1.21,0,0,0,.4,1,1.86,1.86,0,0,0,1.21.33,2.77,2.77,0,0,0,1.23-.27A4.73,4.73,0,0,0,553.83,413.51Z" transform="translate(28 -382)" style="fill:#f2f2f2"/><path d="M558.89,415.39H557.6V404.75h1.29Z" transform="translate(28 -382)" style="fill:#f2f2f2"/><path d="M562.81,406.48h-1.45v-1.34h1.45Zm-.08,8.91h-1.29v-7.63h1.29Z" transform="translate(28 -382)" style="fill:#f2f2f2"/><path d="M570.81,415.39h-6.17v-.95l4.45-5.61h-4.35v-1.07h6v.91l-4.47,5.63h4.59Z" transform="translate(28 -382)" style="fill:#f2f2f2"/><path d="M578.56,415.39h-1.28v-.81l-.46.32a3,3,0,0,1-.56.33,3.79,3.79,0,0,1-.74.27,4.1,4.1,0,0,1-1,.1,2.42,2.42,0,0,1-1.75-.68,2.31,2.31,0,0,1-.72-1.74,2.42,2.42,0,0,1,.38-1.41,2.37,2.37,0,0,1,1.06-.84,5.44,5.44,0,0,1,1.67-.42c.65-.07,1.35-.13,2.1-.16v-.2a1.61,1.61,0,0,0-.15-.73,1.12,1.12,0,0,0-.44-.45,2,2,0,0,0-.66-.21,5.13,5.13,0,0,0-.8-.05,5.37,5.37,0,0,0-1.13.13,8.81,8.81,0,0,0-1.28.39h-.07v-1.31c.25-.07.61-.14,1.09-.23a8.36,8.36,0,0,1,1.4-.12,6.37,6.37,0,0,1,1.4.14,2.65,2.65,0,0,1,1,.45,2.07,2.07,0,0,1,.65.81,3,3,0,0,1,.23,1.24Zm-1.28-1.88v-2.12c-.39,0-.85.05-1.38.1a6.39,6.39,0,0,0-1.26.2,2,2,0,0,0-.9.49,1.19,1.19,0,0,0-.34.91,1.24,1.24,0,0,0,.39,1,1.88,1.88,0,0,0,1.21.33,2.79,2.79,0,0,0,1.24-.27A5,5,0,0,0,577.28,413.51Z" transform="translate(28 -382)" style="fill:#f2f2f2"/><path d="M586.68,414.91a7.31,7.31,0,0,1-1.22.48,4.07,4.07,0,0,1-1.23.17,4.55,4.55,0,0,1-1.51-.24,3.11,3.11,0,0,1-1.19-.74,3.23,3.23,0,0,1-.77-1.24,5.21,5.21,0,0,1-.27-1.76,4.07,4.07,0,0,1,1-2.94,3.59,3.59,0,0,1,2.71-1.06,4.67,4.67,0,0,1,1.29.18,8.25,8.25,0,0,1,1.16.45v1.43h-.07a4.81,4.81,0,0,0-1.21-.7,3.21,3.21,0,0,0-1.22-.25,2.17,2.17,0,0,0-1.73.74,3.23,3.23,0,0,0-.63,2.15,3.28,3.28,0,0,0,.62,2.13,2.15,2.15,0,0,0,1.74.74,3.64,3.64,0,0,0,.79-.1,3.69,3.69,0,0,0,.73-.27l.52-.3a3.39,3.39,0,0,0,.39-.28h.07Z" transform="translate(28 -382)" style="fill:#f2f2f2"/><path d="M589.71,406.48h-1.45v-1.34h1.45Zm-.08,8.91h-1.29v-7.63h1.29Z" transform="translate(28 -382)" style="fill:#f2f2f2"/><path d="M598.68,411.58a4.27,4.27,0,0,1-1,2.94,3.6,3.6,0,0,1-5.14,0,5,5,0,0,1,0-5.89,3.57,3.57,0,0,1,5.14,0A4.28,4.28,0,0,1,598.68,411.58Zm-1.33,0a3.48,3.48,0,0,0-.58-2.21,2,2,0,0,0-1.61-.72,2,2,0,0,0-1.63.72,3.54,3.54,0,0,0-.57,2.21,3.44,3.44,0,0,0,.58,2.17,1.91,1.91,0,0,0,1.62.75,2,2,0,0,0,1.61-.74A3.46,3.46,0,0,0,597.35,411.58Zm-.07-7.65-1.86,2.56h-1l1.22-2.56Z" transform="translate(28 -382)" style="fill:#f2f2f2"/><path d="M607.05,415.39h-1.28V411a7.47,7.47,0,0,0-.06-1,2,2,0,0,0-.23-.73,1,1,0,0,0-.49-.42,2,2,0,0,0-.84-.14,2.59,2.59,0,0,0-1.1.26,5.44,5.44,0,0,0-1.1.66v5.7h-1.28v-7.63H602v.84a5.4,5.4,0,0,1,1.25-.78,3.33,3.33,0,0,1,1.32-.28,2.35,2.35,0,0,1,1.88.75,3.14,3.14,0,0,1,.65,2.15Z" transform="translate(28 -382)" style="fill:#f2f2f2"/><path d="M499.61,435.58a2.77,2.77,0,0,1-.68,2,2.51,2.51,0,0,1-1.83.68,5.21,5.21,0,0,1-.72,0,5.07,5.07,0,0,1-.75-.14v-1.22h.06l.52.17a2.39,2.39,0,0,0,.63.09,2,2,0,0,0,.8-.13,1,1,0,0,0,.45-.41,1.77,1.77,0,0,0,.19-.66,8.2,8.2,0,0,0,.05-.94v-6.15h-1.6v-1.08h2.88Zm.08-9.1h-1.45v-1.34h1.45Z" transform="translate(28 -382)" style="fill:#f2f2f2"/><path d="M508.46,435.39h-1.28v-.85a5.71,5.71,0,0,1-1.25.79,3.1,3.1,0,0,1-1.31.27,2.4,2.4,0,0,1-1.87-.73,3.09,3.09,0,0,1-.67-2.16v-4.95h1.28v4.34a7.15,7.15,0,0,0,.06,1,1.92,1.92,0,0,0,.23.71,1,1,0,0,0,.48.43,2.11,2.11,0,0,0,.85.14,2.74,2.74,0,0,0,1.09-.26,4.79,4.79,0,0,0,1.11-.66v-5.7h1.28Z" transform="translate(28 -382)" style="fill:#f2f2f2"/><path d="M515.76,429.16h-.07a3.89,3.89,0,0,0-.56-.1,5.85,5.85,0,0,0-.64,0,2.75,2.75,0,0,0-1.15.26,5.58,5.58,0,0,0-1.06.68v5.42H511v-7.63h1.29v1.12a6.24,6.24,0,0,1,1.35-.87,3,3,0,0,1,1.19-.25h.49l.45.07Z" transform="translate(28 -382)" style="fill:#f2f2f2"/><path d="M519.68,423.93l-1.86,2.56h-1l1.22-2.56Zm-1.41,11.46H517v-7.63h1.29Z" transform="translate(28 -382)" style="fill:#f2f2f2"/><path d="M527,435.39h-1.28v-.8a4.77,4.77,0,0,1-1.16.75,3.28,3.28,0,0,1-1.3.26,2.58,2.58,0,0,1-2.17-1.05,4.67,4.67,0,0,1-.81-2.92,5.14,5.14,0,0,1,.28-1.73,3.91,3.91,0,0,1,.75-1.29,3.08,3.08,0,0,1,1.08-.79,3,3,0,0,1,1.28-.28,4.29,4.29,0,0,1,1.07.13,5.12,5.12,0,0,1,1,.39v-3.31H527Zm-1.28-1.88v-4.38a4.69,4.69,0,0,0-.93-.32,4.22,4.22,0,0,0-.9-.09,2,2,0,0,0-1.68.75,3.33,3.33,0,0,0-.6,2.13,3.78,3.78,0,0,0,.46,2.07,1.66,1.66,0,0,0,1.49.71,2.78,2.78,0,0,0,1.11-.24A4.72,4.72,0,0,0,525.72,433.51Z" transform="translate(28 -382)" style="fill:#f2f2f2"/><path d="M530.91,426.48h-1.45v-1.34h1.45Zm-.08,8.91h-1.28v-7.63h1.28Z" transform="translate(28 -382)" style="fill:#f2f2f2"/><path d="M539,434.91a7.31,7.31,0,0,1-1.22.48,4.07,4.07,0,0,1-1.23.17,4.55,4.55,0,0,1-1.51-.24,3.11,3.11,0,0,1-1.19-.74,3.23,3.23,0,0,1-.77-1.24,5.21,5.21,0,0,1-.27-1.76,4.07,4.07,0,0,1,1-2.94,3.59,3.59,0,0,1,2.71-1.06,4.67,4.67,0,0,1,1.29.18,8.25,8.25,0,0,1,1.16.45v1.43H539a4.81,4.81,0,0,0-1.21-.7,3.21,3.21,0,0,0-1.22-.25,2.17,2.17,0,0,0-1.73.74,3.23,3.23,0,0,0-.63,2.15,3.28,3.28,0,0,0,.62,2.13,2.15,2.15,0,0,0,1.74.74,3.64,3.64,0,0,0,.79-.1,3.69,3.69,0,0,0,.73-.27l.52-.3a3.39,3.39,0,0,0,.39-.28H539Z" transform="translate(28 -382)" style="fill:#f2f2f2"/><path d="M546.6,435.39h-1.28v-.81l-.46.32a3,3,0,0,1-.56.33,3.56,3.56,0,0,1-.74.27,4,4,0,0,1-1,.1,2.42,2.42,0,0,1-1.75-.68,2.31,2.31,0,0,1-.72-1.74,2.24,2.24,0,0,1,1.44-2.25,5.44,5.44,0,0,1,1.67-.42c.66-.07,1.36-.13,2.1-.16v-.2a1.61,1.61,0,0,0-.15-.73,1.12,1.12,0,0,0-.44-.45,2,2,0,0,0-.66-.21,5.13,5.13,0,0,0-.8-.05,5.44,5.44,0,0,0-1.13.13,8.81,8.81,0,0,0-1.28.39h-.07v-1.31c.25-.07.61-.14,1.09-.23a8.36,8.36,0,0,1,1.4-.12,6.3,6.3,0,0,1,1.4.14,2.65,2.65,0,0,1,1,.45,2,2,0,0,1,.66.81,3,3,0,0,1,.22,1.24Zm-1.28-1.88v-2.12c-.39,0-.85.05-1.38.1a6.39,6.39,0,0,0-1.26.2,2,2,0,0,0-.9.49,1.19,1.19,0,0,0-.34.91,1.21,1.21,0,0,0,.4,1,1.84,1.84,0,0,0,1.21.33,2.77,2.77,0,0,0,1.23-.27A5,5,0,0,0,545.32,433.51Z" transform="translate(28 -382)" style="fill:#f2f2f2"/><path d="M560.19,435.39h-1.28v-.8a4.77,4.77,0,0,1-1.16.75,3.32,3.32,0,0,1-1.3.26,2.57,2.57,0,0,1-2.17-1.05,4.67,4.67,0,0,1-.81-2.92,4.91,4.91,0,0,1,.28-1.73,3.91,3.91,0,0,1,.75-1.29,3.08,3.08,0,0,1,1.08-.79,3,3,0,0,1,1.28-.28,4.29,4.29,0,0,1,1.07.13,5.39,5.39,0,0,1,1,.39v-3.31h1.28Zm-1.28-1.88v-4.38a4.69,4.69,0,0,0-.93-.32,4.29,4.29,0,0,0-.9-.09,2,2,0,0,0-1.68.75,3.33,3.33,0,0,0-.6,2.13,3.78,3.78,0,0,0,.46,2.07,1.66,1.66,0,0,0,1.49.71,2.78,2.78,0,0,0,1.11-.24A4.72,4.72,0,0,0,558.91,433.51Z" transform="translate(28 -382)" style="fill:#f2f2f2"/><path d="M569.11,431.71h-5.62a3.21,3.21,0,0,0,.21,1.22,2.22,2.22,0,0,0,.58.86,2.35,2.35,0,0,0,.84.49,3.4,3.4,0,0,0,1.08.17,4.43,4.43,0,0,0,1.57-.31,4,4,0,0,0,1.12-.61H569v1.4a10.26,10.26,0,0,1-1.32.45,5.2,5.2,0,0,1-1.43.19,4.07,4.07,0,0,1-3-1,3.88,3.88,0,0,1-1.07-2.92,4.23,4.23,0,0,1,1-3,3.51,3.51,0,0,1,2.69-1.1,3.08,3.08,0,0,1,2.39.91,3.65,3.65,0,0,1,.83,2.56Zm-1.25-1a2.22,2.22,0,0,0-.51-1.56,2,2,0,0,0-1.53-.56,2.26,2.26,0,0,0-1.64.61,2.34,2.34,0,0,0-.69,1.51Z" transform="translate(28 -382)" style="fill:#f2f2f2"/><path d="M577.28,435.39H576V424.75h1.28Z" transform="translate(28 -382)" style="fill:#f2f2f2"/><path d="M585.76,435.39h-1.28v-.81l-.46.32a3.08,3.08,0,0,1-.57.33,3.47,3.47,0,0,1-.73.27,4.1,4.1,0,0,1-1,.1,2.42,2.42,0,0,1-1.75-.68,2.31,2.31,0,0,1-.72-1.74,2.42,2.42,0,0,1,.37-1.41,2.46,2.46,0,0,1,1.07-.84,5.44,5.44,0,0,1,1.67-.42c.65-.07,1.35-.13,2.1-.16v-.2a1.61,1.61,0,0,0-.15-.73,1.15,1.15,0,0,0-.45-.45,2,2,0,0,0-.65-.21,5.21,5.21,0,0,0-.8-.05,5.3,5.3,0,0,0-1.13.13,8.81,8.81,0,0,0-1.28.39H580v-1.31c.25-.07.61-.14,1.08-.23a8.48,8.48,0,0,1,1.41-.12,6.43,6.43,0,0,1,1.4.14,2.72,2.72,0,0,1,1,.45,2.07,2.07,0,0,1,.65.81,3,3,0,0,1,.23,1.24Zm-1.28-1.88v-2.12c-.39,0-.85.05-1.38.1a6.38,6.38,0,0,0-1.27.2,1.93,1.93,0,0,0-.89.49,1.19,1.19,0,0,0-.34.91,1.24,1.24,0,0,0,.39,1,1.88,1.88,0,0,0,1.21.33,2.82,2.82,0,0,0,1.24-.27A5.24,5.24,0,0,0,584.48,433.51Z" transform="translate(28 -382)" style="fill:#f2f2f2"/><path d="M593.69,433.19a2.08,2.08,0,0,1-.87,1.72,3.78,3.78,0,0,1-2.36.67,5.82,5.82,0,0,1-1.55-.2,7.13,7.13,0,0,1-1.19-.45v-1.44h.07a4.88,4.88,0,0,0,1.35.73,4.24,4.24,0,0,0,1.43.27,2.75,2.75,0,0,0,1.33-.27,1,1,0,0,0,.48-.87.88.88,0,0,0-.26-.68,2.48,2.48,0,0,0-1-.4l-.72-.14a7.35,7.35,0,0,1-.8-.18,2.7,2.7,0,0,1-1.43-.78,1.94,1.94,0,0,1-.42-1.27,2.1,2.1,0,0,1,.2-.89,2.27,2.27,0,0,1,.59-.74,2.63,2.63,0,0,1,1-.51,4.27,4.27,0,0,1,1.33-.19,6.06,6.06,0,0,1,1.38.17,5.1,5.1,0,0,1,1.17.41v1.37h-.07a4.5,4.5,0,0,0-1.2-.61,4,4,0,0,0-1.38-.25,2.43,2.43,0,0,0-1.19.27.87.87,0,0,0-.48.8.84.84,0,0,0,.29.71,2.27,2.27,0,0,0,.93.39l.8.17.73.15a2.66,2.66,0,0,1,1.38.7A1.83,1.83,0,0,1,593.69,433.19Z" transform="translate(28 -382)" style="fill:#f2f2f2"/><path d="M500.27,454.91a7,7,0,0,1-1.22.48,4,4,0,0,1-1.22.17,4.61,4.61,0,0,1-1.52-.24,3.07,3.07,0,0,1-1.18-.74,3.25,3.25,0,0,1-.78-1.24,5.21,5.21,0,0,1-.27-1.76,4.07,4.07,0,0,1,1-2.94,3.61,3.61,0,0,1,2.72-1.06,4.78,4.78,0,0,1,1.29.18,8.1,8.1,0,0,1,1.15.45v1.43h-.06a5,5,0,0,0-1.22-.7,3.17,3.17,0,0,0-1.22-.25,2.15,2.15,0,0,0-1.72.74,3.17,3.17,0,0,0-.64,2.15,3.28,3.28,0,0,0,.62,2.13,2.17,2.17,0,0,0,1.74.74,3.73,3.73,0,0,0,.8-.1,3.59,3.59,0,0,0,.72-.27l.53-.3.39-.28h.06Z" transform="translate(28 -382)" style="fill:#f2f2f2"/><path d="M506.69,449.16h-.07a3.89,3.89,0,0,0-.56-.1,5.85,5.85,0,0,0-.64,0,2.75,2.75,0,0,0-1.15.26,5.28,5.28,0,0,0-1.06.68v5.42h-1.29v-7.63h1.29v1.12a6.24,6.24,0,0,1,1.35-.87,2.92,2.92,0,0,1,1.19-.25h.49l.45.07Z" transform="translate(28 -382)" style="fill:#f2f2f2"/><path d="M509.28,446.48h-1.45v-1.34h1.45Zm-.08,8.91h-1.29v-7.63h1.29Z" transform="translate(28 -382)" style="fill:#f2f2f2"/><path d="M518.46,451.48a5.09,5.09,0,0,1-.27,1.7,3.76,3.76,0,0,1-.75,1.3,3.27,3.27,0,0,1-1.06.79,3.19,3.19,0,0,1-1.3.27,4,4,0,0,1-1.08-.13,4.4,4.4,0,0,1-1-.4v3.2h-1.28V447.76H513v.8a5.29,5.29,0,0,1,1.16-.73,3.29,3.29,0,0,1,1.36-.29,2.51,2.51,0,0,1,2.15,1A4.79,4.79,0,0,1,518.46,451.48Zm-1.33,0a3.73,3.73,0,0,0-.47-2.07,1.65,1.65,0,0,0-1.45-.68,2.78,2.78,0,0,0-1.11.24,5.15,5.15,0,0,0-1.08.63V454a5,5,0,0,0,.94.34,4.09,4.09,0,0,0,.9.09,2.07,2.07,0,0,0,1.67-.73A3.29,3.29,0,0,0,517.13,451.52Z" transform="translate(28 -382)" style="fill:#f2f2f2"/><path d="M524.43,455.32a6.13,6.13,0,0,1-.79.16,5.63,5.63,0,0,1-.77.06,2.33,2.33,0,0,1-1.77-.63,2.8,2.8,0,0,1-.61-2v-4.06h-.87v-1.08h.87v-2.2h1.28v2.2h2.66v1.08h-2.66v3.48c0,.4,0,.71,0,.94a1.59,1.59,0,0,0,.19.63,1,1,0,0,0,.42.4,2,2,0,0,0,.8.12,2.61,2.61,0,0,0,.66-.09l.49-.15h.07Z" transform="translate(28 -382)" style="fill:#f2f2f2"/><path d="M532.49,451.58a4.27,4.27,0,0,1-1,2.94,3.6,3.6,0,0,1-5.14,0,5,5,0,0,1,0-5.89,3.57,3.57,0,0,1,5.14,0A4.28,4.28,0,0,1,532.49,451.58Zm-1.33,0a3.54,3.54,0,0,0-.58-2.21,2.18,2.18,0,0,0-3.24,0,4.42,4.42,0,0,0,0,4.38,2.12,2.12,0,0,0,3.23,0A3.46,3.46,0,0,0,531.16,451.58Z" transform="translate(28 -382)" style="fill:#f2f2f2"/><path d="M545.62,455.39h-1.29V451c0-.32,0-.64,0-1a1.94,1.94,0,0,0-.19-.73,1.12,1.12,0,0,0-.45-.44,1.93,1.93,0,0,0-.85-.15,2.4,2.4,0,0,0-1.08.27,7.14,7.14,0,0,0-1.08.68,3.7,3.7,0,0,1,0,.37c0,.14,0,.28,0,.41v4.89H539.4V451c0-.33,0-.65,0-1a1.88,1.88,0,0,0-.19-.72,1,1,0,0,0-.45-.45,2.11,2.11,0,0,0-.85-.14,2.26,2.26,0,0,0-1,.26,5.78,5.78,0,0,0-1.06.66v5.7h-1.29v-7.63h1.29v.84a5.83,5.83,0,0,1,1.2-.78,3.06,3.06,0,0,1,1.27-.28,2.52,2.52,0,0,1,1.33.33,2,2,0,0,1,.81.91,6.49,6.49,0,0,1,1.42-.95,3.37,3.37,0,0,1,1.37-.29,2.22,2.22,0,0,1,1.86.77,3.33,3.33,0,0,1,.6,2.13Z" transform="translate(28 -382)" style="fill:#f2f2f2"/><path d="M554.6,451.58a4.27,4.27,0,0,1-1,2.94,3.59,3.59,0,0,1-5.13,0,5,5,0,0,1,0-5.89,3.56,3.56,0,0,1,5.13,0A4.28,4.28,0,0,1,554.6,451.58Zm-1.33,0a3.48,3.48,0,0,0-.58-2.21,2.17,2.17,0,0,0-3.23,0,4.42,4.42,0,0,0,0,4.38,2.12,2.12,0,0,0,3.23,0A3.46,3.46,0,0,0,553.27,451.58Z" transform="translate(28 -382)" style="fill:#f2f2f2"/><path d="M563,455.39h-1.28V451a7.47,7.47,0,0,0-.06-1,1.85,1.85,0,0,0-.23-.73,1,1,0,0,0-.49-.42,2,2,0,0,0-.83-.14A2.6,2.6,0,0,0,559,449a5.44,5.44,0,0,0-1.1.66v5.7h-1.28v-7.63h1.28v.84a5.61,5.61,0,0,1,1.25-.78,3.4,3.4,0,0,1,1.32-.28,2.35,2.35,0,0,1,1.88.75,3.14,3.14,0,0,1,.65,2.15Z" transform="translate(28 -382)" style="fill:#f2f2f2"/><path d="M571.84,451.71h-5.63a3.2,3.2,0,0,0,.22,1.22,2.22,2.22,0,0,0,.58.86,2.27,2.27,0,0,0,.84.49,3.4,3.4,0,0,0,1.08.17,4.43,4.43,0,0,0,1.57-.31,4,4,0,0,0,1.12-.61h.07v1.4a10.4,10.4,0,0,1-1.33.45,5.07,5.07,0,0,1-1.42.19,4.1,4.1,0,0,1-3-1,3.88,3.88,0,0,1-1.06-2.92,4.23,4.23,0,0,1,1-3,3.51,3.51,0,0,1,2.69-1.1,3.06,3.06,0,0,1,2.38.91,3.61,3.61,0,0,1,.84,2.56Zm-1.25-1a2.32,2.32,0,0,0-.51-1.56,2,2,0,0,0-1.53-.56,2.24,2.24,0,0,0-1.64.61,2.4,2.4,0,0,0-.7,1.51Z" transform="translate(28 -382)" style="fill:#f2f2f2"/><path d="M580,455.39H578.7v-.8a4.77,4.77,0,0,1-1.16.75,3.28,3.28,0,0,1-1.3.26,2.6,2.6,0,0,1-2.18-1.05,4.74,4.74,0,0,1-.8-2.92,4.91,4.91,0,0,1,.28-1.73,3.91,3.91,0,0,1,.75-1.29,3.08,3.08,0,0,1,1.08-.79,3,3,0,0,1,1.28-.28,4.29,4.29,0,0,1,1.07.13,5.39,5.39,0,0,1,1,.39v-3.31H580Zm-1.28-1.88v-4.38a4.69,4.69,0,0,0-.93-.32,4.22,4.22,0,0,0-.9-.09,2,2,0,0,0-1.68.75,3.33,3.33,0,0,0-.6,2.13,3.78,3.78,0,0,0,.46,2.07,1.66,1.66,0,0,0,1.49.71,2.78,2.78,0,0,0,1.11-.24A4.72,4.72,0,0,0,578.7,453.51Z" transform="translate(28 -382)" style="fill:#f2f2f2"/><path d="M588.44,455.39h-1.27v-.81l-.46.32a3.45,3.45,0,0,1-.57.33,3.36,3.36,0,0,1-.74.27,4,4,0,0,1-1,.1,2.44,2.44,0,0,1-1.75-.68,2.34,2.34,0,0,1-.71-1.74,2.22,2.22,0,0,1,1.43-2.25,5.58,5.58,0,0,1,1.68-.42c.65-.07,1.35-.13,2.1-.16v-.2a1.49,1.49,0,0,0-.16-.73,1.12,1.12,0,0,0-.44-.45,2,2,0,0,0-.65-.21,5.49,5.49,0,0,0-1.93.08,8.56,8.56,0,0,0-1.29.39h-.07v-1.31c.25-.07.62-.14,1.09-.23a8.45,8.45,0,0,1,1.4-.12,6.46,6.46,0,0,1,1.41.14,2.61,2.61,0,0,1,1,.45,2,2,0,0,1,.66.81,3,3,0,0,1,.22,1.24Zm-1.27-1.88v-2.12c-.4,0-.86.05-1.39.1a6.39,6.39,0,0,0-1.26.2,2,2,0,0,0-.9.49,1.23,1.23,0,0,0-.34.91,1.24,1.24,0,0,0,.4,1,1.86,1.86,0,0,0,1.21.33,2.85,2.85,0,0,0,1.24-.27A5.24,5.24,0,0,0,587.17,453.51Z" transform="translate(28 -382)" style="fill:#f2f2f2"/><path d="M596.37,453.19a2.07,2.07,0,0,1-.86,1.72,3.8,3.8,0,0,1-2.36.67,5.84,5.84,0,0,1-1.56-.2,7,7,0,0,1-1.18-.45v-1.44h.06a5.08,5.08,0,0,0,1.36.73,4.15,4.15,0,0,0,1.43.27,2.71,2.71,0,0,0,1.32-.27.93.93,0,0,0,.48-.87.88.88,0,0,0-.26-.68,2.35,2.35,0,0,0-1-.4l-.71-.14a6.85,6.85,0,0,1-.8-.18,2.66,2.66,0,0,1-1.43-.78,1.94,1.94,0,0,1-.42-1.27,2.26,2.26,0,0,1,.19-.89,2.31,2.31,0,0,1,.6-.74,2.63,2.63,0,0,1,1-.51,4.21,4.21,0,0,1,1.32-.19,6.07,6.07,0,0,1,1.39.17,5,5,0,0,1,1.16.41v1.37H596a4.28,4.28,0,0,0-1.19-.61,4,4,0,0,0-1.38-.25,2.41,2.41,0,0,0-1.19.27.86.86,0,0,0-.49.8.85.85,0,0,0,.3.71,2.27,2.27,0,0,0,.93.39c.23.06.5.11.79.17s.54.1.74.15a2.7,2.7,0,0,1,1.38.7A1.86,1.86,0,0,1,596.37,453.19Z" transform="translate(28 -382)" style="fill:#f2f2f2"/></svg>