<svg id="Capa_1" data-name="Capa 1" xmlns="http://www.w3.org/2000/svg" viewBox="0 0 684 89"><title>mapa1</title><rect width="684" height="89" style="fill:#fff"/><rect x="215" y="26" width="225" height="63" style="fill:#84a0b4"/><path d="M213.38,114.65l-.68.31a5.11,5.11,0,0,1-.79.3,7.14,7.14,0,0,1-.91.22,5.06,5.06,0,0,1-1.07.1,6.44,6.44,0,0,1-2-.31,4.13,4.13,0,0,1-1.57-1,4.42,4.42,0,0,1-1-1.65,6.62,6.62,0,0,1-.37-2.33,6.56,6.56,0,0,1,.36-2.25,4.47,4.47,0,0,1,1-1.67,4.37,4.37,0,0,1,1.57-1,5.53,5.53,0,0,1,2-.35,6.57,6.57,0,0,1,1.64.2,8.66,8.66,0,0,1,1.81.69v1.61h-.1a6.06,6.06,0,0,0-1.67-1,4.92,4.92,0,0,0-1.77-.32,3.82,3.82,0,0,0-1.39.25,3.08,3.08,0,0,0-1.1.78,3.53,3.53,0,0,0-.74,1.29,5.9,5.9,0,0,0-.26,1.81,5.36,5.36,0,0,0,.29,1.85,3.7,3.7,0,0,0,.75,1.26,3,3,0,0,0,1.12.74,3.56,3.56,0,0,0,1.35.25,4.84,4.84,0,0,0,1.83-.34,5.34,5.34,0,0,0,1.6-1h.09Z" transform="translate(28 -55)" style="fill:#f2f2f2"/><path d="M220,109.16h-.07a3.66,3.66,0,0,0-.56-.1,5.78,5.78,0,0,0-.63,0,2.72,2.72,0,0,0-1.15.26,5.35,5.35,0,0,0-1.07.68v5.42H215.2v-7.63h1.28v1.12a6.24,6.24,0,0,1,1.35-.87,3,3,0,0,1,1.19-.25h.49l.45.07Z" transform="translate(28 -55)" style="fill:#f2f2f2"/><path d="M222.55,106.48H221.1v-1.34h1.45Zm-.08,8.91h-1.29v-7.63h1.29Z" transform="translate(28 -55)" style="fill:#f2f2f2"/><path d="M231.73,111.48a5.37,5.37,0,0,1-.26,1.7,3.63,3.63,0,0,1-.76,1.3,3.07,3.07,0,0,1-2.36,1.06,4,4,0,0,1-1.07-.13,4.22,4.22,0,0,1-1-.4v3.2H225V107.76h1.29v.8a5,5,0,0,1,1.15-.73,3.32,3.32,0,0,1,1.36-.29,2.51,2.51,0,0,1,2.15,1A4.73,4.73,0,0,1,231.73,111.48Zm-1.32,0a3.64,3.64,0,0,0-.48-2.07,1.64,1.64,0,0,0-1.45-.68,2.81,2.81,0,0,0-1.11.24,5.09,5.09,0,0,0-1.07.63V114a4.76,4.76,0,0,0,.94.34,4,4,0,0,0,.89.09,2,2,0,0,0,1.67-.73A3.23,3.23,0,0,0,230.41,111.52Z" transform="translate(28 -55)" style="fill:#f2f2f2"/><path d="M237.7,115.32a5.8,5.8,0,0,1-.79.16,5.5,5.5,0,0,1-.76.06,2.37,2.37,0,0,1-1.78-.63,2.8,2.8,0,0,1-.61-2v-4.06h-.87v-1.08h.87v-2.2h1.29v2.2h2.65v1.08h-2.65v3.48c0,.4,0,.71,0,.94a1.6,1.6,0,0,0,.2.63.93.93,0,0,0,.41.4,2,2,0,0,0,.8.12,2.61,2.61,0,0,0,.66-.09,4.46,4.46,0,0,0,.49-.15h.07Z" transform="translate(28 -55)" style="fill:#f2f2f2"/><path d="M245.76,111.58a4.27,4.27,0,0,1-1,2.94,3.59,3.59,0,0,1-5.13,0,5,5,0,0,1,0-5.89,3.56,3.56,0,0,1,5.13,0A4.28,4.28,0,0,1,245.76,111.58Zm-1.33,0a3.48,3.48,0,0,0-.58-2.21,2.17,2.17,0,0,0-3.23,0,4.42,4.42,0,0,0,0,4.38,2.12,2.12,0,0,0,3.23,0A3.46,3.46,0,0,0,244.43,111.58Z" transform="translate(28 -55)" style="fill:#f2f2f2"/><path d="M258.89,115.39h-1.28V111c0-.32,0-.64-.05-1a1.94,1.94,0,0,0-.19-.73,1,1,0,0,0-.45-.44,1.9,1.9,0,0,0-.85-.15A2.4,2.4,0,0,0,255,109a7.14,7.14,0,0,0-1.08.68,3.5,3.5,0,0,1,0,.37c0,.14,0,.28,0,.41v4.89h-1.28V111c0-.33,0-.65-.05-1a1.88,1.88,0,0,0-.19-.72,1,1,0,0,0-.45-.45,2,2,0,0,0-.84-.14,2.27,2.27,0,0,0-1.06.26,6.13,6.13,0,0,0-1.06.66v5.7h-1.28v-7.63H249v.84a5.83,5.83,0,0,1,1.2-.78,3.1,3.1,0,0,1,1.28-.28,2.49,2.49,0,0,1,1.32.33,2,2,0,0,1,.81.91,6.49,6.49,0,0,1,1.42-1,3.38,3.38,0,0,1,1.38-.29,2.2,2.2,0,0,1,1.85.77,3.33,3.33,0,0,1,.6,2.13Z" transform="translate(28 -55)" style="fill:#f2f2f2"/><path d="M267.87,111.58a4.31,4.31,0,0,1-.95,2.94,3.6,3.6,0,0,1-5.14,0,5,5,0,0,1,0-5.89,3.57,3.57,0,0,1,5.14,0A4.32,4.32,0,0,1,267.87,111.58Zm-1.32,0a3.54,3.54,0,0,0-.58-2.21,2.18,2.18,0,0,0-3.24,0,4.42,4.42,0,0,0,0,4.38,2.12,2.12,0,0,0,3.23,0A3.46,3.46,0,0,0,266.55,111.58Z" transform="translate(28 -55)" style="fill:#f2f2f2"/><path d="M276.25,115.39H275V111a7.47,7.47,0,0,0-.06-1,2,2,0,0,0-.22-.73,1,1,0,0,0-.5-.42,2,2,0,0,0-.83-.14,2.56,2.56,0,0,0-1.1.26,5.44,5.44,0,0,0-1.1.66v5.7h-1.29v-7.63h1.29v.84a5.34,5.34,0,0,1,1.24-.78,3.4,3.4,0,0,1,1.32-.28,2.36,2.36,0,0,1,1.89.75,3.19,3.19,0,0,1,.65,2.15Z" transform="translate(28 -55)" style="fill:#f2f2f2"/><path d="M285.11,111.71h-5.62a3.21,3.21,0,0,0,.21,1.22,2.22,2.22,0,0,0,.58.86,2.35,2.35,0,0,0,.84.49,3.4,3.4,0,0,0,1.08.17,4.43,4.43,0,0,0,1.57-.31,4,4,0,0,0,1.13-.61H285v1.4a10.26,10.26,0,0,1-1.32.45,5.12,5.12,0,0,1-1.42.19,4.08,4.08,0,0,1-3-1,3.88,3.88,0,0,1-1.07-2.92,4.23,4.23,0,0,1,1-3,3.53,3.53,0,0,1,2.69-1.1,3.08,3.08,0,0,1,2.39.91,3.65,3.65,0,0,1,.83,2.56Zm-1.25-1a2.22,2.22,0,0,0-.51-1.56,1.94,1.94,0,0,0-1.52-.56,2.27,2.27,0,0,0-1.65.61,2.34,2.34,0,0,0-.69,1.51Z" transform="translate(28 -55)" style="fill:#f2f2f2"/><path d="M293.26,115.39H292v-.8a4.59,4.59,0,0,1-1.16.75,3.28,3.28,0,0,1-1.3.26,2.58,2.58,0,0,1-2.17-1,4.67,4.67,0,0,1-.8-2.92,5.15,5.15,0,0,1,.27-1.73,4.29,4.29,0,0,1,.75-1.29,3.08,3.08,0,0,1,1.08-.79,3.22,3.22,0,0,1,1.29-.28,4.21,4.21,0,0,1,1.06.13,5.12,5.12,0,0,1,1,.39v-3.31h1.29ZM292,113.51v-4.38a5.43,5.43,0,0,0-.93-.32,4.13,4.13,0,0,0-.89-.09,2,2,0,0,0-1.69.75,3.33,3.33,0,0,0-.6,2.13,3.77,3.77,0,0,0,.47,2.07,1.65,1.65,0,0,0,1.49.71,2.77,2.77,0,0,0,1.1-.24A4.31,4.31,0,0,0,292,113.51Z" transform="translate(28 -55)" style="fill:#f2f2f2"/><path d="M301.72,115.39h-1.28v-.81l-.46.32a3.08,3.08,0,0,1-.57.33,3.47,3.47,0,0,1-.73.27,4.1,4.1,0,0,1-1,.1,2.42,2.42,0,0,1-1.75-.68,2.31,2.31,0,0,1-.72-1.74,2.42,2.42,0,0,1,.37-1.41,2.46,2.46,0,0,1,1.07-.84,5.44,5.44,0,0,1,1.67-.42c.65-.07,1.35-.13,2.1-.16v-.2a1.61,1.61,0,0,0-.15-.73,1.19,1.19,0,0,0-.44-.45,2.13,2.13,0,0,0-.66-.21,5.21,5.21,0,0,0-.8-.05,5.37,5.37,0,0,0-1.13.13,8.81,8.81,0,0,0-1.28.39h-.07v-1.31c.25-.07.61-.14,1.08-.23a8.57,8.57,0,0,1,1.41-.12,7.17,7.17,0,0,1,1.4.13,2.73,2.73,0,0,1,1,.46,2.07,2.07,0,0,1,.65.81,3,3,0,0,1,.23,1.24Zm-1.28-1.88v-2.12c-.39,0-.85,0-1.38.1a6.38,6.38,0,0,0-1.27.2,2,2,0,0,0-.89.49,1.19,1.19,0,0,0-.34.91,1.24,1.24,0,0,0,.39,1,1.88,1.88,0,0,0,1.21.33,2.82,2.82,0,0,0,1.24-.27A5.24,5.24,0,0,0,300.44,113.51Z" transform="translate(28 -55)" style="fill:#f2f2f2"/><path d="M315.72,107.76l-4.46,10.45h-1.37l1.42-3.19-3-7.26h1.39l2.35,5.66,2.36-5.66Z" transform="translate(28 -55)" style="fill:#f2f2f2"/><path d="M328.45,114.57a4.33,4.33,0,0,1-1.39.63,7,7,0,0,1-1.78.19h-3.74l2.34-10.18h2.93a12.93,12.93,0,0,1,1.65.08,2.44,2.44,0,0,1,1,.35,1.44,1.44,0,0,1,.56.59,1.62,1.62,0,0,1,.19.79,2.57,2.57,0,0,1-.5,1.56,3.22,3.22,0,0,1-1.38,1v.05a2.15,2.15,0,0,1,1.25.69,1.88,1.88,0,0,1,.44,1.3,3.33,3.33,0,0,1-.43,1.65A3.7,3.7,0,0,1,328.45,114.57Zm.14-2.81a1.27,1.27,0,0,0-.13-.62,1.4,1.4,0,0,0-.46-.44,1.75,1.75,0,0,0-.71-.22,8.84,8.84,0,0,0-1.18-.06h-2.06l-.88,3.86H325a9.72,9.72,0,0,0,1.48-.1,3.06,3.06,0,0,0,1-.35,2.17,2.17,0,0,0,.82-.88A2.57,2.57,0,0,0,328.59,111.76Zm.15-4.36a1,1,0,0,0-.1-.47.8.8,0,0,0-.27-.31,1.54,1.54,0,0,0-.72-.24,8.45,8.45,0,0,0-1.11,0H325l-.7,3h1.78a6,6,0,0,0,1-.08,2.79,2.79,0,0,0,.77-.27,1.69,1.69,0,0,0,.65-.7A2,2,0,0,0,328.74,107.4Z" transform="translate(28 -55)" style="fill:#f2f2f2"/><path d="M334.79,104.75l-2.45,10.64h-1.29l2.46-10.64Z" transform="translate(28 -55)" style="fill:#f2f2f2"/><path d="M342.38,110.46a6.09,6.09,0,0,1-.31,2,5.23,5.23,0,0,1-.89,1.65,4.34,4.34,0,0,1-1.37,1.13,3.9,3.9,0,0,1-1.82.4,2.86,2.86,0,0,1-2.12-.77,2.93,2.93,0,0,1-.76-2.15,6,6,0,0,1,.31-2,5.06,5.06,0,0,1,.89-1.65,4.26,4.26,0,0,1,1.4-1.12,3.91,3.91,0,0,1,1.8-.42,2.65,2.65,0,0,1,2.87,2.92Zm-2.09,2.88a4.15,4.15,0,0,0,.57-1.26,5.81,5.81,0,0,0,.19-1.52,2,2,0,0,0-.46-1.45,1.65,1.65,0,0,0-1.29-.49,2.19,2.19,0,0,0-1.19.32,3,3,0,0,0-.91.87,4.27,4.27,0,0,0-.56,1.26,5.4,5.4,0,0,0-.2,1.51,2,2,0,0,0,.46,1.44,1.64,1.64,0,0,0,1.3.51,2.26,2.26,0,0,0,1.18-.31A2.82,2.82,0,0,0,340.29,113.34Z" transform="translate(28 -55)" style="fill:#f2f2f2"/><path d="M346.69,115.56a4.25,4.25,0,0,1-1.29-.17,2.5,2.5,0,0,1-1-.54,2.27,2.27,0,0,1-.62-.89,3.26,3.26,0,0,1-.22-1.26,5.87,5.87,0,0,1,.33-2,5.23,5.23,0,0,1,.95-1.64,4.32,4.32,0,0,1,1.47-1.08,4.48,4.48,0,0,1,1.89-.4,4.26,4.26,0,0,1,1.26.18,5.61,5.61,0,0,1,1,.44l-.28,1.39h-.07l-.34-.29a2.55,2.55,0,0,0-.49-.3,3.21,3.21,0,0,0-.62-.25,2.68,2.68,0,0,0-.78-.1,2.57,2.57,0,0,0-2.16,1.12,4.4,4.4,0,0,0-.84,2.72,2,2,0,0,0,.5,1.48,1.84,1.84,0,0,0,1.41.52,3.24,3.24,0,0,0,.86-.12,4.33,4.33,0,0,0,.73-.27,5.18,5.18,0,0,0,.62-.33l.42-.27h.07l-.27,1.41a11.7,11.7,0,0,1-1.26.46A4.72,4.72,0,0,1,346.69,115.56Z" transform="translate(28 -55)" style="fill:#f2f2f2"/><path d="M357.68,115.39h-1.55L353.68,112l-1.1.9-.56,2.46h-1.3l2.46-10.64h1.3l-1.58,6.83,4.47-3.82h1.69l-4.36,3.61Z" transform="translate(28 -55)" style="fill:#f2f2f2"/><path d="M362.2,115.56a4.13,4.13,0,0,1-1.28-.17,2.47,2.47,0,0,1-1-.54,2.27,2.27,0,0,1-.62-.89,3.26,3.26,0,0,1-.22-1.26,5.87,5.87,0,0,1,.33-2,5.23,5.23,0,0,1,.95-1.64,4.32,4.32,0,0,1,1.47-1.08,4.48,4.48,0,0,1,1.89-.4,4.26,4.26,0,0,1,1.26.18,5.61,5.61,0,0,1,1,.44l-.28,1.39h-.07l-.34-.29a2.55,2.55,0,0,0-.49-.3,3.21,3.21,0,0,0-.62-.25,2.68,2.68,0,0,0-.78-.1,2.58,2.58,0,0,0-2.16,1.12,4.4,4.4,0,0,0-.84,2.72A2,2,0,0,0,361,114a1.84,1.84,0,0,0,1.41.52,3.24,3.24,0,0,0,.86-.12,4,4,0,0,0,.73-.27,5.18,5.18,0,0,0,.62-.33l.42-.27h.07l-.27,1.41a11,11,0,0,1-1.26.46A4.72,4.72,0,0,1,362.2,115.56Z" transform="translate(28 -55)" style="fill:#f2f2f2"/><path d="M373.83,109.5a4.21,4.21,0,0,1,0,.44,3.21,3.21,0,0,1-.09.5l-1.14,5h-1.28l1-4.35q.07-.36.12-.63a3.27,3.27,0,0,0,0-.53,1.18,1.18,0,0,0-.29-.87,1.43,1.43,0,0,0-1-.29A2.82,2.82,0,0,0,370,109a9.19,9.19,0,0,0-1.22.68l-1.31,5.7h-1.29l2.45-10.64h1.29L369,108.6a7.57,7.57,0,0,1,1.37-.78,3.4,3.4,0,0,1,1.32-.28,2.21,2.21,0,0,1,1.55.51A1.82,1.82,0,0,1,373.83,109.5Z" transform="translate(28 -55)" style="fill:#f2f2f2"/><path d="M379.89,114.58c-.13.07-.29.17-.5.31a5.07,5.07,0,0,1-.65.34,4,4,0,0,1-.78.27,4.25,4.25,0,0,1-1,.1,2.05,2.05,0,0,1-1.48-.53,1.79,1.79,0,0,1-.57-1.38,2.87,2.87,0,0,1,.4-1.54,3.09,3.09,0,0,1,1.19-1,6.57,6.57,0,0,1,1.86-.56,19.38,19.38,0,0,1,2.49-.22c0-.12.05-.23.07-.33a1.36,1.36,0,0,0,0-.29,1,1,0,0,0-.13-.53.91.91,0,0,0-.37-.33,1.84,1.84,0,0,0-.56-.17,5,5,0,0,0-.7,0,5.31,5.31,0,0,0-1.33.19,10,10,0,0,0-1.21.37h-.07l.26-1.29c.26-.06.64-.14,1.14-.23a8.11,8.11,0,0,1,1.44-.13,4,4,0,0,1,2.13.45,1.51,1.51,0,0,1,.71,1.4,2.8,2.8,0,0,1,0,.4,3.91,3.91,0,0,1-.07.39L381,115.39H379.7Zm.74-3.21a16.14,16.14,0,0,0-1.87.16,5.76,5.76,0,0,0-1.35.34,2,2,0,0,0-.84.61,1.58,1.58,0,0,0-.28,1,.92.92,0,0,0,.33.76,1.71,1.71,0,0,0,1,.26,3.32,3.32,0,0,0,1.27-.28,7,7,0,0,0,1.2-.67Z" transform="translate(28 -55)" style="fill:#f2f2f2"/><path d="M386.51,107.76l-1.76,7.63h-1.29l1.77-7.63Zm.7-2.62-.31,1.34h-1.45l.3-1.34Z" transform="translate(28 -55)" style="fill:#f2f2f2"/><path d="M394.94,109.5a4.21,4.21,0,0,1,0,.44,3.21,3.21,0,0,1-.09.5l-1.14,5H392.4l1-4.35q.08-.36.12-.63a3.27,3.27,0,0,0,.05-.53,1.18,1.18,0,0,0-.29-.87,1.43,1.43,0,0,0-1-.29,2.82,2.82,0,0,0-1.15.29,9.86,9.86,0,0,0-1.22.68l-1.31,5.7h-1.29l1.76-7.63h1.29l-.2.84a7.92,7.92,0,0,1,1.37-.78,3.4,3.4,0,0,1,1.32-.28,2.21,2.21,0,0,1,1.55.51A1.85,1.85,0,0,1,394.94,109.5Z" transform="translate(28 -55)" style="fill:#f2f2f2"/></svg>