<svg id="Capa_1" data-name="Capa 1" xmlns="http://www.w3.org/2000/svg" viewBox="0 0 684 86"><title>mapa3</title><rect width="684" height="86" style="fill:#fff"/><rect x="397" width="161" height="86" style="fill:#aec0ce"/><rect x="98" width="161" height="74" style="fill:#aec0ce"/><path d="M126,243.12a10.51,10.51,0,0,1-1.2.34,6.88,6.88,0,0,1-1.41.14,3.48,3.48,0,0,1-2.32-.72,2.34,2.34,0,0,1-.85-1.88,2.73,2.73,0,0,1,.24-1.18,3.33,3.33,0,0,1,.64-.94,4.77,4.77,0,0,1,.93-.77c.36-.23.69-.44,1-.62V236h1.23V238c-.28.15-.59.34-1,.56a6.85,6.85,0,0,0-.86.6,2.68,2.68,0,0,0-.6.75,1.9,1.9,0,0,0-.23,1,1.33,1.33,0,0,0,.52,1.15,2.27,2.27,0,0,0,1.35.38,4.34,4.34,0,0,0,1.38-.23,4.64,4.64,0,0,0,1.06-.48H126Zm-1.68-8.46H123v-1.45h1.4Z" transform="translate(28 -212)" style="fill:#f2f2f2"/><path d="M137.57,245.89a5.72,5.72,0,0,1-.81.14,7.37,7.37,0,0,1-.82.05,2.76,2.76,0,0,1-1.91-.65,2.59,2.59,0,0,1-.78-1.87c-.11,0-.21,0-.32,0h-.29a5.34,5.34,0,0,1-2-.35,4.11,4.11,0,0,1-1.49-1,4.71,4.71,0,0,1-.95-1.67,7,7,0,0,1-.33-2.24,7.08,7.08,0,0,1,.33-2.24,4.84,4.84,0,0,1,1-1.69,3.92,3.92,0,0,1,1.49-1,5.17,5.17,0,0,1,1.95-.36,5.11,5.11,0,0,1,2,.36,4.17,4.17,0,0,1,1.48,1,4.6,4.6,0,0,1,.95,1.68,6.82,6.82,0,0,1,.34,2.25,6,6,0,0,1-.77,3.14,4.11,4.11,0,0,1-2,1.79,2,2,0,0,0,.37,1.21,1.49,1.49,0,0,0,1.24.43,3.65,3.65,0,0,0,.67-.08,3.59,3.59,0,0,0,.55-.16h.18ZM136,238.31a4.67,4.67,0,0,0-.89-3.06,3.27,3.27,0,0,0-4.86,0,5.68,5.68,0,0,0,0,6.12,3.29,3.29,0,0,0,4.84,0A4.62,4.62,0,0,0,136,238.31Z" transform="translate(28 -212)" style="fill:#f2f2f2"/><path d="M145.74,243.39h-1.29v-.85a5.67,5.67,0,0,1-1.24.79,3.13,3.13,0,0,1-1.31.27,2.43,2.43,0,0,1-1.88-.73,3.14,3.14,0,0,1-.67-2.16v-5h1.29v4.34a9.37,9.37,0,0,0,.05,1,1.92,1.92,0,0,0,.24.71,1,1,0,0,0,.48.43,2.08,2.08,0,0,0,.85.14,2.78,2.78,0,0,0,1.09-.26,4.94,4.94,0,0,0,1.1-.66v-5.7h1.29Z" transform="translate(28 -212)" style="fill:#f2f2f2"/><path d="M154.66,239.71H149a3.2,3.2,0,0,0,.22,1.22,2.22,2.22,0,0,0,.58.86,2.27,2.27,0,0,0,.84.49,3.4,3.4,0,0,0,1.08.17,4.43,4.43,0,0,0,1.57-.31,4,4,0,0,0,1.12-.61h.07v1.4a9.9,9.9,0,0,1-1.33.45,5.07,5.07,0,0,1-1.42.19,4.07,4.07,0,0,1-3-1,3.84,3.84,0,0,1-1.07-2.92,4.23,4.23,0,0,1,1-3,3.51,3.51,0,0,1,2.69-1.1,3,3,0,0,1,2.38.91,3.61,3.61,0,0,1,.84,2.56Zm-1.25-1a2.22,2.22,0,0,0-.51-1.56,2,2,0,0,0-1.53-.56,2.24,2.24,0,0,0-1.64.61,2.4,2.4,0,0,0-.7,1.51Zm.16-6.79-1.87,2.56h-1l1.23-2.56Z" transform="translate(28 -212)" style="fill:#f2f2f2"/><path d="M167.92,239.71H162.3a3.21,3.21,0,0,0,.21,1.22,2.22,2.22,0,0,0,.58.86,2.35,2.35,0,0,0,.84.49,3.4,3.4,0,0,0,1.08.17,4.43,4.43,0,0,0,1.57-.31,3.81,3.81,0,0,0,1.12-.61h.07v1.4a10.26,10.26,0,0,1-1.32.45,5.2,5.2,0,0,1-1.43.19,4.07,4.07,0,0,1-3-1,3.88,3.88,0,0,1-1.07-2.92,4.23,4.23,0,0,1,1-3,3.51,3.51,0,0,1,2.69-1.1,3,3,0,0,1,2.38.91,3.61,3.61,0,0,1,.84,2.56Zm-1.25-1a2.22,2.22,0,0,0-.51-1.56,2,2,0,0,0-1.53-.56,2.26,2.26,0,0,0-1.64.61,2.34,2.34,0,0,0-.69,1.51Z" transform="translate(28 -212)" style="fill:#f2f2f2"/><path d="M175.33,241.19a2.08,2.08,0,0,1-.87,1.72,3.8,3.8,0,0,1-2.36.67,5.89,5.89,0,0,1-1.56-.2,7.34,7.34,0,0,1-1.18-.45v-1.44h.07a4.88,4.88,0,0,0,1.35.73,4.19,4.19,0,0,0,1.43.27,2.68,2.68,0,0,0,1.32-.27.93.93,0,0,0,.48-.87.85.85,0,0,0-.26-.68,2.36,2.36,0,0,0-1-.4l-.72-.14a7.35,7.35,0,0,1-.8-.18,2.66,2.66,0,0,1-1.43-.78,1.94,1.94,0,0,1-.42-1.27,2.1,2.1,0,0,1,.2-.89,2.15,2.15,0,0,1,.59-.74,2.63,2.63,0,0,1,1-.51,4.27,4.27,0,0,1,1.33-.19,6.06,6.06,0,0,1,1.38.17,5,5,0,0,1,1.16.41v1.37H175a4.5,4.5,0,0,0-1.2-.61,4,4,0,0,0-1.38-.25,2.41,2.41,0,0,0-1.19.27.88.88,0,0,0-.49.8.85.85,0,0,0,.3.71,2.27,2.27,0,0,0,.93.39l.79.17c.3.05.54.1.74.15a2.66,2.66,0,0,1,1.38.7A1.87,1.87,0,0,1,175.33,241.19Z" transform="translate(28 -212)" style="fill:#f2f2f2"/><path d="M116.37,262.57a4.29,4.29,0,0,1-1.38.63,7.06,7.06,0,0,1-1.79.19h-3.73l2.34-10.18h2.92a13,13,0,0,1,1.66.08,2.45,2.45,0,0,1,1,.35,1.47,1.47,0,0,1,.57.59,1.74,1.74,0,0,1,.19.79,2.57,2.57,0,0,1-.5,1.56,3.35,3.35,0,0,1-1.38,1.05v.05a2.28,2.28,0,0,1,1.25.69,1.92,1.92,0,0,1,.43,1.3,3.33,3.33,0,0,1-.43,1.65A3.7,3.7,0,0,1,116.37,262.57Zm.15-2.81a1.39,1.39,0,0,0-.13-.62,1.34,1.34,0,0,0-.47-.44,1.65,1.65,0,0,0-.7-.22,8.94,8.94,0,0,0-1.18-.06H112l-.89,3.86H113a9.57,9.57,0,0,0,1.47-.1,3.13,3.13,0,0,0,1-.35,2.17,2.17,0,0,0,.82-.88A2.7,2.7,0,0,0,116.52,259.76Zm.15-4.36a1.09,1.09,0,0,0-.1-.47.8.8,0,0,0-.27-.31,1.54,1.54,0,0,0-.72-.24,8.64,8.64,0,0,0-1.11,0h-1.55l-.69,3H114a6.16,6.16,0,0,0,1-.08,2.72,2.72,0,0,0,.76-.27,1.69,1.69,0,0,0,.65-.7A2,2,0,0,0,116.67,255.4Z" transform="translate(28 -212)" style="fill:#f2f2f2"/><path d="M122.72,252.75l-2.46,10.64H119l2.46-10.64Z" transform="translate(28 -212)" style="fill:#f2f2f2"/><path d="M130.31,258.46a6.09,6.09,0,0,1-.31,2,5.23,5.23,0,0,1-.89,1.65,4.49,4.49,0,0,1-1.38,1.13,3.86,3.86,0,0,1-1.81.4,2.88,2.88,0,0,1-2.13-.77,2.93,2.93,0,0,1-.76-2.15,6,6,0,0,1,.31-1.95,5.27,5.27,0,0,1,.9-1.65,4.22,4.22,0,0,1,1.39-1.12,3.91,3.91,0,0,1,1.8-.42,2.67,2.67,0,0,1,2.88,2.92Zm-2.09,2.88a4.13,4.13,0,0,0,.56-1.26,5.81,5.81,0,0,0,.2-1.52,2,2,0,0,0-.46-1.45,1.68,1.68,0,0,0-1.29-.49,2.19,2.19,0,0,0-1.19.32,2.89,2.89,0,0,0-.91.87,4,4,0,0,0-.57,1.26,5.79,5.79,0,0,0-.2,1.51,2.09,2.09,0,0,0,.46,1.44,1.67,1.67,0,0,0,1.3.51,2.3,2.3,0,0,0,1.19-.31A2.82,2.82,0,0,0,128.22,261.34Z" transform="translate(28 -212)" style="fill:#f2f2f2"/><path d="M134.61,263.56a4.18,4.18,0,0,1-1.28-.17,2.54,2.54,0,0,1-1-.54,2.41,2.41,0,0,1-.62-.89,3.46,3.46,0,0,1-.22-1.26,5.87,5.87,0,0,1,.34-2,5,5,0,0,1,1-1.64,4.32,4.32,0,0,1,1.47-1.08,4.42,4.42,0,0,1,1.89-.4,4.36,4.36,0,0,1,1.26.18,5.91,5.91,0,0,1,1,.44l-.28,1.39h-.08l-.34-.29a2.46,2.46,0,0,0-.48-.3,3.6,3.6,0,0,0-.63-.25,2.73,2.73,0,0,0-2.94,1,4.4,4.4,0,0,0-.84,2.72,2.07,2.07,0,0,0,.5,1.48,1.84,1.84,0,0,0,1.41.52,3.13,3.13,0,0,0,.86-.12,4,4,0,0,0,.73-.27,4.65,4.65,0,0,0,.63-.33l.41-.27h.08l-.27,1.41a11.7,11.7,0,0,1-1.26.46A4.74,4.74,0,0,1,134.61,263.56Z" transform="translate(28 -212)" style="fill:#f2f2f2"/><path d="M145.61,263.39h-1.56L141.61,260l-1.11.9-.56,2.46h-1.3l2.46-10.64h1.3l-1.58,6.83,4.47-3.82H147l-4.35,3.61Z" transform="translate(28 -212)" style="fill:#f2f2f2"/><path d="M150.12,263.56a4.18,4.18,0,0,1-1.28-.17,2.43,2.43,0,0,1-1-.54,2.32,2.32,0,0,1-.63-.89,3.46,3.46,0,0,1-.22-1.26,5.87,5.87,0,0,1,.34-2,5,5,0,0,1,.95-1.64,4.32,4.32,0,0,1,1.47-1.08,4.42,4.42,0,0,1,1.89-.4,4.36,4.36,0,0,1,1.26.18,5.91,5.91,0,0,1,1,.44l-.28,1.39h-.08l-.34-.29a2.46,2.46,0,0,0-.48-.3,3.82,3.82,0,0,0-.62-.25,2.68,2.68,0,0,0-.78-.1,2.58,2.58,0,0,0-2.17,1.12,4.4,4.4,0,0,0-.83,2.72,2.07,2.07,0,0,0,.49,1.48,1.84,1.84,0,0,0,1.41.52,3.13,3.13,0,0,0,.86-.12,4.47,4.47,0,0,0,.74-.27,5.18,5.18,0,0,0,.62-.33l.41-.27H153l-.27,1.41a11.7,11.7,0,0,1-1.26.46A4.74,4.74,0,0,1,150.12,263.56Z" transform="translate(28 -212)" style="fill:#f2f2f2"/><path d="M161.76,257.5a4.21,4.21,0,0,1,0,.44,3.21,3.21,0,0,1-.09.5l-1.15,4.95h-1.28l1-4.35c.06-.24.1-.45.13-.63a3.23,3.23,0,0,0,0-.53,1.18,1.18,0,0,0-.28-.87,1.44,1.44,0,0,0-1-.29,2.82,2.82,0,0,0-1.14.29,9.29,9.29,0,0,0-1.23.68l-1.31,5.7h-1.28l2.45-10.64h1.28l-.88,3.86a6.81,6.81,0,0,1,1.37-.79,3.15,3.15,0,0,1,1.31-.28,2.22,2.22,0,0,1,1.56.51A1.85,1.85,0,0,1,161.76,257.5Z" transform="translate(28 -212)" style="fill:#f2f2f2"/><path d="M167.81,262.58l-.5.31a4.48,4.48,0,0,1-.65.34,4.09,4.09,0,0,1-.77.27,4.28,4.28,0,0,1-1,.1,2,2,0,0,1-1.47-.53,1.79,1.79,0,0,1-.57-1.38,2.78,2.78,0,0,1,.4-1.54,3,3,0,0,1,1.19-1,6.38,6.38,0,0,1,1.86-.56,19,19,0,0,1,2.48-.22,2.46,2.46,0,0,0,.07-.33,1.36,1.36,0,0,0,0-.29,1,1,0,0,0-.13-.53.85.85,0,0,0-.37-.33,1.77,1.77,0,0,0-.55-.17,5.14,5.14,0,0,0-2,.15,9.5,9.5,0,0,0-1.21.37h-.07l.25-1.29c.26-.06.64-.14,1.14-.23a9.17,9.17,0,0,1,1.44-.13,4.08,4.08,0,0,1,2.14.45,1.53,1.53,0,0,1,.71,1.4,2.8,2.8,0,0,1,0,.4c0,.14,0,.27-.07.39l-1.2,5.18h-1.27Zm.75-3.21a16,16,0,0,0-1.87.16,5.51,5.51,0,0,0-1.35.34,2,2,0,0,0-.84.61,1.59,1.59,0,0,0-.29,1,.9.9,0,0,0,.34.76,1.67,1.67,0,0,0,1,.26,3.28,3.28,0,0,0,1.27-.28,7.48,7.48,0,0,0,1.21-.67Z" transform="translate(28 -212)" style="fill:#f2f2f2"/><path d="M174.44,255.76l-1.77,7.63h-1.28l1.76-7.63Zm.69-2.62-.3,1.34h-1.46l.31-1.34Z" transform="translate(28 -212)" style="fill:#f2f2f2"/><path d="M182.87,257.5a2.73,2.73,0,0,1,0,.44,3.27,3.27,0,0,1-.08.5l-1.14,4.95h-1.28l1-4.35c.06-.24.1-.45.13-.63a3.23,3.23,0,0,0,0-.53,1.18,1.18,0,0,0-.28-.87,1.43,1.43,0,0,0-1-.29A2.82,2.82,0,0,0,179,257a8.6,8.6,0,0,0-1.22.68l-1.32,5.7h-1.28l1.76-7.63h1.28l-.19.84a7.57,7.57,0,0,1,1.37-.78,3.15,3.15,0,0,1,1.31-.28,2.22,2.22,0,0,1,1.56.51A1.85,1.85,0,0,1,182.87,257.5Z" transform="translate(28 -212)" style="fill:#f2f2f2"/><path d="M190.56,255.61a2.84,2.84,0,0,1-.24,1.19,3.13,3.13,0,0,1-.63.92,5.46,5.46,0,0,1-.88.74c-.33.22-.68.44-1.06.66v1.54h-1.22v-2.09l1-.55a4.25,4.25,0,0,0,.84-.61,3.13,3.13,0,0,0,.62-.73,1.91,1.91,0,0,0,.22-1,1.34,1.34,0,0,0-.52-1.15,2.2,2.2,0,0,0-1.35-.38,4,4,0,0,0-1.4.23,5.29,5.29,0,0,0-1.05.47h-.06v-1.39a7,7,0,0,1,1.21-.34,7.7,7.7,0,0,1,1.39-.14,3.53,3.53,0,0,1,2.32.71A2.35,2.35,0,0,1,190.56,255.61Zm-2.7,7.78h-1.39V262h1.39Z" transform="translate(28 -212)" style="fill:#f2f2f2"/><path d="M398.26,240.39h-6.44V230.21h1.35v9h5.09Z" transform="translate(28 -212)" style="fill:#f2f2f2"/><path d="M405.44,240.39h-1.28v-.81l-.46.32a3,3,0,0,1-.56.33,3.56,3.56,0,0,1-.74.27,4.1,4.1,0,0,1-1,.1,2.42,2.42,0,0,1-1.75-.68,2.31,2.31,0,0,1-.72-1.74,2.42,2.42,0,0,1,.38-1.41,2.37,2.37,0,0,1,1.06-.84,5.44,5.44,0,0,1,1.67-.42c.65-.07,1.35-.13,2.1-.16v-.2a1.61,1.61,0,0,0-.15-.73,1.12,1.12,0,0,0-.44-.45,2,2,0,0,0-.66-.21,5.13,5.13,0,0,0-.8,0,5.37,5.37,0,0,0-1.13.13,8.81,8.81,0,0,0-1.28.39h-.07v-1.31c.25-.07.61-.14,1.09-.23a8.36,8.36,0,0,1,1.4-.12,6.37,6.37,0,0,1,1.4.14,2.65,2.65,0,0,1,1,.45,2,2,0,0,1,.65.81,2.86,2.86,0,0,1,.23,1.24Zm-1.28-1.88v-2.12c-.39,0-.85.05-1.38.1a6.39,6.39,0,0,0-1.26.2,2,2,0,0,0-.9.49,1.19,1.19,0,0,0-.34.91,1.21,1.21,0,0,0,.4,1,1.83,1.83,0,0,0,1.2.33,2.79,2.79,0,0,0,1.24-.27A5,5,0,0,0,404.16,238.51Z" transform="translate(28 -212)" style="fill:#f2f2f2"/><path d="M418.48,239.91a7.31,7.31,0,0,1-1.22.48,4,4,0,0,1-1.22.17,4.57,4.57,0,0,1-1.52-.24,3,3,0,0,1-1.18-.74,3.25,3.25,0,0,1-.78-1.24,5.21,5.21,0,0,1-.27-1.76,4.07,4.07,0,0,1,1-2.94,3.59,3.59,0,0,1,2.72-1.06,4.65,4.65,0,0,1,1.28.18,7.79,7.79,0,0,1,1.16.45v1.43h-.07a4.81,4.81,0,0,0-1.21-.7,3.21,3.21,0,0,0-1.22-.25,2.18,2.18,0,0,0-1.73.74,3.23,3.23,0,0,0-.63,2.15,3.28,3.28,0,0,0,.62,2.13,2.15,2.15,0,0,0,1.74.74,3.64,3.64,0,0,0,.79-.1,3.69,3.69,0,0,0,.73-.27l.53-.3a4.22,4.22,0,0,0,.38-.28h.07Z" transform="translate(28 -212)" style="fill:#f2f2f2"/><path d="M424.89,234.16h-.06a4.15,4.15,0,0,0-.56-.1,5.85,5.85,0,0,0-.64,0,2.72,2.72,0,0,0-1.15.26,5.28,5.28,0,0,0-1.06.68v5.42h-1.29v-7.63h1.29v1.12a6.24,6.24,0,0,1,1.35-.87,2.92,2.92,0,0,1,1.19-.25h.48l.45.07Z" transform="translate(28 -212)" style="fill:#f2f2f2"/><path d="M427.49,231.48H426v-1.34h1.45Zm-.09,8.91h-1.28v-7.63h1.28Z" transform="translate(28 -212)" style="fill:#f2f2f2"/><path d="M436.67,236.48a5.09,5.09,0,0,1-.27,1.7,3.76,3.76,0,0,1-.75,1.3,3.2,3.2,0,0,1-1.07.79,3.11,3.11,0,0,1-1.29.27,4,4,0,0,1-1.08-.13,4.22,4.22,0,0,1-1-.4v3.2H430V232.76h1.28v.8a5.23,5.23,0,0,1,1.15-.73,3.33,3.33,0,0,1,1.37-.29,2.52,2.52,0,0,1,2.15,1.05A4.79,4.79,0,0,1,436.67,236.48Zm-1.33,0a3.73,3.73,0,0,0-.47-2.07,1.66,1.66,0,0,0-1.45-.68,2.86,2.86,0,0,0-1.12.24,5.09,5.09,0,0,0-1.07.63V239a5,5,0,0,0,.94.34,4,4,0,0,0,.89.09,2.07,2.07,0,0,0,1.68-.73A3.29,3.29,0,0,0,435.34,236.52Z" transform="translate(28 -212)" style="fill:#f2f2f2"/><path d="M442.63,240.32a5.51,5.51,0,0,1-.79.16,5.38,5.38,0,0,1-.76.06,2.37,2.37,0,0,1-1.78-.63,2.84,2.84,0,0,1-.6-2v-4.06h-.87v-1.08h.87v-2.2H440v2.2h2.65v1.08H440v3.48c0,.4,0,.71,0,.94a1.59,1.59,0,0,0,.19.63,1,1,0,0,0,.41.4,2.09,2.09,0,0,0,.81.12,2.48,2.48,0,0,0,.65-.09,4.82,4.82,0,0,0,.5-.15h.06Z" transform="translate(28 -212)" style="fill:#f2f2f2"/><path d="M450.69,236.58a4.26,4.26,0,0,1-.95,2.94,3.6,3.6,0,0,1-5.14,0,5,5,0,0,1,0-5.89,3.57,3.57,0,0,1,5.14,0A4.27,4.27,0,0,1,450.69,236.58Zm-1.32,0a3.54,3.54,0,0,0-.58-2.21,2.18,2.18,0,0,0-3.24,0,4.42,4.42,0,0,0,0,4.38,2.12,2.12,0,0,0,3.23,0A3.46,3.46,0,0,0,449.37,236.58Z" transform="translate(28 -212)" style="fill:#f2f2f2"/><path d="M463.83,240.39h-1.29V236c0-.32,0-.64,0-.95a2.14,2.14,0,0,0-.19-.73,1.12,1.12,0,0,0-.45-.44,1.93,1.93,0,0,0-.85-.15,2.4,2.4,0,0,0-1.08.27,7.14,7.14,0,0,0-1.08.68c0,.11,0,.23,0,.37s0,.28,0,.41v4.89h-1.29V236c0-.33,0-.65,0-1a2.08,2.08,0,0,0-.19-.72,1.08,1.08,0,0,0-.45-.45,2.11,2.11,0,0,0-.85-.14A2.33,2.33,0,0,0,455,234a6.07,6.07,0,0,0-1,.66v5.7h-1.29v-7.63H454v.84a5.83,5.83,0,0,1,1.2-.78,3.06,3.06,0,0,1,1.27-.28,2.55,2.55,0,0,1,1.33.33,2,2,0,0,1,.81.91,6.49,6.49,0,0,1,1.42-.95,3.33,3.33,0,0,1,1.37-.29,2.22,2.22,0,0,1,1.86.77,3.33,3.33,0,0,1,.6,2.13Z" transform="translate(28 -212)" style="fill:#f2f2f2"/><path d="M472.81,236.58a4.27,4.27,0,0,1-1,2.94,3.6,3.6,0,0,1-5.14,0,5,5,0,0,1,0-5.89,3.57,3.57,0,0,1,5.14,0A4.28,4.28,0,0,1,472.81,236.58Zm-1.33,0a3.48,3.48,0,0,0-.58-2.21,2,2,0,0,0-1.61-.72,2,2,0,0,0-1.63.72,3.54,3.54,0,0,0-.57,2.21,3.44,3.44,0,0,0,.58,2.17,1.91,1.91,0,0,0,1.62.75,2,2,0,0,0,1.61-.74A3.46,3.46,0,0,0,471.48,236.58Z" transform="translate(28 -212)" style="fill:#f2f2f2"/><path d="M481.18,240.39H479.9V236a7.47,7.47,0,0,0-.06-1,2,2,0,0,0-.23-.73,1,1,0,0,0-.49-.42,2,2,0,0,0-.84-.14,2.59,2.59,0,0,0-1.1.26,5.44,5.44,0,0,0-1.1.66v5.7H474.8v-7.63h1.28v.84a5.4,5.4,0,0,1,1.25-.78,3.36,3.36,0,0,1,1.32-.28,2.35,2.35,0,0,1,1.88.75,3.14,3.14,0,0,1,.65,2.15Z" transform="translate(28 -212)" style="fill:#f2f2f2"/><path d="M490.05,236.71h-5.63a3.21,3.21,0,0,0,.21,1.22,2.46,2.46,0,0,0,.58.86,2.31,2.31,0,0,0,.85.49,3.31,3.31,0,0,0,1.08.17,4.43,4.43,0,0,0,1.57-.31,4,4,0,0,0,1.12-.61h.07v1.4a11,11,0,0,1-1.33.45,5.07,5.07,0,0,1-1.42.19,4.08,4.08,0,0,1-3-1,3.88,3.88,0,0,1-1.06-2.92,4.23,4.23,0,0,1,1-3,3.51,3.51,0,0,1,2.69-1.1,3.06,3.06,0,0,1,2.38.91,3.61,3.61,0,0,1,.84,2.56Zm-1.25-1a2.32,2.32,0,0,0-.51-1.56,2,2,0,0,0-1.53-.56,2.23,2.23,0,0,0-1.64.61,2.4,2.4,0,0,0-.7,1.51Z" transform="translate(28 -212)" style="fill:#f2f2f2"/><path d="M498.19,240.39H496.9v-.8a4.54,4.54,0,0,1-1.15.75,3.33,3.33,0,0,1-1.31.26,2.6,2.6,0,0,1-2.17-1,4.74,4.74,0,0,1-.8-2.92,4.91,4.91,0,0,1,.28-1.73,3.91,3.91,0,0,1,.75-1.29,3.08,3.08,0,0,1,1.08-.79,3,3,0,0,1,1.28-.28,4.29,4.29,0,0,1,1.07.13,5,5,0,0,1,1,.39v-3.31h1.29Zm-1.29-1.88v-4.38a4.29,4.29,0,0,0-.93-.32,4.13,4.13,0,0,0-.89-.09,2,2,0,0,0-1.68.75,3.33,3.33,0,0,0-.6,2.13,3.78,3.78,0,0,0,.46,2.07,1.66,1.66,0,0,0,1.49.71,2.78,2.78,0,0,0,1.11-.24A4.44,4.44,0,0,0,496.9,238.51Z" transform="translate(28 -212)" style="fill:#f2f2f2"/><path d="M506.65,240.39h-1.27v-.81l-.47.32a3,3,0,0,1-.56.33,3.56,3.56,0,0,1-.74.27,4,4,0,0,1-1,.1,2.44,2.44,0,0,1-1.75-.68,2.3,2.3,0,0,1-.71-1.74,2.22,2.22,0,0,1,1.43-2.25,5.51,5.51,0,0,1,1.68-.42c.65-.07,1.35-.13,2.1-.16v-.2a1.61,1.61,0,0,0-.16-.73,1.12,1.12,0,0,0-.44-.45,2,2,0,0,0-.66-.21,5.13,5.13,0,0,0-.8,0,5.28,5.28,0,0,0-1.12.13,8.56,8.56,0,0,0-1.29.39h-.07v-1.31c.25-.07.62-.14,1.09-.23a8.36,8.36,0,0,1,1.4-.12,6.46,6.46,0,0,1,1.41.14,2.67,2.67,0,0,1,1,.45,2,2,0,0,1,.66.81,3,3,0,0,1,.22,1.24Zm-1.27-1.88v-2.12c-.4,0-.86.05-1.39.1a6.39,6.39,0,0,0-1.26.2,2,2,0,0,0-.9.49,1.23,1.23,0,0,0-.34.91,1.21,1.21,0,0,0,.4,1,1.86,1.86,0,0,0,1.21.33,2.85,2.85,0,0,0,1.24-.27A5.24,5.24,0,0,0,505.38,238.51Z" transform="translate(28 -212)" style="fill:#f2f2f2"/><path d="M419.77,259.91a7.31,7.31,0,0,1-1.22.48,4.07,4.07,0,0,1-1.23.17,4.55,4.55,0,0,1-1.51-.24,3.11,3.11,0,0,1-1.19-.74,3.23,3.23,0,0,1-.77-1.24,5.21,5.21,0,0,1-.27-1.76,4.07,4.07,0,0,1,1-2.94,3.59,3.59,0,0,1,2.71-1.06,4.67,4.67,0,0,1,1.29.18,8.25,8.25,0,0,1,1.16.45v1.43h-.07a4.81,4.81,0,0,0-1.21-.7,3.21,3.21,0,0,0-1.22-.25,2.17,2.17,0,0,0-1.73.74,3.23,3.23,0,0,0-.63,2.15,3.28,3.28,0,0,0,.62,2.13,2.15,2.15,0,0,0,1.74.74,3.64,3.64,0,0,0,.79-.1,3.69,3.69,0,0,0,.73-.27l.52-.3a3.39,3.39,0,0,0,.39-.28h.07Z" transform="translate(28 -212)" style="fill:#f2f2f2"/><path d="M427.93,256.58a4.27,4.27,0,0,1-1,2.94,3.6,3.6,0,0,1-5.14,0,5,5,0,0,1,0-5.89,3.57,3.57,0,0,1,5.14,0A4.28,4.28,0,0,1,427.93,256.58Zm-1.33,0a3.48,3.48,0,0,0-.58-2.21,2.18,2.18,0,0,0-3.24,0,3.54,3.54,0,0,0-.57,2.21,3.44,3.44,0,0,0,.58,2.17,1.91,1.91,0,0,0,1.62.75,2,2,0,0,0,1.61-.74A3.46,3.46,0,0,0,426.6,256.58Z" transform="translate(28 -212)" style="fill:#f2f2f2"/><path d="M441.06,260.39h-1.29V256c0-.32,0-.64,0-1a1.94,1.94,0,0,0-.19-.73,1,1,0,0,0-.45-.44,1.93,1.93,0,0,0-.85-.15,2.4,2.4,0,0,0-1.08.27,7.14,7.14,0,0,0-1.08.68,3.5,3.5,0,0,1,0,.37c0,.14,0,.28,0,.41v4.89h-1.29V256c0-.33,0-.65,0-1a1.88,1.88,0,0,0-.19-.72,1,1,0,0,0-.45-.45,2.11,2.11,0,0,0-.85-.14,2.26,2.26,0,0,0-1.05.26,5.78,5.78,0,0,0-1.06.66v5.7h-1.28v-7.63h1.28v.84a5.83,5.83,0,0,1,1.2-.78,3.07,3.07,0,0,1,1.28-.28,2.49,2.49,0,0,1,1.32.33,2,2,0,0,1,.81.91,6.49,6.49,0,0,1,1.42-.95,3.37,3.37,0,0,1,1.37-.29,2.22,2.22,0,0,1,1.86.77,3.33,3.33,0,0,1,.6,2.13Z" transform="translate(28 -212)" style="fill:#f2f2f2"/><path d="M450,256.58a4.27,4.27,0,0,1-1,2.94,3.59,3.59,0,0,1-5.13,0,5,5,0,0,1,0-5.89,3.56,3.56,0,0,1,5.13,0A4.28,4.28,0,0,1,450,256.58Zm-1.33,0a3.48,3.48,0,0,0-.58-2.21,2.17,2.17,0,0,0-3.23,0,4.42,4.42,0,0,0,0,4.38,2.12,2.12,0,0,0,3.23,0A3.46,3.46,0,0,0,448.71,256.58Z" transform="translate(28 -212)" style="fill:#f2f2f2"/><path d="M463.67,256.52a5.17,5.17,0,0,1-.27,1.72,3.7,3.7,0,0,1-.73,1.28,3.34,3.34,0,0,1-1.06.81,3,3,0,0,1-1.28.27,3.94,3.94,0,0,1-1.14-.15,5.24,5.24,0,0,1-.95-.41l-.08.35H457V249.75h1.29v3.81a5.19,5.19,0,0,1,1.15-.73,3.15,3.15,0,0,1,1.36-.29,2.53,2.53,0,0,1,2.14,1A4.83,4.83,0,0,1,463.67,256.52Zm-1.32,0a3.84,3.84,0,0,0-.46-2.08,1.58,1.58,0,0,0-1.45-.7,3,3,0,0,0-1.14.24,4.57,4.57,0,0,0-1.06.63V259a5.51,5.51,0,0,0,.94.34,3.46,3.46,0,0,0,.89.1,2.11,2.11,0,0,0,1.67-.7A3.34,3.34,0,0,0,462.35,256.55Z" transform="translate(28 -212)" style="fill:#f2f2f2"/><path d="M467.06,251.48h-1.45v-1.34h1.45Zm-.09,8.91h-1.28v-7.63H467Z" transform="translate(28 -212)" style="fill:#f2f2f2"/><path d="M475.91,256.71h-5.63a3.21,3.21,0,0,0,.21,1.22,2.24,2.24,0,0,0,.59.86,2.19,2.19,0,0,0,.84.49,3.35,3.35,0,0,0,1.08.17,4.33,4.33,0,0,0,1.56-.31,3.89,3.89,0,0,0,1.13-.61h.07v1.4a11,11,0,0,1-1.33.45,5.07,5.07,0,0,1-1.42.19,4.08,4.08,0,0,1-3-1,3.88,3.88,0,0,1-1.06-2.92,4.23,4.23,0,0,1,1-3,3.51,3.51,0,0,1,2.69-1.1,3.06,3.06,0,0,1,2.38.91,3.61,3.61,0,0,1,.84,2.56Zm-1.25-1a2.32,2.32,0,0,0-.51-1.56,2,2,0,0,0-1.53-.56,2.23,2.23,0,0,0-1.64.61,2.4,2.4,0,0,0-.7,1.51Z" transform="translate(28 -212)" style="fill:#f2f2f2"/><path d="M484.24,260.39H483V256a6,6,0,0,0-.07-1,1.85,1.85,0,0,0-.22-.73,1.06,1.06,0,0,0-.49-.42,2,2,0,0,0-.84-.14,2.56,2.56,0,0,0-1.1.26,5.44,5.44,0,0,0-1.1.66v5.7h-1.28v-7.63h1.28v.84a5.4,5.4,0,0,1,1.25-.78,3.33,3.33,0,0,1,1.32-.28,2.35,2.35,0,0,1,1.88.75,3.14,3.14,0,0,1,.65,2.15Z" transform="translate(28 -212)" style="fill:#f2f2f2"/><path d="M419.44,276.71h-5.62a3.21,3.21,0,0,0,.21,1.22,2.22,2.22,0,0,0,.58.86,2.31,2.31,0,0,0,.85.49,3.29,3.29,0,0,0,1.07.17,4.43,4.43,0,0,0,1.57-.31,3.81,3.81,0,0,0,1.12-.61h.07v1.4a10.26,10.26,0,0,1-1.32.45,5.15,5.15,0,0,1-1.43.19,4.07,4.07,0,0,1-3-1,3.88,3.88,0,0,1-1.07-2.92,4.23,4.23,0,0,1,1-3,3.51,3.51,0,0,1,2.69-1.1,3.08,3.08,0,0,1,2.39.91,3.65,3.65,0,0,1,.83,2.56Zm-1.25-1a2.22,2.22,0,0,0-.51-1.56,1.94,1.94,0,0,0-1.52-.56,2.27,2.27,0,0,0-1.65.61,2.34,2.34,0,0,0-.69,1.51Z" transform="translate(28 -212)" style="fill:#f2f2f2"/><path d="M427,279.91a7.66,7.66,0,0,1-1.22.48,4.16,4.16,0,0,1-1.23.17,4.61,4.61,0,0,1-1.52-.24,3.07,3.07,0,0,1-1.18-.74,3.23,3.23,0,0,1-.77-1.24,5.2,5.2,0,0,1-.28-1.76,4.11,4.11,0,0,1,1-2.94,3.61,3.61,0,0,1,2.72-1.06,4.67,4.67,0,0,1,1.29.18,8.25,8.25,0,0,1,1.16.45v1.43H427a5,5,0,0,0-1.21-.7,3.25,3.25,0,0,0-1.22-.25,2.17,2.17,0,0,0-1.73.74,4,4,0,0,0,0,4.28,2.15,2.15,0,0,0,1.74.74,3.64,3.64,0,0,0,.79-.1,3.37,3.37,0,0,0,.72-.27l.53-.3.39-.28H427Z" transform="translate(28 -212)" style="fill:#f2f2f2"/><path d="M435.19,276.58a4.26,4.26,0,0,1-.95,2.94,3.6,3.6,0,0,1-5.14,0,5,5,0,0,1,0-5.89,3.57,3.57,0,0,1,5.14,0A4.27,4.27,0,0,1,435.19,276.58Zm-1.32,0a3.54,3.54,0,0,0-.58-2.21,2.18,2.18,0,0,0-3.24,0,4.42,4.42,0,0,0,0,4.38,2.12,2.12,0,0,0,3.23,0A3.46,3.46,0,0,0,433.87,276.58Z" transform="translate(28 -212)" style="fill:#f2f2f2"/><path d="M443.57,280.39h-1.29V276a7.47,7.47,0,0,0-.06-1,2,2,0,0,0-.22-.73,1,1,0,0,0-.5-.42,2,2,0,0,0-.83-.14,2.56,2.56,0,0,0-1.1.26,5.44,5.44,0,0,0-1.1.66v5.7h-1.29v-7.63h1.29v.84a5.34,5.34,0,0,1,1.24-.78,3.4,3.4,0,0,1,1.32-.28,2.37,2.37,0,0,1,1.89.75,3.19,3.19,0,0,1,.65,2.15Z" transform="translate(28 -212)" style="fill:#f2f2f2"/><path d="M452.55,276.58a4.27,4.27,0,0,1-1,2.94,3.59,3.59,0,0,1-5.13,0,5,5,0,0,1,0-5.89,3.56,3.56,0,0,1,5.13,0A4.28,4.28,0,0,1,452.55,276.58Zm-1.33,0a3.48,3.48,0,0,0-.58-2.21,2.17,2.17,0,0,0-3.23,0,4.42,4.42,0,0,0,0,4.38,2.12,2.12,0,0,0,3.23,0A3.46,3.46,0,0,0,451.22,276.58Zm-.06-7.65-1.87,2.56h-1l1.22-2.56Z" transform="translate(28 -212)" style="fill:#f2f2f2"/><path d="M465.68,280.39H464.4V276c0-.32,0-.64,0-1a1.94,1.94,0,0,0-.19-.73,1,1,0,0,0-.45-.44,1.88,1.88,0,0,0-.84-.15,2.37,2.37,0,0,0-1.08.27,6.67,6.67,0,0,0-1.08.68c0,.11,0,.23,0,.37s0,.28,0,.41v4.89h-1.28V276c0-.33,0-.65-.05-1a2.1,2.1,0,0,0-.18-.72,1.05,1.05,0,0,0-.46-.45,2,2,0,0,0-.84-.14,2.3,2.3,0,0,0-1.06.26,6.54,6.54,0,0,0-1.06.66v5.7h-1.28v-7.63h1.28v.84a5.83,5.83,0,0,1,1.2-.78,3.1,3.1,0,0,1,1.28-.28,2.49,2.49,0,0,1,1.32.33,2,2,0,0,1,.81.91,6.73,6.73,0,0,1,1.42-.95,3.38,3.38,0,0,1,1.38-.29,2.2,2.2,0,0,1,1.85.77,3.33,3.33,0,0,1,.6,2.13Z" transform="translate(28 -212)" style="fill:#f2f2f2"/><path d="M469.54,271.48h-1.45v-1.34h1.45Zm-.08,8.91h-1.29v-7.63h1.29Z" transform="translate(28 -212)" style="fill:#f2f2f2"/><path d="M477.64,279.91a7,7,0,0,1-1.22.48,4,4,0,0,1-1.22.17,4.61,4.61,0,0,1-1.52-.24,3.07,3.07,0,0,1-1.18-.74,3.25,3.25,0,0,1-.78-1.24,5.21,5.21,0,0,1-.27-1.76,4.07,4.07,0,0,1,1-2.94,3.61,3.61,0,0,1,2.72-1.06,4.78,4.78,0,0,1,1.29.18,8.1,8.1,0,0,1,1.15.45v1.43h-.06a5,5,0,0,0-1.22-.7,3.17,3.17,0,0,0-1.22-.25,2.15,2.15,0,0,0-1.72.74,3.23,3.23,0,0,0-.64,2.15,3.28,3.28,0,0,0,.62,2.13,2.16,2.16,0,0,0,1.74.74,3.73,3.73,0,0,0,.8-.1,3.37,3.37,0,0,0,.72-.27l.53-.3.39-.28h.06Z" transform="translate(28 -212)" style="fill:#f2f2f2"/><path d="M485.8,276.58a4.27,4.27,0,0,1-1,2.94,3.59,3.59,0,0,1-5.13,0,5,5,0,0,1,0-5.89,3.56,3.56,0,0,1,5.13,0A4.28,4.28,0,0,1,485.8,276.58Zm-1.33,0a3.48,3.48,0,0,0-.58-2.21,2.17,2.17,0,0,0-3.23,0,4.42,4.42,0,0,0,0,4.38,2.12,2.12,0,0,0,3.23,0A3.46,3.46,0,0,0,484.47,276.58Z" transform="translate(28 -212)" style="fill:#f2f2f2"/></svg>