<svg id="Capa_1" data-name="Capa 1" xmlns="http://www.w3.org/2000/svg" viewBox="0 0 906 89"><title>mapa1</title><rect width="906" height="89" style="fill:#fff"/><rect x="328" y="26" width="225" height="63" style="fill:#84a0b4"/><path d="M437.23,60.39h-6.71V50.21h6.71v1.21h-5.35v2.79h5.35v1.2h-5.35v3.78h5.35Z" transform="translate(-20)" style="fill:#f2f2f2"/><path d="M440.57,60.39h-1.28V49.75h1.28Z" transform="translate(-20)" style="fill:#f2f2f2"/><path d="M449.05,60.39h-1.28v-.81l-.46.32a2.79,2.79,0,0,1-.57.33,3.47,3.47,0,0,1-.73.27,4.1,4.1,0,0,1-1,.1,2.42,2.42,0,0,1-1.75-.68,2.31,2.31,0,0,1-.72-1.74,2.5,2.5,0,0,1,.37-1.41,2.46,2.46,0,0,1,1.07-.84,5.44,5.44,0,0,1,1.67-.42c.65-.07,1.35-.13,2.1-.16v-.2a1.61,1.61,0,0,0-.15-.73,1.19,1.19,0,0,0-.44-.45,2.13,2.13,0,0,0-.66-.21,5.21,5.21,0,0,0-.8,0,5.37,5.37,0,0,0-1.13.13,8.81,8.81,0,0,0-1.28.39h-.07V52.92c.25-.07.61-.14,1.08-.23a8.57,8.57,0,0,1,1.41-.12,7.17,7.17,0,0,1,1.4.13,2.73,2.73,0,0,1,1,.46,2.07,2.07,0,0,1,.65.81,3,3,0,0,1,.23,1.24Zm-1.28-1.88V56.39c-.39,0-.85,0-1.38.1a6.51,6.51,0,0,0-1.27.2,2,2,0,0,0-.89.49,1.19,1.19,0,0,0-.34.91,1.24,1.24,0,0,0,.39,1,1.88,1.88,0,0,0,1.21.33,2.79,2.79,0,0,0,1.24-.27A5.24,5.24,0,0,0,447.77,58.51Z" transform="translate(-20)" style="fill:#f2f2f2"/><path d="M457,58.19a2.08,2.08,0,0,1-.87,1.72,3.78,3.78,0,0,1-2.36.67,5.43,5.43,0,0,1-1.55-.21,6.39,6.39,0,0,1-1.19-.44V58.49h.07a5,5,0,0,0,1.35.73,4.24,4.24,0,0,0,1.43.27,2.72,2.72,0,0,0,1.33-.27.93.93,0,0,0,.48-.87.88.88,0,0,0-.26-.68,2.48,2.48,0,0,0-1-.4l-.72-.14a7.35,7.35,0,0,1-.8-.18,2.7,2.7,0,0,1-1.43-.78A1.94,1.94,0,0,1,451,54.9a2.1,2.1,0,0,1,.2-.89,2.27,2.27,0,0,1,.59-.74,2.71,2.71,0,0,1,1-.51,4.27,4.27,0,0,1,1.33-.19,6.06,6.06,0,0,1,1.38.17,5.1,5.1,0,0,1,1.17.41v1.37h-.07a4.5,4.5,0,0,0-1.2-.61,4,4,0,0,0-1.38-.25,2.43,2.43,0,0,0-1.19.27,1,1,0,0,0-.19,1.51,2.27,2.27,0,0,0,.93.39l.8.17c.29,0,.54.1.73.15a2.66,2.66,0,0,1,1.38.7A1.83,1.83,0,0,1,457,58.19Z" transform="translate(-20)" style="fill:#f2f2f2"/><path d="M462.78,60.32a6.48,6.48,0,0,1-1.55.22,2.37,2.37,0,0,1-1.78-.63,2.84,2.84,0,0,1-.61-2V53.84H458V52.76h.86v-2.2h1.29v2.2h2.65v1.08h-2.65v3.48c0,.4,0,.71,0,.94a1.44,1.44,0,0,0,.19.63,1,1,0,0,0,.41.4,2.07,2.07,0,0,0,.8.12,2.61,2.61,0,0,0,.66-.09,4.46,4.46,0,0,0,.49-.15h.07Z" transform="translate(-20)" style="fill:#f2f2f2"/><path d="M465.71,51.48h-1.44V50.14h1.44Zm-.08,8.91h-1.28V52.76h1.28Z" transform="translate(-20)" style="fill:#f2f2f2"/><path d="M473.82,59.91a7.31,7.31,0,0,1-1.22.48,4.07,4.07,0,0,1-1.23.17,4.55,4.55,0,0,1-1.51-.24,3.11,3.11,0,0,1-1.19-.74,3.23,3.23,0,0,1-.77-1.24,5.21,5.21,0,0,1-.27-1.76,4.07,4.07,0,0,1,1-2.94,3.59,3.59,0,0,1,2.71-1.06,4.67,4.67,0,0,1,1.29.18,8.25,8.25,0,0,1,1.16.45v1.43h-.07a4.81,4.81,0,0,0-1.21-.7,3.21,3.21,0,0,0-1.22-.25,2.18,2.18,0,0,0-1.73.74,3.23,3.23,0,0,0-.63,2.15,3.28,3.28,0,0,0,.62,2.13,2.15,2.15,0,0,0,1.74.74,3.64,3.64,0,0,0,.79-.1,3.69,3.69,0,0,0,.73-.27c.18-.1.36-.2.52-.31a2.55,2.55,0,0,0,.39-.27h.07Z" transform="translate(-20)" style="fill:#f2f2f2"/><path d="M476.85,51.48H475.4V50.14h1.45Zm-.08,8.91h-1.29V52.76h1.29Z" transform="translate(-20)" style="fill:#f2f2f2"/><path d="M483.28,60.32a6.13,6.13,0,0,1-.79.16,5.63,5.63,0,0,1-.77.06,2.35,2.35,0,0,1-1.77-.63,2.8,2.8,0,0,1-.61-2V53.84h-.87V52.76h.87v-2.2h1.28v2.2h2.66v1.08h-2.66v3.48c0,.4,0,.71,0,.94a1.59,1.59,0,0,0,.19.63,1,1,0,0,0,.42.4,2,2,0,0,0,.8.12,2.48,2.48,0,0,0,.65-.09,4.82,4.82,0,0,0,.5-.15h.07Z" transform="translate(-20)" style="fill:#f2f2f2"/><path d="M491.36,52.76l-4.45,10.45h-1.38L487,60l-3-7.26h1.4l2.34,5.66L490,52.76Z" transform="translate(-20)" style="fill:#f2f2f2"/></svg>