<svg id="Capa_1" data-name="Capa 1" xmlns="http://www.w3.org/2000/svg" viewBox="0 0 906 96"><title>mapa5</title><rect width="906" height="96" style="fill:#fff"/><rect x="147" width="161" height="74" style="fill:#a6a6a6"/><path d="M218.23,346.39h-1.35v-5H211.8v5h-1.35V336.21h1.35v4h5.08v-4h1.35Z" transform="translate(-20 -315)" style="fill:#f2f2f2"/><path d="M227.37,342.58a4.31,4.31,0,0,1-1,2.94,3.6,3.6,0,0,1-5.14,0,5,5,0,0,1,0-5.89,3.57,3.57,0,0,1,5.14,0A4.32,4.32,0,0,1,227.37,342.58Zm-1.32,0a3.47,3.47,0,0,0-.59-2.21,2.17,2.17,0,0,0-3.23,0,4.42,4.42,0,0,0,0,4.38,2.12,2.12,0,0,0,3.23,0A3.46,3.46,0,0,0,226.05,342.58Z" transform="translate(-20 -315)" style="fill:#f2f2f2"/><path d="M234.13,340.16h-.07a3.89,3.89,0,0,0-.56-.1,5.85,5.85,0,0,0-.64,0,2.72,2.72,0,0,0-1.15.26,5.28,5.28,0,0,0-1.06.68v5.42h-1.29v-7.63h1.29v1.12A6.24,6.24,0,0,1,232,339a2.92,2.92,0,0,1,1.19-.25h.49l.45.07Z" transform="translate(-20 -315)" style="fill:#f2f2f2"/><path d="M236.72,337.48h-1.45v-1.34h1.45Zm-.09,8.91h-1.28v-7.63h1.28Z" transform="translate(-20 -315)" style="fill:#f2f2f2"/><path d="M244.71,346.39h-6.16v-.95l4.45-5.61h-4.36v-1.07h6v.91l-4.47,5.63h4.58Z" transform="translate(-20 -315)" style="fill:#f2f2f2"/><path d="M253,342.58a4.27,4.27,0,0,1-1,2.94,3.59,3.59,0,0,1-5.13,0,5,5,0,0,1,0-5.89,3.56,3.56,0,0,1,5.13,0A4.28,4.28,0,0,1,253,342.58Zm-1.33,0a3.48,3.48,0,0,0-.58-2.21,2.17,2.17,0,0,0-3.23,0,4.42,4.42,0,0,0,0,4.38,2.12,2.12,0,0,0,3.23,0A3.46,3.46,0,0,0,251.63,342.58Z" transform="translate(-20 -315)" style="fill:#f2f2f2"/><path d="M261.33,346.39h-1.28V342a7.47,7.47,0,0,0-.06-1,1.85,1.85,0,0,0-.23-.73,1,1,0,0,0-.49-.42,2,2,0,0,0-.83-.14,2.6,2.6,0,0,0-1.11.26,5.44,5.44,0,0,0-1.1.66v5.7H255v-7.63h1.28v.84a5.4,5.4,0,0,1,1.25-.78,3.4,3.4,0,0,1,1.32-.28,2.35,2.35,0,0,1,1.88.75,3.14,3.14,0,0,1,.65,2.15Z" transform="translate(-20 -315)" style="fill:#f2f2f2"/><path d="M267.77,346.32a6.48,6.48,0,0,1-1.55.22,2.37,2.37,0,0,1-1.78-.63,2.84,2.84,0,0,1-.6-2v-4.06H263v-1.08h.87v-2.2h1.28v2.2h2.65v1.08h-2.65v3.48c0,.4,0,.71,0,.94a1.59,1.59,0,0,0,.19.63,1,1,0,0,0,.41.4,2.09,2.09,0,0,0,.81.12,2.54,2.54,0,0,0,.65-.09l.5-.15h.06Z" transform="translate(-20 -315)" style="fill:#f2f2f2"/><path d="M275.26,346.39H274v-.81l-.46.32a3.39,3.39,0,0,1-.56.33,3.79,3.79,0,0,1-.74.27,4.1,4.1,0,0,1-1,.1,2.46,2.46,0,0,1-1.75-.68,2.31,2.31,0,0,1-.72-1.74,2.42,2.42,0,0,1,.37-1.41,2.46,2.46,0,0,1,1.07-.84,5.44,5.44,0,0,1,1.67-.42c.65-.07,1.35-.13,2.1-.16v-.2a1.61,1.61,0,0,0-.15-.73,1.15,1.15,0,0,0-.45-.45,2,2,0,0,0-.65-.21,5.21,5.21,0,0,0-.8-.05,5.37,5.37,0,0,0-1.13.13,8.81,8.81,0,0,0-1.28.39h-.07v-1.31c.25-.07.61-.14,1.09-.23a8.36,8.36,0,0,1,1.4-.12,6.43,6.43,0,0,1,1.4.14,2.72,2.72,0,0,1,1,.45,2.07,2.07,0,0,1,.65.81,3,3,0,0,1,.23,1.24ZM274,344.51v-2.12c-.39,0-.85.05-1.38.1a6.38,6.38,0,0,0-1.27.2,1.93,1.93,0,0,0-.89.49,1.19,1.19,0,0,0-.34.91,1.24,1.24,0,0,0,.39,1,1.88,1.88,0,0,0,1.21.33,2.82,2.82,0,0,0,1.24-.27A5.24,5.24,0,0,0,274,344.51Z" transform="translate(-20 -315)" style="fill:#f2f2f2"/><path d="M279,346.39h-1.28V335.75H279Z" transform="translate(-20 -315)" style="fill:#f2f2f2"/><path d="M204.5,366.39h-1.28v-.8a4.77,4.77,0,0,1-1.16.75,3.28,3.28,0,0,1-1.3.26,2.58,2.58,0,0,1-2.17-1.05,4.67,4.67,0,0,1-.81-2.92,5.14,5.14,0,0,1,.28-1.73,3.91,3.91,0,0,1,.75-1.29,3.08,3.08,0,0,1,1.08-.79,3,3,0,0,1,1.28-.28,4.29,4.29,0,0,1,1.07.13,5.12,5.12,0,0,1,1,.39v-3.31h1.28Zm-1.28-1.88v-4.38a4.69,4.69,0,0,0-.93-.32,4.22,4.22,0,0,0-.9-.09,2,2,0,0,0-1.68.75,3.33,3.33,0,0,0-.6,2.13,3.78,3.78,0,0,0,.46,2.07,1.66,1.66,0,0,0,1.49.71,2.78,2.78,0,0,0,1.11-.24A4.5,4.5,0,0,0,203.22,364.51Z" transform="translate(-20 -315)" style="fill:#f2f2f2"/><path d="M213.42,362.71H207.8a3.21,3.21,0,0,0,.21,1.22,2.22,2.22,0,0,0,.58.86,2.31,2.31,0,0,0,.85.49,3.29,3.29,0,0,0,1.07.17,4.43,4.43,0,0,0,1.57-.31,4,4,0,0,0,1.13-.61h.06v1.4a10.26,10.26,0,0,1-1.32.45,5.12,5.12,0,0,1-1.42.19,4.08,4.08,0,0,1-3-1,3.88,3.88,0,0,1-1.07-2.92,4.23,4.23,0,0,1,1-3,3.53,3.53,0,0,1,2.69-1.1,3.08,3.08,0,0,1,2.39.91,3.65,3.65,0,0,1,.83,2.56Zm-1.25-1a2.22,2.22,0,0,0-.51-1.56,1.94,1.94,0,0,0-1.52-.56,2.27,2.27,0,0,0-1.65.61,2.34,2.34,0,0,0-.69,1.51Z" transform="translate(-20 -315)" style="fill:#f2f2f2"/><path d="M226.51,366.39h-1.28V362c0-.32,0-.64,0-1a2.14,2.14,0,0,0-.19-.73,1.12,1.12,0,0,0-.45-.44,1.93,1.93,0,0,0-.85-.15,2.4,2.4,0,0,0-1.08.27,7.14,7.14,0,0,0-1.08.68c0,.11,0,.23,0,.37s0,.28,0,.41v4.89H220.3V362c0-.33,0-.65,0-1a2.08,2.08,0,0,0-.19-.72,1.08,1.08,0,0,0-.45-.45,2.11,2.11,0,0,0-.85-.14,2.33,2.33,0,0,0-1.06.26,6.07,6.07,0,0,0-1.05.66v5.7h-1.29v-7.63h1.29v.84a5.83,5.83,0,0,1,1.2-.78,3.06,3.06,0,0,1,1.27-.28,2.55,2.55,0,0,1,1.33.33,2,2,0,0,1,.8.91,6.52,6.52,0,0,1,1.43-.95,3.33,3.33,0,0,1,1.37-.29,2.22,2.22,0,0,1,1.86.77,3.33,3.33,0,0,1,.59,2.13Z" transform="translate(-20 -315)" style="fill:#f2f2f2"/><path d="M234.92,366.39h-1.28v-.81l-.46.32a3,3,0,0,1-.56.33,3.56,3.56,0,0,1-.74.27,4,4,0,0,1-1,.1,2.46,2.46,0,0,1-1.75-.68,2.3,2.3,0,0,1-.71-1.74,2.22,2.22,0,0,1,1.43-2.25,5.51,5.51,0,0,1,1.68-.42c.65-.07,1.35-.13,2.09-.16v-.2a1.61,1.61,0,0,0-.15-.73,1.12,1.12,0,0,0-.44-.45,2,2,0,0,0-.66-.21,5.13,5.13,0,0,0-.8-.05,5.28,5.28,0,0,0-1.12.13,8.56,8.56,0,0,0-1.29.39h-.07v-1.31c.25-.07.61-.14,1.09-.23a8.36,8.36,0,0,1,1.4-.12,6.46,6.46,0,0,1,1.41.14,2.67,2.67,0,0,1,1,.45,2,2,0,0,1,.66.81,3,3,0,0,1,.22,1.24Zm-1.28-1.88v-2.12c-.39,0-.85.05-1.38.1a6.39,6.39,0,0,0-1.26.2,2,2,0,0,0-.9.49,1.19,1.19,0,0,0-.34.91,1.21,1.21,0,0,0,.4,1,1.86,1.86,0,0,0,1.21.33,2.85,2.85,0,0,0,1.24-.27A4.9,4.9,0,0,0,233.64,364.51Z" transform="translate(-20 -315)" style="fill:#f2f2f2"/><path d="M243.78,366.39H242.5V362a7.47,7.47,0,0,0-.06-1,2,2,0,0,0-.23-.73,1,1,0,0,0-.49-.42,2,2,0,0,0-.84-.14,2.59,2.59,0,0,0-1.1.26,5.44,5.44,0,0,0-1.1.66v5.7H237.4v-7.63h1.28v.84a5.4,5.4,0,0,1,1.25-.78,3.36,3.36,0,0,1,1.32-.28,2.35,2.35,0,0,1,1.88.75,3.14,3.14,0,0,1,.65,2.15Z" transform="translate(-20 -315)" style="fill:#f2f2f2"/><path d="M252.45,366.39h-1.28v-.8a4.77,4.77,0,0,1-1.16.75,3.33,3.33,0,0,1-1.31.26,2.6,2.6,0,0,1-2.17-1.05,4.74,4.74,0,0,1-.8-2.92,4.91,4.91,0,0,1,.28-1.73,3.91,3.91,0,0,1,.75-1.29,3.08,3.08,0,0,1,1.08-.79,3,3,0,0,1,1.28-.28,4.29,4.29,0,0,1,1.07.13,5.39,5.39,0,0,1,1,.39v-3.31h1.28Zm-1.28-1.88v-4.38a4.69,4.69,0,0,0-.93-.32,4.29,4.29,0,0,0-.9-.09,2,2,0,0,0-1.68.75,3.33,3.33,0,0,0-.6,2.13,3.78,3.78,0,0,0,.46,2.07,1.66,1.66,0,0,0,1.49.71,2.78,2.78,0,0,0,1.11-.24A4.72,4.72,0,0,0,251.17,364.51Z" transform="translate(-20 -315)" style="fill:#f2f2f2"/><path d="M265.55,365.91a7.66,7.66,0,0,1-1.22.48,4.16,4.16,0,0,1-1.23.17,4.61,4.61,0,0,1-1.52-.24,3.07,3.07,0,0,1-1.18-.74,3.23,3.23,0,0,1-.77-1.24,5.2,5.2,0,0,1-.28-1.76,4.11,4.11,0,0,1,1-2.94,3.61,3.61,0,0,1,2.72-1.06,4.67,4.67,0,0,1,1.29.18,8.25,8.25,0,0,1,1.16.45v1.43h-.07a5,5,0,0,0-1.21-.7,3.25,3.25,0,0,0-1.22-.25,2.17,2.17,0,0,0-1.73.74,4,4,0,0,0,0,4.28,2.15,2.15,0,0,0,1.74.74,3.64,3.64,0,0,0,.79-.1,3.37,3.37,0,0,0,.72-.27l.53-.3.39-.28h.07Z" transform="translate(-20 -315)" style="fill:#f2f2f2"/><path d="M273.53,366.39h-1.29v-.85a5.91,5.91,0,0,1-1.24.79,3.18,3.18,0,0,1-1.32.27,2.4,2.4,0,0,1-1.87-.73,3.09,3.09,0,0,1-.67-2.16v-4.95h1.29v4.34a7.31,7.31,0,0,0,.05,1,1.92,1.92,0,0,0,.23.71,1.16,1.16,0,0,0,.48.43,2.13,2.13,0,0,0,.86.14,2.82,2.82,0,0,0,1.09-.26,4.94,4.94,0,0,0,1.1-.66v-5.7h1.29Z" transform="translate(-20 -315)" style="fill:#f2f2f2"/><path d="M280.82,360.16h-.07a3.89,3.89,0,0,0-.56-.1,5.85,5.85,0,0,0-.64,0,2.71,2.71,0,0,0-1.14.26,5.35,5.35,0,0,0-1.07.68v5.42h-1.29v-7.63h1.29v1.12a6.24,6.24,0,0,1,1.35-.87,3,3,0,0,1,1.19-.25h.49l.45.07Z" transform="translate(-20 -315)" style="fill:#f2f2f2"/><path d="M288.63,358.76l-3.09,7.63h-1.29l-3.07-7.63h1.4l2.36,6.07,2.35-6.07Z" transform="translate(-20 -315)" style="fill:#f2f2f2"/><path d="M296.58,362.71H291a3.21,3.21,0,0,0,.21,1.22,2.22,2.22,0,0,0,.58.86,2.35,2.35,0,0,0,.84.49,3.4,3.4,0,0,0,1.08.17,4.43,4.43,0,0,0,1.57-.31,3.81,3.81,0,0,0,1.12-.61h.07v1.4a10.26,10.26,0,0,1-1.32.45,5.15,5.15,0,0,1-1.43.19,4.07,4.07,0,0,1-3-1,3.88,3.88,0,0,1-1.07-2.92,4.23,4.23,0,0,1,1-3,3.51,3.51,0,0,1,2.69-1.1,3.08,3.08,0,0,1,2.39.91,3.65,3.65,0,0,1,.83,2.56Zm-1.25-1a2.22,2.22,0,0,0-.51-1.56,2,2,0,0,0-1.53-.56,2.26,2.26,0,0,0-1.64.61,2.34,2.34,0,0,0-.69,1.51Z" transform="translate(-20 -315)" style="fill:#f2f2f2"/><rect x="337" width="161" height="74" style="fill:#a6a6a6"/><path d="M418,338.21l-3.71,10.18h-1.8l-3.71-10.18h1.45l3.19,9,3.19-9Z" transform="translate(-20 -315)" style="fill:#f2f2f2"/><path d="M425.19,344.71h-5.63a3.21,3.21,0,0,0,.21,1.22,2.24,2.24,0,0,0,1.43,1.35,3.29,3.29,0,0,0,1.07.17,4.39,4.39,0,0,0,1.57-.31,4,4,0,0,0,1.13-.61H425v1.4a11,11,0,0,1-1.33.45,5.12,5.12,0,0,1-1.42.19,4.08,4.08,0,0,1-3-1,3.88,3.88,0,0,1-1.07-2.92,4.23,4.23,0,0,1,1-3,3.5,3.5,0,0,1,2.69-1.1,3.06,3.06,0,0,1,2.38.91,3.61,3.61,0,0,1,.84,2.56Zm-1.25-1a2.32,2.32,0,0,0-.51-1.56,2,2,0,0,0-1.53-.56,2.27,2.27,0,0,0-1.65.61,2.44,2.44,0,0,0-.69,1.51Z" transform="translate(-20 -315)" style="fill:#f2f2f2"/><path d="M431.9,342.16h-.07a3.89,3.89,0,0,0-.56-.1,5.85,5.85,0,0,0-.64,0,2.71,2.71,0,0,0-1.14.26,5.35,5.35,0,0,0-1.07.68v5.42h-1.29v-7.63h1.29v1.12a6.24,6.24,0,0,1,1.35-.87,3,3,0,0,1,1.19-.25h.49l.45.07Z" transform="translate(-20 -315)" style="fill:#f2f2f2"/><path d="M437.07,348.32a5.51,5.51,0,0,1-.79.16,5.38,5.38,0,0,1-.76.06,2.37,2.37,0,0,1-1.78-.63,2.84,2.84,0,0,1-.6-2v-4.06h-.87v-1.08h.87v-2.2h1.28v2.2h2.65v1.08h-2.65v3.48c0,.4,0,.71,0,.94a1.59,1.59,0,0,0,.19.63,1,1,0,0,0,.41.4,2.09,2.09,0,0,0,.81.12,2.48,2.48,0,0,0,.65-.09l.5-.15h.06Z" transform="translate(-20 -315)" style="fill:#f2f2f2"/><path d="M440,339.48h-1.45v-1.34H440Zm-.09,8.91h-1.28v-7.63h1.28Z" transform="translate(-20 -315)" style="fill:#f2f2f2"/><path d="M448.11,347.91a7,7,0,0,1-1.22.48,4,4,0,0,1-1.22.17,4.61,4.61,0,0,1-1.52-.24,3,3,0,0,1-1.18-.74,3.25,3.25,0,0,1-.78-1.24,5.21,5.21,0,0,1-.27-1.76,4.07,4.07,0,0,1,1-2.94,3.59,3.59,0,0,1,2.72-1.06,4.78,4.78,0,0,1,1.29.18,8.1,8.1,0,0,1,1.15.45v1.43H448a4.81,4.81,0,0,0-1.21-.7,3.17,3.17,0,0,0-1.22-.25,2.15,2.15,0,0,0-1.72.74,3.17,3.17,0,0,0-.64,2.15,3.28,3.28,0,0,0,.62,2.13,2.16,2.16,0,0,0,1.74.74,3.56,3.56,0,0,0,.79-.1,3.47,3.47,0,0,0,.73-.27l.53-.3a4.22,4.22,0,0,0,.38-.28h.07Z" transform="translate(-20 -315)" style="fill:#f2f2f2"/><path d="M455.7,348.39h-1.28v-.81l-.46.32a3.45,3.45,0,0,1-.57.33,3.36,3.36,0,0,1-.74.27,4,4,0,0,1-1,.1,2.45,2.45,0,0,1-1.75-.68,2.31,2.31,0,0,1-.72-1.74,2.22,2.22,0,0,1,1.43-2.25,5.58,5.58,0,0,1,1.68-.42c.65-.07,1.35-.13,2.1-.16v-.2a1.49,1.49,0,0,0-.16-.73,1.12,1.12,0,0,0-.44-.45,2,2,0,0,0-.65-.21,5.49,5.49,0,0,0-1.93.08,8.56,8.56,0,0,0-1.29.39h-.07v-1.31c.25-.07.62-.14,1.09-.23a8.45,8.45,0,0,1,1.4-.12,6.46,6.46,0,0,1,1.41.14,2.61,2.61,0,0,1,1,.45,2,2,0,0,1,.66.81,3,3,0,0,1,.23,1.24Zm-1.28-1.88v-2.12c-.4,0-.86.05-1.39.1a6.39,6.39,0,0,0-1.26.2,2,2,0,0,0-.9.49,1.23,1.23,0,0,0-.34.91,1.24,1.24,0,0,0,.4,1,1.86,1.86,0,0,0,1.21.33,2.85,2.85,0,0,0,1.24-.27A5.24,5.24,0,0,0,454.42,346.51Z" transform="translate(-20 -315)" style="fill:#f2f2f2"/><path d="M459.47,348.39h-1.29V337.75h1.29Z" transform="translate(-20 -315)" style="fill:#f2f2f2"/><path d="M394.5,368.39h-1.28v-.8a4.77,4.77,0,0,1-1.16.75,3.28,3.28,0,0,1-1.3.26,2.58,2.58,0,0,1-2.17-1.05,4.67,4.67,0,0,1-.81-2.92,4.91,4.91,0,0,1,.28-1.73,3.91,3.91,0,0,1,.75-1.29,3.08,3.08,0,0,1,1.08-.79,3,3,0,0,1,1.28-.28,4.29,4.29,0,0,1,1.07.13,5.12,5.12,0,0,1,1,.39v-3.31h1.28Zm-1.28-1.88v-4.38a4.69,4.69,0,0,0-.93-.32,4.22,4.22,0,0,0-.9-.09,2,2,0,0,0-1.68.75,3.33,3.33,0,0,0-.6,2.13,3.78,3.78,0,0,0,.46,2.07,1.66,1.66,0,0,0,1.49.71,2.78,2.78,0,0,0,1.11-.24A4.72,4.72,0,0,0,393.22,366.51Z" transform="translate(-20 -315)" style="fill:#f2f2f2"/><path d="M403.42,364.71H397.8a3.21,3.21,0,0,0,.21,1.22,2.22,2.22,0,0,0,.58.86,2.31,2.31,0,0,0,.85.49,3.29,3.29,0,0,0,1.07.17,4.43,4.43,0,0,0,1.57-.31,4,4,0,0,0,1.13-.61h.06v1.4a10.26,10.26,0,0,1-1.32.45,5.12,5.12,0,0,1-1.42.19,4.08,4.08,0,0,1-3-1,3.88,3.88,0,0,1-1.07-2.92,4.23,4.23,0,0,1,1-3,3.53,3.53,0,0,1,2.69-1.1,3.08,3.08,0,0,1,2.39.91,3.65,3.65,0,0,1,.83,2.56Zm-1.25-1a2.22,2.22,0,0,0-.51-1.56,1.94,1.94,0,0,0-1.52-.56,2.27,2.27,0,0,0-1.65.61,2.34,2.34,0,0,0-.69,1.51Z" transform="translate(-20 -315)" style="fill:#f2f2f2"/><path d="M416.51,368.39h-1.28V364c0-.32,0-.64,0-1a2.14,2.14,0,0,0-.19-.73,1.12,1.12,0,0,0-.45-.44,1.93,1.93,0,0,0-.85-.15,2.4,2.4,0,0,0-1.08.27,7.14,7.14,0,0,0-1.08.68c0,.11,0,.23,0,.37s0,.28,0,.41v4.89H410.3V364c0-.33,0-.65,0-1a2.08,2.08,0,0,0-.19-.72,1.08,1.08,0,0,0-.45-.45,2.11,2.11,0,0,0-.85-.14,2.33,2.33,0,0,0-1.06.26,6.07,6.07,0,0,0-1,.66v5.7h-1.29v-7.63h1.29v.84a5.83,5.83,0,0,1,1.2-.78,3.06,3.06,0,0,1,1.27-.28,2.55,2.55,0,0,1,1.33.33,2,2,0,0,1,.8.91,6.52,6.52,0,0,1,1.43-.95,3.33,3.33,0,0,1,1.37-.29,2.22,2.22,0,0,1,1.86.77,3.33,3.33,0,0,1,.59,2.13Z" transform="translate(-20 -315)" style="fill:#f2f2f2"/><path d="M424.92,368.39h-1.28v-.81l-.46.32a3,3,0,0,1-.56.33,3.56,3.56,0,0,1-.74.27,4,4,0,0,1-1,.1,2.46,2.46,0,0,1-1.75-.68,2.3,2.3,0,0,1-.71-1.74,2.22,2.22,0,0,1,1.43-2.25,5.51,5.51,0,0,1,1.68-.42c.65-.07,1.35-.13,2.09-.16v-.2a1.61,1.61,0,0,0-.15-.73,1.12,1.12,0,0,0-.44-.45,2,2,0,0,0-.66-.21,5.13,5.13,0,0,0-.8-.05,5.28,5.28,0,0,0-1.12.13,8.56,8.56,0,0,0-1.29.39h-.07v-1.31c.25-.07.61-.14,1.09-.23a8.36,8.36,0,0,1,1.4-.12,6.46,6.46,0,0,1,1.41.14,2.67,2.67,0,0,1,1,.45,2,2,0,0,1,.66.81,3,3,0,0,1,.22,1.24Zm-1.28-1.88v-2.12c-.39,0-.85.05-1.38.1a6.39,6.39,0,0,0-1.26.2,2,2,0,0,0-.9.49,1.19,1.19,0,0,0-.34.91,1.21,1.21,0,0,0,.4,1,1.86,1.86,0,0,0,1.21.33,2.85,2.85,0,0,0,1.24-.27A4.9,4.9,0,0,0,423.64,366.51Z" transform="translate(-20 -315)" style="fill:#f2f2f2"/><path d="M433.78,368.39H432.5V364a7.47,7.47,0,0,0-.06-1,2,2,0,0,0-.23-.73,1,1,0,0,0-.49-.42,2,2,0,0,0-.84-.14,2.59,2.59,0,0,0-1.1.26,5.44,5.44,0,0,0-1.1.66v5.7H427.4v-7.63h1.28v.84a5.4,5.4,0,0,1,1.25-.78,3.36,3.36,0,0,1,1.32-.28,2.35,2.35,0,0,1,1.88.75,3.14,3.14,0,0,1,.65,2.15Z" transform="translate(-20 -315)" style="fill:#f2f2f2"/><path d="M442.45,368.39h-1.28v-.8a4.77,4.77,0,0,1-1.16.75,3.33,3.33,0,0,1-1.31.26,2.6,2.6,0,0,1-2.17-1.05,4.74,4.74,0,0,1-.8-2.92,4.91,4.91,0,0,1,.28-1.73,3.91,3.91,0,0,1,.75-1.29,3.08,3.08,0,0,1,1.08-.79,3,3,0,0,1,1.28-.28,4.29,4.29,0,0,1,1.07.13,5.39,5.39,0,0,1,1,.39v-3.31h1.28Zm-1.28-1.88v-4.38a4.69,4.69,0,0,0-.93-.32,4.29,4.29,0,0,0-.9-.09,2,2,0,0,0-1.68.75,3.33,3.33,0,0,0-.6,2.13,3.78,3.78,0,0,0,.46,2.07,1.66,1.66,0,0,0,1.49.71,2.78,2.78,0,0,0,1.11-.24A4.72,4.72,0,0,0,441.17,366.51Z" transform="translate(-20 -315)" style="fill:#f2f2f2"/><path d="M455.55,367.91a7.66,7.66,0,0,1-1.22.48,4.16,4.16,0,0,1-1.23.17,4.61,4.61,0,0,1-1.52-.24,3.07,3.07,0,0,1-1.18-.74,3.23,3.23,0,0,1-.77-1.24,5.2,5.2,0,0,1-.28-1.76,4.11,4.11,0,0,1,1-2.94,3.61,3.61,0,0,1,2.72-1.06,4.67,4.67,0,0,1,1.29.18,8.25,8.25,0,0,1,1.16.45v1.43h-.07a5,5,0,0,0-1.21-.7,3.25,3.25,0,0,0-1.22-.25,2.17,2.17,0,0,0-1.73.74,4,4,0,0,0,0,4.28,2.15,2.15,0,0,0,1.74.74,3.64,3.64,0,0,0,.79-.1,3.37,3.37,0,0,0,.72-.27l.53-.3.39-.28h.07Z" transform="translate(-20 -315)" style="fill:#f2f2f2"/><path d="M463.53,368.39h-1.29v-.85a5.91,5.91,0,0,1-1.24.79,3.18,3.18,0,0,1-1.32.27,2.4,2.4,0,0,1-1.87-.73,3.09,3.09,0,0,1-.67-2.16v-4.95h1.29v4.34a7.31,7.31,0,0,0,.05,1,1.92,1.92,0,0,0,.23.71,1.16,1.16,0,0,0,.48.43,2.13,2.13,0,0,0,.86.14,2.82,2.82,0,0,0,1.09-.26,4.94,4.94,0,0,0,1.1-.66v-5.7h1.29Z" transform="translate(-20 -315)" style="fill:#f2f2f2"/><path d="M470.82,362.16h-.07a3.89,3.89,0,0,0-.56-.1,5.85,5.85,0,0,0-.64,0,2.71,2.71,0,0,0-1.14.26,5.35,5.35,0,0,0-1.07.68v5.42h-1.29v-7.63h1.29v1.12a6.24,6.24,0,0,1,1.35-.87,3,3,0,0,1,1.19-.25h.49l.45.07Z" transform="translate(-20 -315)" style="fill:#f2f2f2"/><path d="M478.63,360.76l-3.09,7.63h-1.29l-3.07-7.63h1.4l2.36,6.07,2.35-6.07Z" transform="translate(-20 -315)" style="fill:#f2f2f2"/><path d="M486.58,364.71H481a3.21,3.21,0,0,0,.21,1.22,2.22,2.22,0,0,0,.58.86,2.35,2.35,0,0,0,.84.49,3.4,3.4,0,0,0,1.08.17,4.43,4.43,0,0,0,1.57-.31,3.81,3.81,0,0,0,1.12-.61h.07v1.4a10.26,10.26,0,0,1-1.32.45,5.15,5.15,0,0,1-1.43.19,4.07,4.07,0,0,1-3-1,3.88,3.88,0,0,1-1.07-2.92,4.23,4.23,0,0,1,1-3,3.51,3.51,0,0,1,2.69-1.1,3.08,3.08,0,0,1,2.39.91,3.65,3.65,0,0,1,.83,2.56Zm-1.25-1a2.22,2.22,0,0,0-.51-1.56,2,2,0,0,0-1.53-.56,2.26,2.26,0,0,0-1.64.61,2.34,2.34,0,0,0-.69,1.51Z" transform="translate(-20 -315)" style="fill:#f2f2f2"/></svg>